<svg width="24" height="24" viewBox="0 0 24 24" fill="none" xmlns="http://www.w3.org/2000/svg">
<rect width="24" height="24" rx="12" fill="#432F2A"/>
<path fill-rule="evenodd" clip-rule="evenodd" d="M10.9966 3.63851C10.9943 3.63104 10.9978 3.61991 11.005 3.61458C11.012 3.60772 11.0237 3.60193 11.0329 3.60102C11.0419 3.59859 11.0612 3.60744 11.0748 3.61996C11.0983 3.63919 11.0955 3.64254 11.0512 3.64541C11.0503 3.6455 11.0494 3.64557 11.0486 3.64565C11.0808 3.64382 11.0994 3.6572 11.1403 3.70586C11.1818 3.75102 11.1914 3.77009 11.1746 3.77176C11.1737 3.77185 11.1727 3.772 11.1717 3.77221C11.1851 3.77457 11.2328 3.82615 11.2801 3.88757C11.3297 3.95349 11.4318 4.09736 11.506 4.20858C11.5802 4.3198 11.7015 4.50181 11.7742 4.61318C11.8469 4.72456 11.993 4.93952 12.0957 5.0895C12.1999 5.23932 12.3578 5.4639 12.4454 5.58611C12.5345 5.70817 12.6872 5.9117 12.7829 6.03773C12.8801 6.16361 13.0577 6.38469 13.1784 6.5298C13.2975 6.67505 13.4955 6.90027 13.6165 7.03302C13.7375 7.16577 13.9113 7.34873 14.0036 7.44121C14.096 7.53368 14.2595 7.69147 14.3679 7.79005C14.4661 7.88083 14.6606 8.04928 14.8176 8.17821C14.8126 8.17273 14.8106 8.16961 14.8122 8.16945C14.8183 8.16884 14.875 8.21249 14.9372 8.26484C14.9827 8.30417 15.0203 8.33773 15.0355 8.35315C15.165 8.45484 15.3026 8.55912 15.3916 8.62167C15.5242 8.7163 15.7029 8.84024 15.7886 8.89642C15.8744 8.95412 16.0599 9.06967 16.1993 9.1544C16.3385 9.2376 16.5589 9.36355 16.6889 9.43225C16.819 9.50096 17.012 9.59883 17.1187 9.64983C17.2254 9.70083 17.411 9.78559 17.5304 9.83995C17.6498 9.89431 17.8172 9.96701 17.9009 10.0034C17.9846 10.0397 18.0892 10.0848 18.1341 10.1034C18.1742 10.1207 18.334 10.1862 18.5007 10.2545L18.5437 10.2722C18.7249 10.345 19.0598 10.475 19.2883 10.5585C19.517 10.6436 19.8857 10.7733 20.1072 10.8483C20.378 10.9385 20.5079 10.9903 20.5031 11.0031C20.5022 11.0063 20.5021 11.0092 20.5027 11.0117C20.5026 11.0108 20.5027 11.0098 20.503 11.0089C20.5032 11.0085 20.5033 11.0081 20.5035 11.0076C20.5089 10.9994 20.5157 10.991 20.5218 10.9904C20.5279 10.9898 20.5709 11.004 20.6156 11.0196C20.6619 11.0366 20.704 11.057 20.7094 11.0642C20.7147 11.0714 20.7046 11.0939 20.6863 11.1112C20.6697 11.1298 20.6355 11.1578 20.6097 11.1773C20.5694 11.2059 20.5618 11.2067 20.54 11.1888C20.5603 11.2069 20.5578 11.2133 20.5162 11.2436C20.4902 11.2616 20.3125 11.3793 20.1216 11.5046L20.1199 11.5057L20.1194 11.5061L20.1188 11.5064C19.9283 11.6315 19.6757 11.7972 19.5579 11.8764C19.438 11.956 19.2087 12.1128 19.046 12.2276C18.8833 12.3408 18.6118 12.5387 18.4426 12.6649C18.2734 12.7911 18.0061 12.9994 17.8494 13.1274C17.6927 13.2554 17.478 13.4354 17.3735 13.5305C17.2688 13.624 17.1094 13.7708 17.0207 13.8551C16.9321 13.9394 16.803 14.0662 16.7331 14.1378C16.663 14.2079 16.5197 14.3623 16.4129 14.4808C16.3061 14.5992 16.1254 14.8112 16.0131 14.9518C15.8994 15.094 15.7573 15.276 15.6977 15.3589C15.6382 15.4418 15.5277 15.6007 15.4497 15.7147C15.3732 15.8286 15.2268 16.0603 15.1238 16.2323C15.0208 16.4042 14.8918 16.625 14.8383 16.7227C14.7834 16.8206 14.6704 17.0474 14.5879 17.225C14.5039 17.4028 14.3789 17.6786 14.31 17.8379C14.2411 17.9973 14.1029 18.3267 14.0038 18.5692C13.9046 18.8116 13.7569 19.2005 13.6738 19.4337C13.5923 19.6666 13.4965 19.9426 13.4622 20.0477C13.428 20.1527 13.3758 20.3089 13.3443 20.3952C13.296 20.531 13.2867 20.5504 13.2513 20.5539C13.2686 20.5529 13.2817 20.5559 13.2823 20.5615C13.2815 20.5693 13.2646 20.6156 13.242 20.6672C13.2193 20.7187 13.1989 20.7608 13.1943 20.7612C13.1897 20.7617 13.1658 20.7379 13.1413 20.708C13.1167 20.6781 13.0867 20.6395 13.0756 20.6206C13.0657 20.6064 13.0614 20.5963 13.0622 20.5886L13.0616 20.5881C13.0482 20.5771 12.9014 20.356 12.734 20.0969C12.5681 19.8377 12.336 19.4865 12.219 19.3164C12.1035 19.1462 11.8891 18.8486 11.7451 18.655C11.6011 18.4614 11.3471 18.137 11.1805 17.9333C11.014 17.7296 10.7701 17.4458 10.6403 17.3016C10.5089 17.1576 10.3231 16.962 10.2288 16.8651C10.1344 16.7682 9.9997 16.6368 9.93005 16.5713C9.86039 16.5059 9.6566 16.3305 9.47536 16.1806C9.29413 16.0308 9.05999 15.8446 8.95542 15.7687C8.85085 15.6929 8.68209 15.5756 8.58316 15.51C8.48422 15.4444 8.3394 15.3509 8.26226 15.3032C8.18512 15.2554 8.01987 15.1578 7.89409 15.0856C7.76832 15.0134 7.56617 14.901 7.44573 14.836C7.32544 14.7725 7.10971 14.663 6.96732 14.594C6.82492 14.525 6.5665 14.4043 6.39406 14.3275C6.22147 14.2492 5.91288 14.1197 5.71056 14.0366C5.50839 13.955 5.1513 13.818 4.91817 13.7349C4.68489 13.6503 4.3769 13.5423 4.23205 13.4951C4.18377 13.4793 4.13285 13.4628 4.08004 13.4457L4.07977 13.4456L4.07956 13.4456C3.97407 13.4114 3.85328 13.374 3.73879 13.3362L3.73169 13.2337C3.72721 13.2047 3.72071 13.1759 3.71405 13.1535C3.72141 13.1861 3.72942 13.2419 3.73879 13.3362L3.67841 13.3175C3.6467 13.3084 3.60507 13.2925 3.58723 13.2835C3.57396 13.2767 3.56516 13.2673 3.56015 13.2546C3.56231 13.2625 3.56491 13.2691 3.56772 13.2731C3.57671 13.286 3.56909 13.2868 3.53692 13.2731C3.51145 13.2648 3.48126 13.2555 3.46861 13.2521C3.4529 13.2491 3.46084 13.236 3.49517 13.2094C3.52233 13.1883 3.54674 13.1704 3.54979 13.1701C3.55131 13.17 3.55313 13.1883 3.55403 13.2128C3.55418 13.2173 3.55451 13.2219 3.55501 13.2266C3.55496 13.2251 3.55494 13.2235 3.55494 13.222C3.55481 13.1896 3.56946 13.1666 3.60822 13.1381C3.63675 13.1153 3.66421 13.0971 3.66879 13.0967C3.67229 13.0963 3.68071 13.1 3.68973 13.1061C3.6828 13.0986 3.68009 13.0918 3.68343 13.0891C3.6877 13.0856 3.84957 12.9786 4.04486 12.8514C4.24014 12.7242 4.5262 12.534 4.6806 12.4293C4.83515 12.3262 5.09467 12.1479 5.25731 12.0332C5.4201 11.92 5.69152 11.722 5.86073 11.5958C6.02978 11.4681 6.30274 11.2547 6.46783 11.1181C6.63308 10.9831 6.87126 10.7761 6.99959 10.6571C7.12807 10.5396 7.30096 10.373 7.38641 10.2875C7.47034 10.2022 7.59868 10.0677 7.67254 9.98954C7.74503 9.91303 7.94373 9.68073 8.11283 9.47602C8.28208 9.27283 8.49437 9.00684 8.58427 8.88855C8.67416 8.77026 8.80772 8.57986 8.88114 8.46629C8.95457 8.35272 9.08433 8.1396 9.16814 7.99111C9.25348 7.84247 9.3773 7.61607 9.44448 7.48618C9.51166 7.35629 9.62602 7.12775 9.69871 6.97575C9.76987 6.8239 9.87661 6.59612 9.93311 6.46729C9.99114 6.3383 10.0997 6.08262 10.1767 5.89631C10.2537 5.70999 10.3667 5.42152 10.4287 5.25518C10.4907 5.08883 10.5832 4.82551 10.6357 4.67243C10.6883 4.51935 10.7679 4.28195 10.8114 4.1467C10.8565 4.0113 10.8993 3.88384 10.9096 3.86432C10.9164 3.84919 10.9225 3.83997 10.9358 3.83396C10.9285 3.83471 10.9209 3.83548 10.913 3.83626L10.9517 3.74463C10.985 3.66123 10.9947 3.65102 11.0374 3.64677C11.0399 3.64644 11.0422 3.64616 11.0445 3.64595C11.0198 3.64753 10.9985 3.64398 10.9966 3.63851ZM13.1142 20.5443C13.1221 20.548 13.118 20.5631 13.1064 20.5778L13.107 20.5771C13.1071 20.577 13.1072 20.5769 13.1073 20.5768C13.1076 20.5764 13.1078 20.5761 13.1081 20.5757C13.1191 20.5623 13.1223 20.5481 13.1158 20.5442L13.1142 20.5443ZM13.0829 20.6004C13.0808 20.6006 13.0787 20.6001 13.0764 20.5991C13.077 20.6009 13.0782 20.6018 13.0799 20.6016C13.0807 20.6016 13.0817 20.6011 13.0829 20.6004ZM20.5066 11.0179C20.5102 11.021 20.516 11.0226 20.5235 11.0226C20.5164 11.0225 20.5103 11.0207 20.5066 11.0179ZM11.1505 3.78398C11.1469 3.78736 11.1437 3.79117 11.1415 3.79507C11.1385 3.80285 11.1218 3.80972 11.0685 3.81796C11.1179 3.81249 11.142 3.80516 11.1461 3.79462L11.1459 3.79309C11.1466 3.79004 11.1483 3.78688 11.1505 3.78398Z" fill="#F9F2EB"/>
</svg>
