<svg width="1104" height="844" viewBox="0 0 1104 844" fill="none" xmlns="http://www.w3.org/2000/svg">
<g clip-path="url(#clip0_238_2658)">
<g opacity="0.3">
<mask id="mask0_238_2658" style="mask-type:luminance" maskUnits="userSpaceOnUse" x="0" y="0" width="1104" height="844">
<g opacity="0.3">
<path d="M1104 0H0V844H1104V0Z" fill="white"/>
</g>
</mask>
<g mask="url(#mask0_238_2658)">
<path d="M1104 0H0V844H1104V0Z" fill="url(#paint0_radial_238_2658)"/>
<path d="M64 0H0V64H64V0Z" fill="white"/>
<path d="M129 0H65V64H129V0Z" fill="white"/>
<path d="M194 0H130V64H194V0Z" fill="white"/>
<path d="M259 0H195V64H259V0Z" fill="white"/>
<path d="M324 0H260V64H324V0Z" fill="white"/>
<path d="M389 0H325V64H389V0Z" fill="white"/>
<path d="M454 0H390V64H454V0Z" fill="white"/>
<path d="M519 0H455V64H519V0Z" fill="white"/>
<path d="M584 0H520V64H584V0Z" fill="white"/>
<path d="M649 0H585V64H649V0Z" fill="white"/>
<path d="M714 0H650V64H714V0Z" fill="white"/>
<path d="M779 0H715V64H779V0Z" fill="white"/>
<path d="M844 0H780V64H844V0Z" fill="white"/>
<path d="M909 0H845V64H909V0Z" fill="white"/>
<path d="M974 0H910V64H974V0Z" fill="white"/>
<path d="M1039 0H975V64H1039V0Z" fill="white"/>
<path d="M1104 0H1040V64H1104V0Z" fill="white"/>
<path d="M64 65H0V129H64V65Z" fill="white"/>
<path d="M129 65H65V129H129V65Z" fill="white"/>
<path d="M194 65H130V129H194V65Z" fill="white"/>
<path d="M259 65H195V129H259V65Z" fill="white"/>
<path d="M324 65H260V129H324V65Z" fill="white"/>
<path d="M389 65H325V129H389V65Z" fill="white"/>
<path d="M454 65H390V129H454V65Z" fill="white"/>
<path d="M519 65H455V129H519V65Z" fill="white"/>
<path d="M584 65H520V129H584V65Z" fill="white"/>
<path d="M649 65H585V129H649V65Z" fill="white"/>
<path d="M714 65H650V129H714V65Z" fill="white"/>
<path d="M779 65H715V129H779V65Z" fill="white"/>
<path d="M844 65H780V129H844V65Z" fill="white"/>
<path d="M909 65H845V129H909V65Z" fill="white"/>
<path d="M974 65H910V129H974V65Z" fill="white"/>
<path d="M1039 65H975V129H1039V65Z" fill="white"/>
<path d="M1104 65H1040V129H1104V65Z" fill="white"/>
<path d="M64 130H0V194H64V130Z" fill="white"/>
<path d="M129 130H65V194H129V130Z" fill="white"/>
<path d="M194 130H130V194H194V130Z" fill="white"/>
<path d="M259 130H195V194H259V130Z" fill="white"/>
<path d="M324 130H260V194H324V130Z" fill="white"/>
<path d="M389 130H325V194H389V130Z" fill="white"/>
<path d="M454 130H390V194H454V130Z" fill="white"/>
<path d="M519 130H455V194H519V130Z" fill="white"/>
<path d="M584 130H520V194H584V130Z" fill="white"/>
<path d="M649 130H585V194H649V130Z" fill="white"/>
<path d="M714 130H650V194H714V130Z" fill="white"/>
<path d="M779 130H715V194H779V130Z" fill="white"/>
<path d="M844 130H780V194H844V130Z" fill="white"/>
<path d="M909 130H845V194H909V130Z" fill="white"/>
<path d="M974 130H910V194H974V130Z" fill="white"/>
<path d="M1039 130H975V194H1039V130Z" fill="white"/>
<path d="M1104 130H1040V194H1104V130Z" fill="white"/>
<path d="M64 195H0V259H64V195Z" fill="white"/>
<path d="M129 195H65V259H129V195Z" fill="white"/>
<path d="M194 195H130V259H194V195Z" fill="white"/>
<path d="M259 195H195V259H259V195Z" fill="white"/>
<path d="M324 195H260V259H324V195Z" fill="white"/>
<path d="M389 195H325V259H389V195Z" fill="white"/>
<path d="M454 195H390V259H454V195Z" fill="white"/>
<path d="M519 195H455V259H519V195Z" fill="white"/>
<path d="M584 195H520V259H584V195Z" fill="white"/>
<path d="M649 195H585V259H649V195Z" fill="white"/>
<path d="M714 195H650V259H714V195Z" fill="white"/>
<path d="M779 195H715V259H779V195Z" fill="white"/>
<path d="M844 195H780V259H844V195Z" fill="white"/>
<path d="M909 195H845V259H909V195Z" fill="white"/>
<path d="M974 195H910V259H974V195Z" fill="white"/>
<path d="M1039 195H975V259H1039V195Z" fill="white"/>
<path d="M1104 195H1040V259H1104V195Z" fill="white"/>
<path d="M64 260H0V324H64V260Z" fill="white"/>
<path d="M129 260H65V324H129V260Z" fill="white"/>
<path d="M194 260H130V324H194V260Z" fill="white"/>
<path d="M259 260H195V324H259V260Z" fill="white"/>
<path d="M324 260H260V324H324V260Z" fill="white"/>
<path d="M389 260H325V324H389V260Z" fill="white"/>
<path d="M454 260H390V324H454V260Z" fill="white"/>
<path d="M519 260H455V324H519V260Z" fill="white"/>
<path d="M584 260H520V324H584V260Z" fill="white"/>
<path d="M649 260H585V324H649V260Z" fill="white"/>
<path d="M714 260H650V324H714V260Z" fill="white"/>
<path d="M779 260H715V324H779V260Z" fill="white"/>
<path d="M844 260H780V324H844V260Z" fill="white"/>
<path d="M909 260H845V324H909V260Z" fill="white"/>
<path d="M974 260H910V324H974V260Z" fill="white"/>
<path d="M1039 260H975V324H1039V260Z" fill="white"/>
<path d="M1104 260H1040V324H1104V260Z" fill="white"/>
<path d="M64 325H0V389H64V325Z" fill="white"/>
<path d="M129 325H65V389H129V325Z" fill="white"/>
<path d="M194 325H130V389H194V325Z" fill="white"/>
<path d="M259 325H195V389H259V325Z" fill="white"/>
<path d="M324 325H260V389H324V325Z" fill="white"/>
<path d="M389 325H325V389H389V325Z" fill="white"/>
<path d="M454 325H390V389H454V325Z" fill="white"/>
<path d="M519 325H455V389H519V325Z" fill="white"/>
<path d="M584 325H520V389H584V325Z" fill="white"/>
<path d="M649 325H585V389H649V325Z" fill="white"/>
<path d="M714 325H650V389H714V325Z" fill="white"/>
<path d="M779 325H715V389H779V325Z" fill="white"/>
<path d="M844 325H780V389H844V325Z" fill="white"/>
<path d="M909 325H845V389H909V325Z" fill="white"/>
<path d="M974 325H910V389H974V325Z" fill="white"/>
<path d="M1039 325H975V389H1039V325Z" fill="white"/>
<path d="M1104 325H1040V389H1104V325Z" fill="white"/>
<path d="M64 390H0V454H64V390Z" fill="white"/>
<path d="M129 390H65V454H129V390Z" fill="white"/>
<path d="M194 390H130V454H194V390Z" fill="white"/>
<path d="M259 390H195V454H259V390Z" fill="white"/>
<path d="M324 390H260V454H324V390Z" fill="white"/>
<path d="M389 390H325V454H389V390Z" fill="white"/>
<path d="M454 390H390V454H454V390Z" fill="white"/>
<path d="M519 390H455V454H519V390Z" fill="white"/>
<path d="M584 390H520V454H584V390Z" fill="white"/>
<path d="M649 390H585V454H649V390Z" fill="white"/>
<path d="M714 390H650V454H714V390Z" fill="white"/>
<path d="M779 390H715V454H779V390Z" fill="white"/>
<path d="M844 390H780V454H844V390Z" fill="white"/>
<path d="M909 390H845V454H909V390Z" fill="white"/>
<path d="M974 390H910V454H974V390Z" fill="white"/>
<path d="M1039 390H975V454H1039V390Z" fill="white"/>
<path d="M1104 390H1040V454H1104V390Z" fill="white"/>
<path d="M64 455H0V519H64V455Z" fill="white"/>
<path d="M129 455H65V519H129V455Z" fill="white"/>
<path d="M194 455H130V519H194V455Z" fill="white"/>
<path d="M259 455H195V519H259V455Z" fill="white"/>
<path d="M324 455H260V519H324V455Z" fill="white"/>
<path d="M389 455H325V519H389V455Z" fill="white"/>
<path d="M454 455H390V519H454V455Z" fill="white"/>
<path d="M519 455H455V519H519V455Z" fill="white"/>
<path d="M584 455H520V519H584V455Z" fill="white"/>
<path d="M649 455H585V519H649V455Z" fill="white"/>
<path d="M714 455H650V519H714V455Z" fill="white"/>
<path d="M779 455H715V519H779V455Z" fill="white"/>
<path d="M844 455H780V519H844V455Z" fill="white"/>
<path d="M909 455H845V519H909V455Z" fill="white"/>
<path d="M974 455H910V519H974V455Z" fill="white"/>
<path d="M1039 455H975V519H1039V455Z" fill="white"/>
<path d="M1104 455H1040V519H1104V455Z" fill="white"/>
<path d="M64 520H0V584H64V520Z" fill="white"/>
<path d="M129 520H65V584H129V520Z" fill="white"/>
<path d="M194 520H130V584H194V520Z" fill="white"/>
<path d="M259 520H195V584H259V520Z" fill="white"/>
<path d="M324 520H260V584H324V520Z" fill="white"/>
<path d="M389 520H325V584H389V520Z" fill="white"/>
<path d="M454 520H390V584H454V520Z" fill="white"/>
<path d="M519 520H455V584H519V520Z" fill="white"/>
<path d="M584 520H520V584H584V520Z" fill="white"/>
<path d="M649 520H585V584H649V520Z" fill="white"/>
<path d="M714 520H650V584H714V520Z" fill="white"/>
<path d="M779 520H715V584H779V520Z" fill="white"/>
<path d="M844 520H780V584H844V520Z" fill="white"/>
<path d="M909 520H845V584H909V520Z" fill="white"/>
<path d="M974 520H910V584H974V520Z" fill="white"/>
<path d="M1039 520H975V584H1039V520Z" fill="white"/>
<path d="M1104 520H1040V584H1104V520Z" fill="white"/>
<path d="M64 585H0V649H64V585Z" fill="white"/>
<path d="M129 585H65V649H129V585Z" fill="white"/>
<path d="M194 585H130V649H194V585Z" fill="white"/>
<path d="M259 585H195V649H259V585Z" fill="white"/>
<path d="M324 585H260V649H324V585Z" fill="white"/>
<path d="M389 585H325V649H389V585Z" fill="white"/>
<path d="M454 585H390V649H454V585Z" fill="white"/>
<path d="M519 585H455V649H519V585Z" fill="white"/>
<path d="M584 585H520V649H584V585Z" fill="white"/>
<path d="M649 585H585V649H649V585Z" fill="white"/>
<path d="M714 585H650V649H714V585Z" fill="white"/>
<path d="M779 585H715V649H779V585Z" fill="white"/>
<path d="M844 585H780V649H844V585Z" fill="white"/>
<path d="M909 585H845V649H909V585Z" fill="white"/>
<path d="M974 585H910V649H974V585Z" fill="white"/>
<path d="M1039 585H975V649H1039V585Z" fill="white"/>
<path d="M1104 585H1040V649H1104V585Z" fill="white"/>
<path d="M64 650H0V714H64V650Z" fill="white"/>
<path d="M129 650H65V714H129V650Z" fill="white"/>
<path d="M194 650H130V714H194V650Z" fill="white"/>
<path d="M259 650H195V714H259V650Z" fill="white"/>
<path d="M324 650H260V714H324V650Z" fill="white"/>
<path d="M389 650H325V714H389V650Z" fill="white"/>
<path d="M454 650H390V714H454V650Z" fill="white"/>
<path d="M519 650H455V714H519V650Z" fill="white"/>
<path d="M584 650H520V714H584V650Z" fill="white"/>
<path d="M649 650H585V714H649V650Z" fill="white"/>
<path d="M714 650H650V714H714V650Z" fill="white"/>
<path d="M779 650H715V714H779V650Z" fill="white"/>
<path d="M844 650H780V714H844V650Z" fill="white"/>
<path d="M909 650H845V714H909V650Z" fill="white"/>
<path d="M974 650H910V714H974V650Z" fill="white"/>
<path d="M1039 650H975V714H1039V650Z" fill="white"/>
<path d="M1104 650H1040V714H1104V650Z" fill="white"/>
<path d="M64 715H0V779H64V715Z" fill="white"/>
<path d="M129 715H65V779H129V715Z" fill="white"/>
<path d="M194 715H130V779H194V715Z" fill="white"/>
<path d="M259 715H195V779H259V715Z" fill="white"/>
<path d="M324 715H260V779H324V715Z" fill="white"/>
<path d="M389 715H325V779H389V715Z" fill="white"/>
<path d="M454 715H390V779H454V715Z" fill="white"/>
<path d="M519 715H455V779H519V715Z" fill="white"/>
<path d="M584 715H520V779H584V715Z" fill="white"/>
<path d="M649 715H585V779H649V715Z" fill="white"/>
<path d="M714 715H650V779H714V715Z" fill="white"/>
<path d="M779 715H715V779H779V715Z" fill="white"/>
<path d="M844 715H780V779H844V715Z" fill="white"/>
<path d="M909 715H845V779H909V715Z" fill="white"/>
<path d="M974 715H910V779H974V715Z" fill="white"/>
<path d="M1039 715H975V779H1039V715Z" fill="white"/>
<path d="M1104 715H1040V779H1104V715Z" fill="white"/>
<path d="M64 780H0V844H64V780Z" fill="white"/>
<path d="M129 780H65V844H129V780Z" fill="white"/>
<path d="M194 780H130V844H194V780Z" fill="white"/>
<path d="M259 780H195V844H259V780Z" fill="white"/>
<path d="M324 780H260V844H324V780Z" fill="white"/>
<path d="M389 780H325V844H389V780Z" fill="white"/>
<path d="M454 780H390V844H454V780Z" fill="white"/>
<path d="M519 780H455V844H519V780Z" fill="white"/>
<path d="M584 780H520V844H584V780Z" fill="white"/>
<path d="M649 780H585V844H649V780Z" fill="white"/>
<path d="M714 780H650V844H714V780Z" fill="white"/>
<path d="M779 780H715V844H779V780Z" fill="white"/>
<path d="M844 780H780V844H844V780Z" fill="white"/>
<path d="M909 780H845V844H909V780Z" fill="white"/>
<path d="M974 780H910V844H974V780Z" fill="white"/>
<path d="M1039 780H975V844H1039V780Z" fill="white"/>
<path d="M1104 780H1040V844H1104V780Z" fill="white"/>
</g>
</g>
</g>
<defs>
<radialGradient id="paint0_radial_238_2658" cx="0" cy="0" r="1" gradientUnits="userSpaceOnUse" gradientTransform="translate(552 422) scale(614.928 486.988)">
<stop stop-color="#222222" stop-opacity="0.15"/>
<stop offset="1" stop-color="white"/>
</radialGradient>
<clipPath id="clip0_238_2658">
<rect width="1104" height="844" fill="white"/>
</clipPath>
</defs>
</svg>
