<svg width="146" height="117" viewBox="0 0 146 117" fill="none" xmlns="http://www.w3.org/2000/svg">
<path d="M10.0774 85.1209C12.1643 87.025 14.4113 88.2727 16.7262 88.9633C19.0437 89.657 21.4316 89.792 23.8023 89.4752C26.1756 89.1616 28.5283 88.394 30.7768 87.2802C33.0259 86.1654 35.1737 84.7046 37.1277 83.0001C38.2857 81.9908 39.3712 80.9012 40.376 79.7393C41.3903 78.5673 42.3056 77.3133 43.1127 75.9901C43.9131 74.6683 44.5915 73.2783 45.1035 71.8306C45.616 70.3846 45.966 68.8817 46.114 67.3369C46.2043 66.3891 46.186 65.1973 46.0236 63.9585C45.8598 62.7219 45.5503 61.4358 45.0544 60.3077C44.5585 59.1795 43.8779 58.2042 42.9749 57.5866C42.0719 56.969 40.9457 56.7056 39.5548 57.0001C38.5493 57.211 37.6501 57.7688 37.0145 58.576C36.3801 59.3544 35.9477 60.3436 35.6608 61.4096C35.3728 62.4749 35.2347 63.6197 35.1934 64.709C35.1574 65.7016 35.2014 66.6955 35.325 67.681C35.5071 69.0677 35.8182 70.4344 36.2542 71.7633C36.6961 73.1099 37.2602 74.4132 37.9394 75.657C38.6212 76.9022 39.4181 78.0821 40.3211 79.1621C41.2149 80.2386 42.2245 81.2135 43.3315 82.0693C44.533 83.0001 45.8608 83.7553 47.275 84.3122C48.6156 84.8381 50.0283 85.1572 51.4648 85.2585C60.4177 85.886 67.0146 78.2539 71.6 71.5697C73.8682 68.2609 76.0506 64.8943 78.2126 61.5166C80.4397 58.0439 82.5037 54.4713 84.3992 50.8077" stroke="#5B5C5E" stroke-width="1.55029" stroke-miterlimit="10" stroke-linecap="round"/>
<path d="M10.4027 95.4265C10.3895 89.7581 6.124 86.1513 5.04847 80.8386C9.08312 81.7555 17.3484 83.247 21.4192 81.6976" stroke="#5B5C5E" stroke-width="1.55029" stroke-miterlimit="10" stroke-linecap="round" stroke-linejoin="round"/>
<path d="M52.7157 9.26053C52.6653 9.87621 52.4836 10.4263 52.1707 10.9107C51.8578 11.3851 51.444 11.7888 50.9293 12.1219C50.5861 12.3339 50.2177 12.5256 49.8241 12.6972C49.4305 12.8688 49.0368 13 48.6432 13.0908C48.2899 13.1716 47.9417 13.2069 47.5986 13.1968C47.2655 13.1867 46.9274 13.1615 46.5842 13.1211C46.5035 13.212 46.4026 13.2725 46.2814 13.3028C46.1704 13.3432 46.0594 13.3482 45.9484 13.3179C45.7162 13.2574 45.5749 13.111 45.5245 12.8789C45.4033 12.7578 45.3428 12.6114 45.3428 12.4398C45.3428 12.2178 45.4437 12.0412 45.6456 11.91C45.7061 11.5062 45.7516 11.1025 45.7818 10.6988C45.8222 10.2951 45.8525 9.8863 45.8727 9.47249C45.9029 8.98802 45.9282 8.5086 45.9484 8.03423C45.9686 7.55986 45.9736 7.08044 45.9635 6.59597C45.9635 6.29318 45.9534 5.9803 45.9332 5.65732C45.913 5.33434 45.9029 5.01641 45.9029 4.70353C45.9029 4.38055 45.9181 4.06262 45.9484 3.74974C45.9887 3.43685 46.0644 3.13406 46.1755 2.84136C46.125 2.67987 46.1351 2.51334 46.2057 2.34176C46.2764 2.17018 46.4126 2.0642 46.6145 2.02383C46.7356 1.89262 46.8769 1.83206 47.0384 1.84215C47.21 1.85225 47.3513 1.90776 47.4623 2.00869C47.9569 2.04906 48.4363 2.14494 48.9006 2.29634C49.375 2.43764 49.809 2.66978 50.2026 2.99276C50.687 3.37629 51.0756 3.84057 51.3683 4.3856C51.661 4.92053 51.8982 5.47564 52.0799 6.05095C52.1606 6.30327 52.2414 6.56065 52.3221 6.82306C52.413 7.08548 52.4887 7.35295 52.5492 7.62546C52.6199 7.89797 52.6703 8.17048 52.7006 8.443C52.7309 8.71551 52.7359 8.98802 52.7157 9.26053ZM50.1874 11.153C50.3186 11.0722 50.4347 10.9915 50.5356 10.9107C50.6467 10.83 50.7577 10.7341 50.8687 10.6231C50.9596 10.5222 51.0302 10.4414 51.0807 10.3809C51.1311 10.3203 51.1917 10.2295 51.2623 10.1083C51.4339 9.75509 51.5147 9.35642 51.5046 8.91232C51.5046 8.66 51.4844 8.42786 51.444 8.2159C51.4036 7.99386 51.3431 7.74658 51.2623 7.47406C51.1816 7.19146 51.0958 6.9139 51.005 6.64139C50.9242 6.35878 50.8283 6.08627 50.7173 5.82385C50.6366 5.60181 50.5256 5.36462 50.3843 5.1123C50.253 4.84988 50.1168 4.63288 49.9755 4.46129C49.6222 4.03739 49.2236 3.7346 48.7795 3.55292C48.3354 3.36115 47.8509 3.25013 47.3261 3.21985C47.215 3.50246 47.1444 3.8002 47.1141 4.11309C47.0939 4.41588 47.0889 4.72371 47.099 5.0366C47.1091 5.34948 47.1242 5.66237 47.1444 5.97525C47.1747 6.28813 47.1848 6.59092 47.1747 6.88362C47.1343 7.74153 47.0939 8.58934 47.0536 9.42707C47.0233 10.2648 46.9526 11.1076 46.8416 11.9554C47.0233 11.9756 47.2049 11.9907 47.3866 12.0008C47.5784 12.0109 47.7651 12.0058 47.9468 11.9857C48.3303 11.9453 48.7139 11.8494 49.0974 11.698C49.491 11.5365 49.8544 11.3548 50.1874 11.153ZM54.3205 6.8382C54.3306 6.64644 54.4013 6.50513 54.5325 6.4143C54.6637 6.31337 54.805 6.2629 54.9564 6.2629C55.1078 6.2629 55.239 6.31337 55.35 6.4143C55.4711 6.50513 55.5267 6.64644 55.5166 6.8382C55.5166 6.89876 55.5115 6.96437 55.5014 7.03502C55.5014 7.09558 55.5014 7.15613 55.5014 7.21669C55.8244 7.0552 56.1625 6.91895 56.5158 6.80792C56.8791 6.68681 57.2374 6.61111 57.5907 6.58083C57.954 6.55055 58.3022 6.58083 58.6353 6.67167C58.9785 6.75241 59.2914 6.9139 59.574 7.15613C59.7153 7.28734 59.7758 7.42865 59.7556 7.58004C59.7455 7.73144 59.685 7.86265 59.574 7.97367C59.473 8.0746 59.3418 8.14021 59.1803 8.17048C59.0188 8.19067 58.8624 8.14021 58.711 8.01909C58.6 7.92825 58.4738 7.86265 58.3325 7.82227C58.2013 7.7819 58.055 7.76676 57.8935 7.77686C57.7421 7.77686 57.5856 7.792 57.4241 7.82227C57.2727 7.85255 57.1264 7.88788 56.9851 7.92825C56.4502 8.09983 55.9506 8.32693 55.4863 8.60953C55.5065 9.10409 55.5367 9.59865 55.5771 10.0932C55.6175 10.507 55.6528 10.936 55.6831 11.3801C55.7134 11.8141 55.7992 12.2279 55.9405 12.6215C56.001 12.8032 55.9859 12.9546 55.895 13.0757C55.8143 13.2069 55.6982 13.2927 55.5468 13.3331C55.4055 13.3734 55.2541 13.3633 55.0927 13.3028C54.9413 13.2422 54.8353 13.1211 54.7747 12.9394C54.694 12.7073 54.6385 12.4701 54.6082 12.2279C54.5779 11.9857 54.5476 11.7434 54.5174 11.5012C54.4972 11.269 54.4719 11.0369 54.4417 10.8048C54.4215 10.5625 54.4013 10.3253 54.3811 10.0932C54.3306 9.54818 54.2953 9.00821 54.2751 8.47328C54.265 7.92825 54.2802 7.38323 54.3205 6.8382ZM61.5421 12.5912C61.1989 12.4398 60.9264 12.2329 60.7246 11.9705C60.5328 11.698 60.3965 11.4003 60.3158 11.0773C60.2451 10.7543 60.225 10.4212 60.2552 10.0781C60.2855 9.72481 60.3562 9.38669 60.4672 9.06372C60.558 8.81139 60.659 8.54897 60.77 8.27646C60.8911 8.00395 61.0324 7.75162 61.1939 7.51948C61.3554 7.28734 61.5471 7.09053 61.7692 6.92904C61.9912 6.75746 62.2537 6.64644 62.5564 6.59597C62.8693 6.54551 63.1822 6.53037 63.4951 6.55055C63.8181 6.56065 64.136 6.59092 64.4489 6.64139C64.5902 6.66158 64.7265 6.6969 64.8577 6.74737C64.9889 6.78774 65.1201 6.83316 65.2513 6.88362C65.2614 6.73223 65.327 6.60606 65.4481 6.50513C65.5793 6.4042 65.7156 6.35374 65.8569 6.35374C66.0285 6.35374 66.1647 6.4143 66.2656 6.53541C66.3767 6.64644 66.4423 6.78269 66.4625 6.94418C66.5129 7.40846 66.5331 7.87274 66.523 8.33702C66.523 8.8013 66.5079 9.26558 66.4776 9.72986C66.4574 10.1941 66.4372 10.6584 66.417 11.1227C66.4069 11.587 66.412 12.0513 66.4322 12.5155C66.4423 12.7073 66.3817 12.8537 66.2505 12.9546C66.1294 13.0454 65.9931 13.0908 65.8417 13.0908C65.6903 13.0908 65.549 13.0454 65.4178 12.9546C65.2967 12.8537 65.2311 12.7073 65.221 12.5155C64.6457 12.7578 64.0351 12.8991 63.3891 12.9394C62.7432 12.9697 62.1275 12.8537 61.5421 12.5912ZM61.6481 9.30595C61.5875 9.48762 61.532 9.69453 61.4815 9.92667C61.4311 10.1588 61.4159 10.3809 61.4361 10.5928C61.4563 10.8048 61.5219 11.0016 61.6329 11.1833C61.744 11.3548 61.9256 11.476 62.178 11.5466C62.6927 11.7081 63.2075 11.7535 63.7222 11.6829C64.247 11.6122 64.7365 11.4305 65.1907 11.1378C65.2311 10.6433 65.2614 10.1639 65.2816 9.69958C65.3118 9.2353 65.3219 8.76597 65.3118 8.2916C65.1403 8.18058 64.9636 8.08469 64.782 8.00395C64.6104 7.91311 64.4186 7.85255 64.2067 7.82227C63.9947 7.792 63.7676 7.77181 63.5254 7.76172C63.2932 7.74153 63.0661 7.74153 62.8441 7.76172C62.8239 7.76172 62.7684 7.77686 62.6776 7.80713C62.5968 7.82732 62.5514 7.84246 62.5413 7.85255C62.4404 7.90302 62.3495 7.98376 62.2688 8.09479C62.1376 8.27646 62.0215 8.47328 61.9206 8.68523C61.8197 8.88709 61.7288 9.094 61.6481 9.30595ZM68.0975 16.8757C68.3196 17.0877 68.5769 17.234 68.8696 17.3148C69.1623 17.4056 69.455 17.4359 69.7477 17.4056C70.0404 17.3753 70.318 17.2895 70.5804 17.1482C70.8428 17.0069 71.0598 16.8101 71.2314 16.5578C71.5948 16.043 71.8269 15.4728 71.9278 14.847C72.0389 14.2313 72.0843 13.6106 72.0641 12.9849C71.5796 13.0656 71.08 13.0807 70.5653 13.0303C70.0606 12.9899 69.5812 12.8839 69.127 12.7123C68.8949 12.6215 68.6728 12.5155 68.4609 12.3944C68.259 12.2632 68.0975 12.0815 67.9764 11.8494C67.7645 11.4558 67.6736 11.0218 67.7039 10.5474C67.7241 10.0932 67.7998 9.65416 67.931 9.23025C68.0723 8.79625 68.2287 8.3673 68.4003 7.94339C68.4912 7.74153 68.587 7.52958 68.688 7.30753C68.799 7.07539 68.9403 6.86848 69.1119 6.68681C69.2835 6.49504 69.4803 6.34869 69.7023 6.24776C69.9244 6.14683 70.1615 6.08627 70.4139 6.06609C70.3735 5.92478 70.3735 5.79358 70.4139 5.67246C70.4542 5.54125 70.54 5.43527 70.6712 5.35453C70.8025 5.27378 70.9539 5.2536 71.1254 5.29397C71.3071 5.33434 71.4333 5.42518 71.5039 5.56648C71.5443 5.65732 71.5796 5.74816 71.6099 5.83899C71.6503 5.92983 71.6856 6.02067 71.7159 6.11151C71.9177 6.65653 72.0994 7.2066 72.2609 7.76172C72.4325 8.31683 72.594 8.877 72.7454 9.44221C72.927 10.1083 73.0633 10.7846 73.1541 11.4709C73.245 12.1572 73.2803 12.8537 73.2601 13.5602C73.25 13.9538 73.2147 14.3575 73.1541 14.7713C73.1037 15.1851 73.0128 15.5838 72.8816 15.9674C72.7504 16.3509 72.5788 16.7142 72.3669 17.0574C72.1549 17.4107 71.8824 17.7134 71.5493 17.9658C71.2365 18.208 70.8882 18.3796 70.5047 18.4805C70.1313 18.5915 69.7477 18.637 69.3541 18.6168C68.9706 18.5966 68.5921 18.5108 68.2186 18.3594C67.8553 18.208 67.5323 17.9961 67.2497 17.7235C67.1084 17.5923 67.0478 17.446 67.068 17.2845C67.0882 17.1331 67.1538 17.0019 67.2648 16.8909C67.3658 16.7899 67.4919 16.7294 67.6433 16.7092C67.8048 16.689 67.9562 16.7445 68.0975 16.8757ZM69.778 11.6526C70.1313 11.7434 70.4946 11.809 70.8681 11.8494C71.2516 11.8797 71.62 11.8544 71.9732 11.7737C71.9127 11.259 71.8219 10.7644 71.7007 10.29C71.5897 9.81565 71.4636 9.33623 71.3222 8.85176C71.2415 8.56916 71.1557 8.2916 71.0649 8.01909C70.9841 7.74658 70.8983 7.47406 70.8075 7.20155C70.7772 7.22174 70.7419 7.23688 70.7015 7.24697C70.6612 7.24697 70.6157 7.25202 70.5653 7.26211C70.2625 7.26211 70.0303 7.39837 69.8689 7.67088C69.7578 7.84246 69.667 8.02414 69.5963 8.2159C69.5762 8.26637 69.556 8.31683 69.5358 8.3673C69.5156 8.40767 69.4954 8.45309 69.4752 8.50355C69.3238 8.8669 69.1926 9.22016 69.0816 9.56332C68.9807 9.89639 68.9201 10.2244 68.8999 10.5474V10.8199C68.91 10.8906 68.9201 10.9461 68.9302 10.9864C68.9504 11.0773 68.9605 11.1328 68.9605 11.153C68.9706 11.1732 69.0009 11.2236 69.0513 11.3044C69.1119 11.3548 69.1674 11.3952 69.2179 11.4255C69.2683 11.4558 69.2986 11.476 69.3087 11.486C69.3894 11.5163 69.4651 11.5466 69.5358 11.5769C69.6165 11.6072 69.6973 11.6324 69.778 11.6526ZM86.6283 11.6526C86.7595 11.7434 86.8504 11.8645 86.9008 12.0159C86.9513 12.1673 86.9311 12.3187 86.8403 12.4701C86.7595 12.6114 86.6334 12.7073 86.4618 12.7578C86.3003 12.8082 86.154 12.788 86.0228 12.6972C85.8108 12.5458 85.6089 12.3843 85.4172 12.2127C85.2254 12.0412 85.0387 11.8645 84.857 11.6829C84.6652 11.9049 84.423 12.137 84.1303 12.3793C83.7367 12.7023 83.2774 12.9647 82.7526 13.1665C82.2379 13.3785 81.7231 13.4946 81.2084 13.5147C80.9157 13.5248 80.628 13.4895 80.3454 13.4088C80.0628 13.328 79.8054 13.1867 79.5733 12.9849C79.3109 12.7729 79.1141 12.5105 78.9829 12.1976C78.8617 11.8847 78.7911 11.5668 78.7709 11.2438C78.7406 10.8805 78.7659 10.5222 78.8466 10.1689C78.9273 9.80556 79.0485 9.46239 79.21 9.13942C79.3815 8.80635 79.5834 8.49851 79.8155 8.2159C80.0477 7.9333 80.3 7.67593 80.5725 7.44379C80.6734 7.36304 80.7693 7.2823 80.8602 7.20155C80.951 7.12081 81.0418 7.04006 81.1327 6.95932C81.1024 6.91895 81.0671 6.85839 81.0267 6.77765C80.8248 6.4042 80.6583 6.01562 80.5271 5.6119C80.406 5.20818 80.3908 4.79436 80.4817 4.37046C80.5624 3.98692 80.7441 3.62862 81.0267 3.29555C81.3093 2.96248 81.6373 2.70511 82.0108 2.52343C82.3842 2.33167 82.7728 2.24083 83.1765 2.25092C83.5903 2.25092 83.9638 2.39727 84.2968 2.68997C84.5895 2.95239 84.7964 3.25518 84.9176 3.59834C85.0387 3.9415 85.0185 4.30485 84.857 4.68839C84.7157 5.02146 84.5239 5.32425 84.2817 5.59676C84.0496 5.85918 83.8023 6.11151 83.5399 6.35374C83.3986 6.48495 83.2573 6.61616 83.116 6.74737C82.9847 6.87858 82.8485 7.01483 82.7072 7.15613C82.798 7.26716 82.8889 7.38323 82.9797 7.50434C83.0705 7.62546 83.1664 7.74153 83.2674 7.85255C83.5298 8.17553 83.7871 8.49851 84.0395 8.82148C84.3019 9.14446 84.5643 9.46744 84.8267 9.79042C84.9478 9.58856 85.0639 9.39174 85.1749 9.19997C85.286 8.99811 85.397 8.8013 85.508 8.60953C85.6089 8.44804 85.7351 8.35721 85.8865 8.33702C86.048 8.31683 86.1943 8.34711 86.3255 8.42786C86.4568 8.49851 86.5526 8.60953 86.6132 8.76093C86.6738 8.90223 86.6536 9.05362 86.5526 9.21511C86.4012 9.47753 86.2498 9.7349 86.0984 9.98723C85.9471 10.2396 85.7856 10.4868 85.614 10.7291C85.7755 10.9006 85.937 11.0621 86.0984 11.2135C86.2599 11.3649 86.4366 11.5113 86.6283 11.6526ZM81.8897 4.11309C81.6878 4.36541 81.602 4.64297 81.6323 4.94576C81.6626 5.24855 81.7433 5.5362 81.8745 5.80871C81.9149 5.90964 81.9704 6.01058 82.041 6.11151C82.2732 5.90964 82.5003 5.70274 82.7223 5.49078C82.9444 5.27883 83.1563 5.05678 83.3582 4.82464C83.449 4.71362 83.5348 4.59755 83.6156 4.47643C83.7064 4.35532 83.7619 4.22916 83.7821 4.09795C83.8124 3.94655 83.7266 3.78506 83.5247 3.61348C83.4036 3.50246 83.2623 3.44695 83.1008 3.44695C82.9494 3.44695 82.798 3.47722 82.6466 3.53778C82.4952 3.59834 82.3489 3.68413 82.2076 3.79515C82.0764 3.90618 81.9704 4.01215 81.8897 4.11309ZM83.7821 11.0621C83.883 10.9713 83.9789 10.8754 84.0697 10.7745C83.8073 10.4515 83.55 10.1285 83.2976 9.80556C83.0453 9.48258 82.7879 9.16465 82.5255 8.85176C82.2732 8.54897 82.036 8.25123 81.814 7.95853C81.6121 8.12002 81.4153 8.28151 81.2235 8.443C81.0418 8.60448 80.8753 8.78616 80.7239 8.98802C80.522 9.25044 80.3454 9.54818 80.194 9.88125C80.0527 10.2143 79.977 10.5524 79.9669 10.8956C79.9669 11.0571 79.977 11.2186 79.9972 11.3801C80.0275 11.5416 80.078 11.6879 80.1486 11.8191C80.2092 11.9301 80.2596 12.0109 80.3 12.0613C80.3505 12.1017 80.4312 12.1471 80.5422 12.1976C80.6835 12.2683 80.8854 12.3036 81.1478 12.3036C81.2891 12.3036 81.4052 12.2985 81.496 12.2884C81.5869 12.2683 81.7029 12.238 81.8442 12.1976C82.0966 12.127 82.3237 12.0513 82.5255 11.9705C82.7375 11.8797 82.9545 11.7535 83.1765 11.592L83.3885 11.4255C83.5399 11.3044 83.6711 11.1833 83.7821 11.0621ZM94.3344 7.47406C94.6977 7.25202 95.0863 7.06025 95.5001 6.89876C95.924 6.73727 96.353 6.66158 96.787 6.67167C96.7466 5.81376 96.7113 4.9609 96.681 4.11309C96.6608 3.26527 96.6457 2.41241 96.6356 1.5545C96.6356 1.36273 96.6961 1.22143 96.8172 1.13059C96.9384 1.02966 97.0746 0.979199 97.226 0.979199C97.3774 0.979199 97.5137 1.02966 97.6348 1.13059C97.766 1.22143 97.8316 1.36273 97.8316 1.5545C97.8417 2.55371 97.8669 3.55797 97.9073 4.56727C97.9477 5.56648 97.988 6.56569 98.0284 7.5649C98.0688 8.56411 98.0991 9.56837 98.1192 10.5777C98.1394 11.5769 98.1344 12.5761 98.1041 13.5753C98.094 13.7671 98.0234 13.9134 97.8922 14.0143C97.7609 14.1153 97.6196 14.1657 97.4682 14.1657C97.3169 14.1657 97.1806 14.1153 97.0595 14.0143C96.9384 13.9235 96.8829 13.7772 96.8929 13.5753C96.8929 13.5047 96.8929 13.434 96.8929 13.3633C96.8929 13.2927 96.898 13.222 96.9081 13.1514C96.8072 13.1413 96.7062 13.1312 96.6053 13.1211C96.5145 13.1211 96.4236 13.1211 96.3328 13.1211C96.2117 13.1211 96.0905 13.1211 95.9694 13.1211C95.8483 13.1211 95.7322 13.1161 95.6212 13.106C95.3588 13.0858 95.0964 13.0606 94.834 13.0303C94.5715 13 94.3142 12.9394 94.0618 12.8486C93.8095 12.7477 93.5723 12.6266 93.3503 12.4853C93.1282 12.3339 92.9466 12.137 92.8053 11.8948C92.6438 11.6425 92.5075 11.37 92.3965 11.0773C92.2956 10.7846 92.2552 10.4818 92.2754 10.1689C92.2956 9.85602 92.3662 9.56837 92.4873 9.30595C92.6085 9.04353 92.7598 8.8013 92.9415 8.57925C93.1333 8.35721 93.3452 8.15534 93.5774 7.97367C93.8196 7.792 94.0719 7.62546 94.3344 7.47406ZM96.9232 11.9554C96.9232 10.6029 96.8929 9.24539 96.8324 7.88283C96.4993 7.86265 96.1662 7.9232 95.8332 8.06451C95.5102 8.19572 95.2125 8.34711 94.9399 8.51869C94.7885 8.60953 94.622 8.71551 94.4403 8.83662C94.2688 8.94765 94.1073 9.07886 93.9559 9.23025C93.8146 9.37155 93.6985 9.528 93.6077 9.69958C93.5168 9.87116 93.4714 10.0579 93.4714 10.2597C93.4815 10.4414 93.5219 10.6382 93.5925 10.8502C93.6632 11.052 93.7591 11.2186 93.8802 11.3498C94.0013 11.481 94.1375 11.5819 94.2889 11.6526C94.4403 11.7131 94.6018 11.7636 94.7734 11.804C94.9753 11.8443 95.167 11.8696 95.3487 11.8797C95.5405 11.8898 95.7373 11.8999 95.9392 11.91C96.1006 11.91 96.2621 11.92 96.4236 11.9402C96.5851 11.9503 96.7516 11.9554 96.9232 11.9554ZM99.8754 6.8382C99.8855 6.64644 99.9562 6.50513 100.087 6.4143C100.219 6.31337 100.36 6.2629 100.511 6.2629C100.663 6.2629 100.794 6.31337 100.905 6.4143C101.026 6.50513 101.082 6.64644 101.071 6.8382C101.071 6.89876 101.066 6.96437 101.056 7.03502C101.056 7.09558 101.056 7.15613 101.056 7.21669C101.379 7.0552 101.717 6.91895 102.071 6.80792C102.434 6.68681 102.792 6.61111 103.146 6.58083C103.509 6.55055 103.857 6.58083 104.19 6.67167C104.533 6.75241 104.846 6.9139 105.129 7.15613C105.27 7.28734 105.331 7.42865 105.311 7.58004C105.3 7.73144 105.24 7.86265 105.129 7.97367C105.028 8.0746 104.897 8.14021 104.735 8.17048C104.574 8.19067 104.417 8.14021 104.266 8.01909C104.155 7.92825 104.029 7.86265 103.887 7.82227C103.756 7.7819 103.61 7.76676 103.448 7.77686C103.297 7.77686 103.141 7.792 102.979 7.82227C102.828 7.85255 102.681 7.88788 102.54 7.92825C102.005 8.09983 101.505 8.32693 101.041 8.60953C101.061 9.10409 101.092 9.59865 101.132 10.0932C101.172 10.507 101.208 10.936 101.238 11.3801C101.268 11.8141 101.354 12.2279 101.495 12.6215C101.556 12.8032 101.541 12.9546 101.45 13.0757C101.369 13.2069 101.253 13.2927 101.102 13.3331C100.96 13.3734 100.809 13.3633 100.648 13.3028C100.496 13.2422 100.39 13.1211 100.33 12.9394C100.249 12.7073 100.193 12.4701 100.163 12.2279C100.133 11.9857 100.103 11.7434 100.072 11.5012C100.052 11.269 100.027 11.0369 99.9966 10.8048C99.9764 10.5625 99.9562 10.3253 99.936 10.0932C99.8855 9.54818 99.8502 9.00821 99.83 8.47328C99.8199 7.92825 99.8351 7.38323 99.8754 6.8382ZM109.701 6.02067C110.024 5.9803 110.362 5.9702 110.715 5.99039C111.069 6.00048 111.407 6.06104 111.73 6.17206C112.053 6.27299 112.345 6.42944 112.608 6.64139C112.87 6.85334 113.072 7.1309 113.213 7.47406C113.314 7.7163 113.365 7.96358 113.365 8.2159C113.375 8.45814 113.34 8.69532 113.259 8.92746C113.188 9.14951 113.077 9.36651 112.926 9.57846C112.784 9.78032 112.618 9.96704 112.426 10.1386C112.012 10.5121 111.558 10.83 111.064 11.0924C110.569 11.3548 110.049 11.5567 109.504 11.698C109.272 11.7586 109.03 11.8141 108.777 11.8645C108.535 11.9049 108.288 11.9251 108.036 11.9251C107.783 11.9251 107.536 11.8999 107.294 11.8494C107.052 11.7888 106.824 11.693 106.613 11.5617C106.461 11.4709 106.37 11.3498 106.34 11.1984C106.279 11.0268 106.214 10.8653 106.143 10.7139C106.073 10.5625 106.002 10.4061 105.931 10.2446C105.871 10.0831 105.82 9.92163 105.78 9.76014C105.739 9.59865 105.719 9.43211 105.719 9.26053C105.719 8.91737 105.79 8.59439 105.931 8.2916C106.083 7.97872 106.285 7.7062 106.537 7.47406C106.961 7.07034 107.45 6.74737 108.005 6.50513C108.56 6.2629 109.126 6.10141 109.701 6.02067ZM111.412 7.32267C111.139 7.22174 110.847 7.17127 110.534 7.17127C110.201 7.16118 109.868 7.19651 109.534 7.27725C109.201 7.3479 108.883 7.44883 108.581 7.58004C108.298 7.69107 108.005 7.84751 107.703 8.04937C107.41 8.24114 107.193 8.47832 107.052 8.76093C106.971 8.91232 106.93 9.06876 106.93 9.23025C106.941 9.38165 106.966 9.53809 107.006 9.69958C107.057 9.85097 107.117 10.0074 107.188 10.1689C107.269 10.3203 107.339 10.4717 107.4 10.6231C107.561 10.6635 107.662 10.6836 107.703 10.6836C107.723 10.6937 107.748 10.6988 107.778 10.6988C107.809 10.6988 107.834 10.6988 107.854 10.6988C108.056 10.719 108.238 10.7139 108.399 10.6836C108.51 10.6836 108.651 10.6635 108.823 10.6231C109.085 10.5726 109.338 10.507 109.58 10.4263C109.822 10.3354 110.044 10.2396 110.246 10.1386C110.478 10.0276 110.705 9.90649 110.927 9.77528C111.149 9.64407 111.336 9.50781 111.487 9.36651C111.588 9.27567 111.684 9.17979 111.775 9.07886C111.826 9.02839 111.861 8.98802 111.881 8.95774C111.932 8.88709 111.972 8.83662 112.002 8.80635C112.032 8.76597 112.058 8.72055 112.078 8.67009C112.118 8.59944 112.138 8.54393 112.138 8.50355C112.149 8.48337 112.154 8.45814 112.154 8.42786C112.164 8.39758 112.174 8.37234 112.184 8.35216V8.18562C112.174 8.14525 112.169 8.11497 112.169 8.09479C112.169 8.0746 112.164 8.05441 112.154 8.03423C112.123 7.96358 112.093 7.91311 112.063 7.88283C112.043 7.84246 112.017 7.80209 111.987 7.76172C111.997 7.77181 111.982 7.75667 111.942 7.7163C111.911 7.67593 111.891 7.65069 111.881 7.6406L111.76 7.51948C111.71 7.4892 111.654 7.45388 111.593 7.41351C111.533 7.37313 111.472 7.34286 111.412 7.32267ZM115.939 17.3602C115.949 17.552 115.893 17.6933 115.772 17.7841C115.661 17.885 115.53 17.9355 115.378 17.9355C115.227 17.9355 115.086 17.885 114.954 17.7841C114.823 17.6933 114.753 17.552 114.742 17.3602C114.631 15.7453 114.566 14.1355 114.546 12.5307C114.525 10.9158 114.48 9.3009 114.409 7.68602C114.268 7.46397 114.258 7.25202 114.379 7.05016C114.369 6.93913 114.359 6.8382 114.349 6.74737C114.349 6.64644 114.344 6.54046 114.334 6.42944C114.324 6.24776 114.374 6.11151 114.485 6.02067C114.596 5.91974 114.722 5.86423 114.864 5.85413C115.015 5.84404 115.156 5.88441 115.287 5.97525C115.419 6.05599 115.499 6.18216 115.53 6.35374C115.701 6.27299 115.863 6.1973 116.014 6.12665C116.176 6.05599 116.342 5.98534 116.514 5.91469C116.655 5.85413 116.812 5.79862 116.983 5.74816C117.155 5.6876 117.331 5.64218 117.513 5.6119C117.695 5.58162 117.871 5.56648 118.043 5.56648C118.225 5.56648 118.391 5.59676 118.543 5.65732C118.845 5.77844 119.093 5.96011 119.284 6.20234C119.486 6.44458 119.653 6.71204 119.784 7.00474C119.905 7.28734 120.021 7.575 120.132 7.86769C120.243 8.1503 120.304 8.443 120.314 8.74579C120.324 9.05867 120.279 9.35137 120.178 9.62388C120.077 9.89639 119.935 10.1437 119.754 10.3657C119.582 10.5878 119.375 10.7846 119.133 10.9562C118.891 11.1277 118.633 11.2741 118.361 11.3952C118.068 11.5264 117.765 11.6425 117.452 11.7434C117.14 11.8443 116.822 11.91 116.499 11.9402C116.357 11.9604 116.221 11.9554 116.09 11.9251C115.969 11.8948 115.853 11.8544 115.742 11.804C115.762 12.7426 115.782 13.6712 115.802 14.5897C115.833 15.5081 115.878 16.4316 115.939 17.3602ZM115.621 7.65574C115.641 8.12002 115.656 8.5843 115.666 9.04858C115.676 9.50276 115.691 9.962 115.711 10.4263C115.772 10.4666 115.833 10.507 115.893 10.5474C115.954 10.5777 116.019 10.613 116.09 10.6534C116.171 10.7038 116.236 10.7341 116.287 10.7442C116.337 10.7442 116.418 10.7341 116.529 10.7139C116.751 10.6635 116.973 10.613 117.195 10.5625C117.417 10.502 117.629 10.4212 117.831 10.3203C118.023 10.2295 118.204 10.1336 118.376 10.0326C118.548 9.92163 118.704 9.78032 118.845 9.60874C118.936 9.49772 119.007 9.37155 119.057 9.23025C119.108 9.07886 119.123 8.91737 119.103 8.74579C119.093 8.54393 119.042 8.33702 118.951 8.12507C118.871 7.91311 118.79 7.7163 118.709 7.53462C118.659 7.44379 118.608 7.35295 118.558 7.26211C118.517 7.16118 118.467 7.07034 118.406 6.9896C118.315 6.89876 118.245 6.84325 118.194 6.82306C117.912 6.80288 117.664 6.81802 117.452 6.86848C117.241 6.91895 117.029 6.9896 116.817 7.08044C116.615 7.16118 116.413 7.25202 116.211 7.35295C116.009 7.45388 115.812 7.55481 115.621 7.65574ZM130.866 7.7163C131.058 7.7163 131.199 7.77686 131.29 7.89797C131.391 8.01909 131.441 8.15534 131.441 8.30674C131.441 8.45814 131.391 8.59944 131.29 8.73065C131.199 8.85176 131.058 8.91232 130.866 8.91232C130.624 8.92242 130.382 8.92242 130.139 8.91232C129.907 8.89214 129.675 8.87195 129.443 8.85176C129.453 9.64911 129.438 10.4465 129.398 11.2438C129.367 12.0412 129.287 12.8335 129.155 13.6207C129.135 13.7923 129.044 13.9185 128.883 13.9992C128.721 14.08 128.565 14.0951 128.413 14.0446C128.242 13.9942 128.121 13.8983 128.05 13.757C127.99 13.6258 127.974 13.4744 128.005 13.3028C128.126 12.5357 128.191 11.7687 128.202 11.0016C128.222 10.2345 128.222 9.46239 128.202 8.68523C127.818 8.62467 127.429 8.56411 127.036 8.50355C126.642 8.4329 126.254 8.37234 125.87 8.32188C125.698 8.30169 125.577 8.21086 125.507 8.04937C125.426 7.87779 125.406 7.72134 125.446 7.58004C125.497 7.40846 125.592 7.29239 125.734 7.23183C125.875 7.16118 126.026 7.13595 126.188 7.15613C126.521 7.2066 126.854 7.26211 127.187 7.32267C127.52 7.37313 127.858 7.4236 128.202 7.47406C128.191 7.4236 128.186 7.3479 128.186 7.24697C128.186 6.3386 128.181 5.44032 128.171 4.55213C128.171 3.66395 128.217 2.76567 128.308 1.85729C128.328 1.6958 128.388 1.5545 128.489 1.43339C128.6 1.31227 128.742 1.25171 128.913 1.25171C129.064 1.25171 129.206 1.31227 129.337 1.43339C129.478 1.5545 129.539 1.6958 129.519 1.85729C129.418 2.82622 129.367 3.79011 129.367 4.74895C129.377 5.69769 129.393 6.66158 129.413 7.6406C129.655 7.66079 129.897 7.68097 130.139 7.70116C130.382 7.71125 130.624 7.7163 130.866 7.7163ZM132.516 12.6972C132.375 12.6467 132.254 12.5509 132.153 12.4096C132.062 12.2582 132.047 12.1068 132.108 11.9554C132.279 11.481 132.395 11.0016 132.456 10.5171C132.516 10.0326 132.557 9.53809 132.577 9.03344C132.587 8.88204 132.592 8.73569 132.592 8.59439C132.592 8.443 132.597 8.2916 132.607 8.14021C132.577 8.01909 132.587 7.90302 132.637 7.792C132.658 7.4993 132.678 7.2066 132.698 6.9139C132.718 6.61111 132.748 6.31337 132.789 6.02067C132.839 5.57657 132.89 5.13753 132.94 4.70353C133.001 4.25943 133.041 3.81029 133.061 3.35611C133.082 2.94229 133.102 2.53353 133.122 2.1298C133.152 1.71599 133.258 1.32236 133.44 0.94892C133.531 0.777338 133.652 0.681454 133.803 0.661268C133.955 0.630989 134.096 0.656222 134.227 0.736966C134.358 0.807617 134.454 0.918641 134.515 1.07004C134.585 1.22143 134.575 1.38292 134.484 1.5545C134.404 1.72608 134.348 1.90271 134.318 2.08439C134.288 2.26606 134.267 2.45278 134.257 2.64455C134.257 2.83632 134.257 3.02808 134.257 3.21985C134.257 3.41162 134.252 3.59834 134.242 3.78002C134.192 4.2342 134.141 4.68839 134.091 5.14257C134.04 5.58667 133.99 6.03581 133.939 6.48999C134.363 6.27804 134.833 6.16197 135.347 6.14178C135.751 6.13169 136.16 6.20234 136.574 6.35374C136.998 6.49504 137.341 6.72718 137.603 7.05016C137.755 7.24193 137.876 7.45388 137.967 7.68602C138.057 7.90807 138.128 8.14525 138.178 8.39758C138.239 8.63981 138.279 8.88709 138.3 9.13942C138.32 9.38165 138.34 9.61883 138.36 9.85097C138.39 10.3253 138.401 10.7997 138.39 11.2741C138.39 11.7384 138.38 12.2127 138.36 12.6972C138.36 12.889 138.295 13.0303 138.163 13.1211C138.032 13.222 137.891 13.2725 137.739 13.2725C137.588 13.2725 137.452 13.222 137.331 13.1211C137.21 13.0303 137.154 12.889 137.164 12.6972C137.174 12.2935 137.184 11.8898 137.194 11.486C137.205 11.0823 137.199 10.6786 137.179 10.2749C137.159 10.073 137.144 9.86611 137.134 9.65416C137.124 9.44221 137.099 9.23025 137.058 9.0183C137.038 8.91737 137.018 8.82148 136.998 8.73065C136.988 8.62972 136.967 8.52879 136.937 8.42786C136.927 8.34711 136.902 8.26132 136.861 8.17048C136.831 8.07965 136.811 8.02918 136.801 8.01909C136.781 7.98881 136.765 7.96358 136.755 7.94339C136.745 7.91311 136.73 7.88283 136.71 7.85255C136.619 7.75162 136.564 7.69611 136.543 7.68602C136.503 7.65574 136.468 7.63555 136.437 7.62546C136.407 7.60527 136.377 7.58509 136.347 7.5649C136.236 7.50434 136.109 7.45388 135.968 7.41351C135.827 7.37313 135.691 7.35295 135.559 7.35295C135.216 7.33276 134.893 7.39332 134.59 7.53462C134.298 7.67593 134.035 7.89293 133.803 8.18562C133.783 8.88204 133.748 9.57342 133.697 10.2597C133.647 10.936 133.5 11.6072 133.258 12.2733C133.208 12.4247 133.112 12.5458 132.97 12.6367C132.839 12.7275 132.688 12.7477 132.516 12.6972ZM140.222 7.12586C140.414 6.86344 140.641 6.6313 140.904 6.42944C141.176 6.22758 141.464 6.07113 141.767 5.96011C142.069 5.83899 142.382 5.77844 142.705 5.77844C143.028 5.76834 143.351 5.8289 143.674 5.96011C143.987 6.08123 144.27 6.24776 144.522 6.45972C144.774 6.66158 144.971 6.92399 145.112 7.24697C145.223 7.4892 145.289 7.75162 145.309 8.03423C145.329 8.31683 145.254 8.57421 145.082 8.80635C144.931 9.0183 144.744 9.17979 144.522 9.29081C144.31 9.40183 144.078 9.48258 143.826 9.53304C143.583 9.58351 143.331 9.60874 143.069 9.60874C142.816 9.60874 142.574 9.60369 142.342 9.5936C142.079 9.58351 141.817 9.56332 141.555 9.53304C141.302 9.50276 141.045 9.47249 140.782 9.44221C140.863 9.89639 141.025 10.3001 141.267 10.6534C141.509 11.0066 141.837 11.2741 142.251 11.4558C142.362 11.4961 142.448 11.5264 142.508 11.5466C142.539 11.5567 142.564 11.5668 142.584 11.5769C142.614 11.5769 142.645 11.5769 142.675 11.5769C142.756 11.587 142.821 11.5971 142.872 11.6072C142.932 11.6072 142.988 11.6021 143.038 11.592C143.109 11.5819 143.154 11.5769 143.175 11.5769C143.205 11.5668 143.235 11.5567 143.265 11.5466C143.376 11.5163 143.472 11.481 143.553 11.4406C143.644 11.4003 143.75 11.3346 143.871 11.2438C143.932 11.1933 144.012 11.1176 144.113 11.0167C144.214 10.9158 144.3 10.825 144.371 10.7442C144.472 10.6029 144.593 10.507 144.734 10.4566C144.885 10.4061 145.037 10.4263 145.188 10.5171C145.319 10.5979 145.41 10.724 145.461 10.8956C145.521 11.0571 145.501 11.2085 145.4 11.3498C145.107 11.7434 144.759 12.0815 144.355 12.3641C143.962 12.6367 143.508 12.783 142.993 12.8032C142.579 12.8234 142.18 12.7527 141.797 12.5912C141.413 12.4197 141.075 12.1926 140.782 11.91C140.419 11.5567 140.131 11.1479 139.92 10.6836C139.708 10.2194 139.592 9.745 139.571 9.26053C139.48 9.18988 139.41 9.10409 139.359 9.00316C139.319 8.89214 139.304 8.78111 139.314 8.67009C139.334 8.55907 139.375 8.45814 139.435 8.3673C139.496 8.26637 139.586 8.20076 139.708 8.17048C139.819 7.79704 139.99 7.44883 140.222 7.12586ZM143.856 7.4892C143.745 7.3479 143.573 7.22174 143.341 7.11072C143.149 7.02997 142.922 6.9896 142.66 6.9896C142.407 6.9896 142.19 7.03502 142.009 7.12586C141.777 7.23688 141.57 7.39332 141.388 7.59518C141.206 7.78695 141.06 8.00395 140.949 8.24618C141.191 8.27646 141.433 8.30674 141.676 8.33702C141.918 8.3673 142.16 8.38748 142.402 8.39758C142.534 8.39758 142.665 8.39758 142.796 8.39758C142.927 8.39758 143.058 8.39253 143.19 8.38244C143.23 8.38244 143.265 8.38244 143.296 8.38244C143.336 8.37234 143.376 8.3673 143.417 8.3673C143.508 8.34711 143.573 8.33702 143.614 8.33702C143.664 8.32693 143.715 8.31179 143.765 8.2916C143.805 8.28151 143.856 8.26637 143.916 8.24618C143.967 8.226 143.997 8.21086 144.007 8.20076C144.017 8.19067 144.032 8.18058 144.053 8.17048L144.098 7.98881C144.078 7.94844 144.063 7.91311 144.053 7.88283C144.053 7.84246 144.043 7.80713 144.022 7.77686C144.012 7.74658 143.987 7.70116 143.947 7.6406C143.916 7.58004 143.886 7.52958 143.856 7.4892ZM79.4068 33.8191C79.4471 33.9604 79.427 34.1118 79.3462 34.2733C79.2655 34.4348 79.1443 34.5307 78.9829 34.561C78.4378 34.6518 77.8979 34.6467 77.3629 34.5458C76.828 34.4348 76.3334 34.2027 75.8793 33.8494C75.4352 33.4961 75.1172 33.047 74.9255 32.502C74.7438 31.9469 74.7135 31.3917 74.8346 30.8366C74.9456 30.3421 75.1778 29.9131 75.531 29.5498C75.8843 29.1864 76.288 28.9038 76.7422 28.7019C77.1459 28.5102 77.5698 28.3588 78.0139 28.2478C78.458 28.1367 78.9021 28.1014 79.3462 28.1418C79.5178 28.162 79.6591 28.2276 79.7701 28.3386C79.8912 28.4395 79.9518 28.5758 79.9518 28.7474C79.9518 28.8988 79.8912 29.0401 79.7701 29.1713C79.6591 29.3025 79.5178 29.363 79.3462 29.3529C79.0232 29.3227 78.7053 29.3378 78.3924 29.3984C78.0795 29.4589 77.7767 29.5548 77.484 29.686C77.3125 29.7668 77.1409 29.8526 76.9693 29.9434C76.8078 30.0342 76.6665 30.1352 76.5454 30.2462C76.4142 30.3673 76.3032 30.4884 76.2123 30.6095C76.1316 30.7306 76.071 30.8719 76.0306 31.0334C75.9903 31.1949 75.9751 31.3665 75.9852 31.5482C75.9953 31.7299 76.0256 31.9115 76.0761 32.0932C76.1366 32.2648 76.2174 32.4263 76.3183 32.5777C76.4192 32.719 76.5403 32.8401 76.6816 32.941C76.9743 33.153 77.2923 33.2993 77.6354 33.3801C77.9887 33.4507 78.3319 33.4558 78.6649 33.3952C78.8264 33.3649 78.9778 33.3851 79.1191 33.4558C79.2604 33.5264 79.3563 33.6475 79.4068 33.8191ZM81.8745 34.5912C81.5313 34.4398 81.2588 34.2329 81.057 33.9705C80.8652 33.698 80.729 33.4003 80.6482 33.0773C80.5776 32.7543 80.5574 32.4212 80.5876 32.0781C80.6179 31.7248 80.6886 31.3867 80.7996 31.0637C80.8904 30.8114 80.9914 30.549 81.1024 30.2765C81.2235 30.0039 81.3648 29.7516 81.5263 29.5195C81.6878 29.2873 81.8796 29.0905 82.1016 28.929C82.3237 28.7575 82.5861 28.6464 82.8889 28.596C83.2017 28.5455 83.5146 28.5304 83.8275 28.5506C84.1505 28.5606 84.4684 28.5909 84.7813 28.6414C84.9226 28.6616 85.0589 28.6969 85.1901 28.7474C85.3213 28.7877 85.4525 28.8332 85.5837 28.8836C85.5938 28.7322 85.6594 28.6061 85.7805 28.5051C85.9117 28.4042 86.048 28.3537 86.1893 28.3537C86.3609 28.3537 86.4971 28.4143 86.598 28.5354C86.7091 28.6464 86.7747 28.7827 86.7949 28.9442C86.8453 29.4085 86.8655 29.8727 86.8554 30.337C86.8554 30.8013 86.8403 31.2656 86.81 31.7299C86.7898 32.1941 86.7696 32.6584 86.7494 33.1227C86.7394 33.587 86.7444 34.0513 86.7646 34.5155C86.7747 34.7073 86.7141 34.8537 86.5829 34.9546C86.4618 35.0454 86.3255 35.0908 86.1741 35.0908C86.0227 35.0908 85.8814 35.0454 85.7502 34.9546C85.6291 34.8537 85.5635 34.7073 85.5534 34.5155C84.9781 34.7578 84.3675 34.8991 83.7215 34.9394C83.0756 34.9697 82.4599 34.8537 81.8745 34.5912ZM81.9805 31.306C81.9199 31.4876 81.8644 31.6945 81.814 31.9267C81.7635 32.1588 81.7483 32.3809 81.7685 32.5928C81.7887 32.8048 81.8543 33.0016 81.9653 33.1833C82.0764 33.3548 82.258 33.476 82.5104 33.5466C83.0251 33.7081 83.5399 33.7535 84.0546 33.6829C84.5794 33.6122 85.069 33.4305 85.5231 33.1378C85.5635 32.6433 85.5938 32.1639 85.614 31.6996C85.6443 31.2353 85.6544 30.766 85.6443 30.2916C85.4727 30.1806 85.296 30.0847 85.1144 30.0039C84.9428 29.9131 84.751 29.8526 84.5391 29.8223C84.3271 29.792 84.1 29.7718 83.8578 29.7617C83.6257 29.7415 83.3986 29.7415 83.1765 29.7617C83.1563 29.7617 83.1008 29.7769 83.01 29.8071C82.9292 29.8273 82.8838 29.8425 82.8737 29.8526C82.7728 29.903 82.682 29.9838 82.6012 30.0948C82.47 30.2765 82.3539 30.4733 82.253 30.6852C82.1521 30.8871 82.0612 31.094 81.9805 31.306ZM88.5208 28.8382C88.5309 28.6464 88.6015 28.5051 88.7327 28.4143C88.8639 28.3134 89.0052 28.2629 89.1566 28.2629C89.308 28.2629 89.4392 28.3134 89.5503 28.4143C89.6714 28.5051 89.7269 28.6464 89.7168 28.8382C89.7168 28.8988 89.7118 28.9644 89.7017 29.035C89.7017 29.0956 89.7017 29.1561 89.7017 29.2167C90.0246 29.0552 90.3628 28.9189 90.716 28.8079C91.0794 28.6868 91.4377 28.6111 91.7909 28.5808C92.1543 28.5506 92.5025 28.5808 92.8355 28.6717C93.1787 28.7524 93.4916 28.9139 93.7742 29.1561C93.9155 29.2873 93.9761 29.4286 93.9559 29.58C93.9458 29.7314 93.8852 29.8626 93.7742 29.9737C93.6733 30.0746 93.5421 30.1402 93.3806 30.1705C93.2191 30.1907 93.0626 30.1402 92.9112 30.0191C92.8002 29.9283 92.6741 29.8626 92.5328 29.8223C92.4015 29.7819 92.2552 29.7668 92.0937 29.7769C91.9423 29.7769 91.7859 29.792 91.6244 29.8223C91.473 29.8526 91.3266 29.8879 91.1853 29.9283C90.6504 30.0998 90.1508 30.3269 89.6865 30.6095C89.7067 31.1041 89.737 31.5986 89.7774 32.0932C89.8177 32.507 89.8531 32.936 89.8833 33.3801C89.9136 33.8141 89.9994 34.2279 90.1407 34.6215C90.2013 34.8032 90.1861 34.9546 90.0953 35.0757C90.0145 35.2069 89.8985 35.2927 89.7471 35.3331C89.6058 35.3734 89.4544 35.3633 89.2929 35.3028C89.1415 35.2422 89.0355 35.1211 88.975 34.9394C88.8942 34.7073 88.8387 34.4701 88.8084 34.2279C88.7781 33.9857 88.7479 33.7434 88.7176 33.5012C88.6974 33.269 88.6722 33.0369 88.6419 32.8048C88.6217 32.5625 88.6015 32.3253 88.5813 32.0932C88.5309 31.5482 88.4955 31.0082 88.4754 30.4733C88.4653 29.9283 88.4804 29.3832 88.5208 28.8382ZM96.2722 29.4741C96.6356 29.252 97.0242 29.0603 97.438 28.8988C97.8619 28.7373 98.2908 28.6616 98.7248 28.6717C98.6845 27.8138 98.6491 26.9609 98.6189 26.1131C98.5987 25.2653 98.5835 24.4124 98.5734 23.5545C98.5734 23.3627 98.634 23.2214 98.7551 23.1306C98.8762 23.0297 99.0125 22.9792 99.1639 22.9792C99.3153 22.9792 99.4515 23.0297 99.5726 23.1306C99.7039 23.2214 99.7695 23.3627 99.7695 23.5545C99.7796 24.5537 99.8048 25.558 99.8452 26.5673C99.8855 27.5665 99.9259 28.5657 99.9663 29.5649C100.007 30.5641 100.037 31.5684 100.057 32.5777C100.077 33.5769 100.072 34.5761 100.042 35.5753C100.032 35.7671 99.9612 35.9134 99.83 36.0143C99.6988 36.1153 99.5575 36.1657 99.4061 36.1657C99.2547 36.1657 99.1185 36.1153 98.9973 36.0143C98.8762 35.9235 98.8207 35.7772 98.8308 35.5753C98.8308 35.5047 98.8308 35.434 98.8308 35.3633C98.8308 35.2927 98.8359 35.222 98.8459 35.1514C98.745 35.1413 98.6441 35.1312 98.5432 35.1211C98.4523 35.1211 98.3615 35.1211 98.2706 35.1211C98.1495 35.1211 98.0284 35.1211 97.9073 35.1211C97.7862 35.1211 97.6701 35.1161 97.5591 35.106C97.2967 35.0858 97.0342 35.0606 96.7718 35.0303C96.5094 35 96.252 34.9394 95.9997 34.8486C95.7474 34.7477 95.5102 34.6266 95.2882 34.4853C95.0661 34.3339 94.8844 34.137 94.7431 33.8948C94.5816 33.6425 94.4454 33.37 94.3344 33.0773C94.2334 32.7846 94.1931 32.4818 94.2132 32.1689C94.2334 31.856 94.3041 31.5684 94.4252 31.306C94.5463 31.0435 94.6977 30.8013 94.8794 30.5793C95.0712 30.3572 95.2831 30.1553 95.5152 29.9737C95.7575 29.792 96.0098 29.6255 96.2722 29.4741ZM98.8611 33.9554C98.8611 32.6029 98.8308 31.2454 98.7702 29.8828C98.4372 29.8626 98.1041 29.9232 97.771 30.0645C97.4481 30.1957 97.1503 30.3471 96.8778 30.5187C96.7264 30.6095 96.5599 30.7155 96.3782 30.8366C96.2066 30.9476 96.0451 31.0789 95.8937 31.2303C95.7524 31.3716 95.6364 31.528 95.5455 31.6996C95.4547 31.8712 95.4093 32.0579 95.4093 32.2597C95.4194 32.4414 95.4597 32.6382 95.5304 32.8502C95.601 33.052 95.6969 33.2186 95.818 33.3498C95.9392 33.481 96.0754 33.5819 96.2268 33.6526C96.3782 33.7131 96.5397 33.7636 96.7113 33.804C96.9131 33.8443 97.1049 33.8696 97.2866 33.8797C97.4783 33.8898 97.6752 33.8999 97.877 33.91C98.0385 33.91 98.2 33.92 98.3615 33.9402C98.523 33.9503 98.6895 33.9554 98.8611 33.9554ZM102.177 31.639C101.914 31.4473 101.728 31.2101 101.616 30.9275C101.505 30.6348 101.5 30.3269 101.601 30.0039C101.702 29.7113 101.859 29.4488 102.071 29.2167C102.283 28.9846 102.525 28.7978 102.797 28.6565C103.1 28.495 103.423 28.3689 103.766 28.278C104.109 28.1872 104.458 28.1367 104.811 28.1266C105.164 28.1166 105.512 28.1519 105.856 28.2326C106.209 28.3033 106.542 28.4193 106.855 28.5808C107.026 28.6717 107.122 28.7928 107.142 28.9442C107.163 29.0956 107.132 29.2369 107.052 29.3681C106.981 29.4993 106.87 29.5952 106.719 29.6557C106.567 29.7163 106.406 29.7012 106.234 29.6103C105.992 29.4791 105.719 29.3933 105.417 29.3529C105.114 29.3126 104.806 29.3126 104.493 29.3529C104.19 29.3832 103.903 29.4589 103.63 29.58C103.358 29.7012 103.13 29.8576 102.949 30.0494C102.898 30.0998 102.863 30.1352 102.843 30.1553C102.833 30.1755 102.813 30.2209 102.782 30.2916L102.752 30.4581C102.782 30.549 102.807 30.6045 102.828 30.6247C103.03 30.7559 103.236 30.8417 103.448 30.882C103.67 30.9123 103.892 30.9325 104.115 30.9426C104.427 30.9628 104.745 30.983 105.068 31.0032C105.401 31.0133 105.719 31.0536 106.022 31.1243C106.335 31.1949 106.623 31.311 106.885 31.4725C107.147 31.634 107.37 31.8712 107.551 32.184C107.753 32.5373 107.844 32.9057 107.824 33.2892C107.814 33.6627 107.667 34.0008 107.385 34.3036C107.102 34.6064 106.774 34.8183 106.401 34.9394C106.027 35.0505 105.649 35.1312 105.265 35.1817C104.922 35.222 104.564 35.2321 104.19 35.212C103.827 35.1918 103.474 35.1312 103.13 35.0303C102.797 34.9394 102.484 34.7981 102.192 34.6064C101.899 34.4045 101.657 34.1421 101.465 33.8191C101.374 33.6576 101.359 33.5062 101.42 33.3649C101.48 33.2135 101.571 33.1025 101.692 33.0319C101.823 32.9511 101.965 32.9208 102.116 32.941C102.278 32.9612 102.409 33.052 102.51 33.2135C102.651 33.4457 102.848 33.6223 103.1 33.7434C103.352 33.8645 103.625 33.9503 103.918 34.0008C104.22 34.0412 104.523 34.0513 104.826 34.0311C105.129 34.0008 105.401 33.9604 105.644 33.91C105.775 33.8797 105.906 33.8393 106.037 33.7888C106.179 33.7283 106.295 33.6576 106.385 33.5769C106.486 33.4961 106.557 33.4053 106.597 33.3044C106.638 33.1933 106.633 33.0722 106.582 32.941C106.481 32.6887 106.31 32.507 106.068 32.396C105.835 32.285 105.588 32.2194 105.326 32.1992C105.063 32.179 104.796 32.1689 104.523 32.1689C104.251 32.1689 103.978 32.1588 103.706 32.1386C103.433 32.1083 103.166 32.0579 102.903 31.9872C102.641 31.9166 102.399 31.8005 102.177 31.639ZM114.425 33.9402C114.556 34.021 114.657 34.1421 114.727 34.3036C114.798 34.4651 114.808 34.6165 114.758 34.7578C114.717 34.9092 114.621 35.0353 114.47 35.1363C114.359 35.2574 114.218 35.3129 114.046 35.3028C113.874 35.3028 113.733 35.2473 113.622 35.1363C113.471 35.0252 113.375 34.9243 113.334 34.8335C113.254 34.6922 113.229 34.5509 113.259 34.4096C113.299 34.2683 113.375 34.1471 113.486 34.0462C113.516 34.026 113.541 34.0058 113.562 33.9857C113.592 33.9554 113.627 33.9301 113.668 33.91C113.758 33.8696 113.809 33.8494 113.819 33.8494C113.839 33.8494 113.895 33.8393 113.985 33.8191C114.016 33.8191 114.051 33.8242 114.091 33.8343C114.132 33.8343 114.162 33.8393 114.182 33.8494C114.263 33.8595 114.344 33.8898 114.425 33.9402ZM114.303 24.1752C114.303 23.9835 114.364 23.8371 114.485 23.7362C114.616 23.6352 114.753 23.5848 114.894 23.5848C115.045 23.5848 115.182 23.6352 115.303 23.7362C115.434 23.8371 115.499 23.9835 115.499 24.1752C115.499 24.8414 115.504 25.5125 115.515 26.1888C115.535 26.8549 115.535 27.5211 115.515 28.1872C115.504 28.8533 115.464 29.5195 115.393 30.1856C115.333 30.8518 115.222 31.5129 115.06 32.1689C115.01 32.3607 114.914 32.4868 114.773 32.5474C114.631 32.608 114.485 32.618 114.334 32.5777C114.192 32.5373 114.071 32.4566 113.97 32.3354C113.869 32.2042 113.844 32.0427 113.895 31.851C114.046 31.2252 114.152 30.5944 114.213 29.9585C114.273 29.3126 114.308 28.6717 114.319 28.0358C114.339 27.3899 114.339 26.7439 114.319 26.0979C114.308 25.452 114.303 24.8111 114.303 24.1752Z" fill="#5B5C5E"/>
</svg>
