<svg width="152" height="159" viewBox="0 0 152 159" fill="none" xmlns="http://www.w3.org/2000/svg">
<path d="M49.4537 12.2605C49.4032 12.8762 49.2215 13.4263 48.9087 13.9107C48.5958 14.3851 48.182 14.7888 47.6672 15.1219C47.3241 15.3339 46.9557 15.5256 46.562 15.6972C46.1684 15.8688 45.7748 16 45.3812 16.0908C45.0279 16.1716 44.6797 16.2069 44.3365 16.1968C44.0035 16.1867 43.6653 16.1615 43.3222 16.1211C43.2414 16.212 43.1405 16.2725 43.0194 16.3028C42.9084 16.3432 42.7973 16.3482 42.6863 16.3179C42.4542 16.2574 42.3129 16.111 42.2624 15.8789C42.1413 15.7578 42.0807 15.6114 42.0807 15.4398C42.0807 15.2178 42.1817 15.0412 42.3835 14.91C42.4441 14.5062 42.4895 14.1025 42.5198 13.6988C42.5601 13.2951 42.5904 12.8863 42.6106 12.4725C42.6409 11.988 42.6661 11.5086 42.6863 11.0342C42.7065 10.5599 42.7115 10.0804 42.7015 9.59597C42.7015 9.29318 42.6914 8.9803 42.6712 8.65732C42.651 8.33434 42.6409 8.01641 42.6409 7.70353C42.6409 7.38055 42.656 7.06262 42.6863 6.74974C42.7267 6.43685 42.8024 6.13406 42.9134 5.84136C42.8629 5.67987 42.873 5.51334 42.9437 5.34176C43.0143 5.17018 43.1506 5.0642 43.3525 5.02383C43.4736 4.89262 43.6149 4.83206 43.7764 4.84215C43.9479 4.85225 44.0892 4.90776 44.2003 5.00869C44.6948 5.04906 45.1742 5.14494 45.6385 5.29634C46.1129 5.43764 46.5469 5.66978 46.9405 5.99276C47.425 6.37629 47.8136 6.84057 48.1063 7.3856C48.399 7.92053 48.6362 8.47564 48.8178 9.05095C48.8986 9.30327 48.9793 9.56065 49.0601 9.82306C49.1509 10.0855 49.2266 10.3529 49.2872 10.6255C49.3578 10.898 49.4083 11.1705 49.4385 11.443C49.4688 11.7155 49.4739 11.988 49.4537 12.2605ZM46.9254 14.153C47.0566 14.0722 47.1727 13.9915 47.2736 13.9107C47.3846 13.83 47.4956 13.7341 47.6067 13.6231C47.6975 13.5222 47.7682 13.4414 47.8186 13.3809C47.8691 13.3203 47.9296 13.2295 48.0003 13.1083C48.1719 12.7551 48.2526 12.3564 48.2425 11.9123C48.2425 11.66 48.2223 11.4279 48.182 11.2159C48.1416 10.9939 48.081 10.7466 48.0003 10.4741C47.9195 10.1915 47.8338 9.9139 47.7429 9.64139C47.6622 9.35878 47.5663 9.08627 47.4553 8.82385C47.3745 8.60181 47.2635 8.36462 47.1222 8.1123C46.991 7.84988 46.8547 7.63288 46.7134 7.46129C46.3602 7.03739 45.9615 6.7346 45.5174 6.55292C45.0733 6.36115 44.5888 6.25013 44.064 6.21985C43.953 6.50246 43.8823 6.8002 43.8521 7.11309C43.8319 7.41588 43.8268 7.72371 43.8369 8.0366C43.847 8.34948 43.8621 8.66237 43.8823 8.97525C43.9126 9.28813 43.9227 9.59092 43.9126 9.88362C43.8722 10.7415 43.8319 11.5893 43.7915 12.4271C43.7612 13.2648 43.6906 14.1076 43.5795 14.9554C43.7612 14.9756 43.9429 14.9907 44.1246 15.0008C44.3163 15.0109 44.5031 15.0058 44.6847 14.9857C45.0683 14.9453 45.4518 14.8494 45.8353 14.698C46.229 14.5365 46.5923 14.3548 46.9254 14.153ZM50.8768 15.8486C50.9576 15.3641 51.0484 14.8898 51.1493 14.4255C51.2603 13.9511 51.3411 13.4717 51.3916 12.9872C51.4319 12.5129 51.437 12.0486 51.4067 11.5944C51.3865 11.1301 51.4168 10.6608 51.4975 10.1864C51.5177 10.0249 51.6086 9.90381 51.77 9.82306C51.9416 9.74232 52.0981 9.72213 52.2394 9.76251C52.4109 9.81297 52.527 9.90886 52.5876 10.0502C52.6582 10.1915 52.6835 10.3429 52.6633 10.5043C52.6229 10.7365 52.6027 10.9737 52.6027 11.2159C52.6128 11.4581 52.6229 11.7004 52.633 11.9426C52.633 12.4069 52.6027 12.8712 52.5422 13.3354C52.4816 13.8199 52.4009 14.2943 52.2999 14.7586C52.2091 15.2228 52.1233 15.6922 52.0426 16.1665C52.0123 16.328 51.9164 16.4491 51.7549 16.5299C51.5934 16.6106 51.442 16.6308 51.3007 16.5904C51.1291 16.54 51.008 16.4441 50.9374 16.3028C50.8667 16.1615 50.8465 16.0101 50.8768 15.8486ZM51.6035 8.88441C51.5329 8.86423 51.4622 8.83395 51.3916 8.79358C51.3209 8.74311 51.2704 8.68255 51.2402 8.6119C51.2099 8.53116 51.1846 8.46051 51.1645 8.39995C51.1443 8.33939 51.1342 8.26874 51.1342 8.18799C51.1342 8.09716 51.1493 8.00632 51.1796 7.91548C51.22 7.73381 51.3007 7.6026 51.4218 7.52185C51.4622 7.46129 51.5177 7.41588 51.5884 7.3856C51.6994 7.31495 51.8256 7.27962 51.9669 7.27962C52.1082 7.26953 52.2343 7.30485 52.3453 7.3856C52.3958 7.42597 52.4463 7.47139 52.4967 7.52185C52.5472 7.56223 52.5876 7.61774 52.6179 7.68839C52.638 7.73885 52.6582 7.79436 52.6784 7.85492C52.7087 7.91548 52.7188 7.97604 52.7087 8.0366C52.6986 8.10725 52.6885 8.17285 52.6784 8.23341C52.6683 8.29397 52.6431 8.34948 52.6027 8.39995C52.5523 8.4706 52.5119 8.52106 52.4816 8.55134C52.4513 8.58162 52.4009 8.62199 52.3302 8.67246C52.2898 8.71283 52.2293 8.74311 52.1485 8.7633C51.9366 8.88441 51.7549 8.92478 51.6035 8.88441ZM54.9039 12.639C54.6415 12.4473 54.4548 12.2101 54.3438 11.9275C54.2327 11.6348 54.2277 11.3269 54.3286 11.0039C54.4296 10.7113 54.586 10.4488 54.7979 10.2167C55.0099 9.98455 55.2521 9.79783 55.5246 9.65653C55.8274 9.49504 56.1504 9.36888 56.4936 9.27804C56.8367 9.1872 57.185 9.13674 57.5382 9.12665C57.8915 9.11655 58.2397 9.15188 58.5828 9.23262C58.9361 9.30327 59.2692 9.41934 59.582 9.58083C59.7536 9.67167 59.8495 9.79279 59.8697 9.94418C59.8899 10.0956 59.8596 10.2369 59.7789 10.3681C59.7082 10.4993 59.5972 10.5952 59.4458 10.6557C59.2944 10.7163 59.1329 10.7012 58.9613 10.6103C58.7191 10.4791 58.4466 10.3933 58.1438 10.3529C57.841 10.3126 57.5332 10.3126 57.2203 10.3529C56.9175 10.3832 56.6298 10.4589 56.3573 10.58C56.0848 10.7012 55.8577 10.8576 55.676 11.0494C55.6256 11.0998 55.5903 11.1352 55.5701 11.1553C55.56 11.1755 55.5398 11.2209 55.5095 11.2916L55.4792 11.4581C55.5095 11.549 55.5347 11.6045 55.5549 11.6247C55.7568 11.7559 55.9637 11.8417 56.1756 11.882C56.3977 11.9123 56.6197 11.9325 56.8418 11.9426C57.1547 11.9628 57.4726 11.983 57.7956 12.0032C58.1286 12.0133 58.4466 12.0536 58.7494 12.1243C59.0623 12.1949 59.3499 12.311 59.6123 12.4725C59.8747 12.634 60.0968 12.8712 60.2785 13.184C60.4803 13.5373 60.5712 13.9057 60.551 14.2892C60.5409 14.6627 60.3945 15.0008 60.1119 15.3036C59.8293 15.6064 59.5013 15.8183 59.1279 15.9394C58.7544 16.0505 58.3759 16.1312 57.9924 16.1817C57.6492 16.222 57.2909 16.2321 56.9175 16.212C56.5541 16.1918 56.2009 16.1312 55.8577 16.0303C55.5246 15.9394 55.2118 15.7981 54.9191 15.6064C54.6264 15.4045 54.3841 15.1421 54.1924 14.8191C54.1015 14.6576 54.0864 14.5062 54.1469 14.3649C54.2075 14.2135 54.2983 14.1025 54.4195 14.0319C54.5507 13.9511 54.692 13.9208 54.8434 13.941C55.0049 13.9612 55.1361 14.052 55.237 14.2135C55.3783 14.4457 55.5751 14.6223 55.8274 14.7434C56.0798 14.8645 56.3523 14.9503 56.645 15.0008C56.9478 15.0412 57.2506 15.0513 57.5533 15.0311C57.8561 15.0008 58.1286 14.9604 58.3709 14.91C58.5021 14.8797 58.6333 14.8393 58.7645 14.7888C58.9058 14.7283 59.0219 14.6576 59.1127 14.5769C59.2136 14.4961 59.2843 14.4053 59.3247 14.3044C59.365 14.1933 59.36 14.0722 59.3095 13.941C59.2086 13.6887 59.037 13.507 58.7948 13.396C58.5626 13.285 58.3154 13.2194 58.053 13.1992C57.7905 13.179 57.5231 13.1689 57.2506 13.1689C56.978 13.1689 56.7055 13.1588 56.433 13.1386C56.1605 13.1083 55.893 13.0579 55.6306 12.9872C55.3682 12.9166 55.126 12.8005 54.9039 12.639ZM66.0466 14.8191C66.087 14.9604 66.0668 15.1118 65.9861 15.2733C65.9053 15.4348 65.7842 15.5307 65.6227 15.561C65.0777 15.6518 64.5377 15.6467 64.0028 15.5458C63.4679 15.4348 62.9733 15.2027 62.5191 14.8494C62.075 14.4961 61.7571 14.047 61.5653 13.502C61.3837 12.9469 61.3534 12.3917 61.4745 11.8366C61.5855 11.3421 61.8177 10.9131 62.1709 10.5498C62.5242 10.1864 62.9279 9.90381 63.3821 9.70195C63.7858 9.51018 64.2097 9.35878 64.6538 9.24776C65.0979 9.13674 65.542 9.10141 65.9861 9.14178C66.1577 9.16197 66.299 9.22758 66.41 9.3386C66.5311 9.43953 66.5917 9.57579 66.5917 9.74737C66.5917 9.89876 66.5311 10.0401 66.41 10.1713C66.299 10.3025 66.1577 10.363 65.9861 10.3529C65.6631 10.3227 65.3452 10.3378 65.0323 10.3984C64.7194 10.4589 64.4166 10.5548 64.1239 10.686C63.9523 10.7668 63.7807 10.8526 63.6092 10.9434C63.4477 11.0342 63.3064 11.1352 63.1853 11.2462C63.054 11.3673 62.943 11.4884 62.8522 11.6095C62.7714 11.7306 62.7109 11.8719 62.6705 12.0334C62.6301 12.1949 62.615 12.3665 62.6251 12.5482C62.6352 12.7299 62.6655 12.9115 62.7159 13.0932C62.7765 13.2648 62.8572 13.4263 62.9582 13.5777C63.0591 13.719 63.1802 13.8401 63.3215 13.941C63.6142 14.153 63.9321 14.2993 64.2753 14.3801C64.6286 14.4507 64.9717 14.4558 65.3048 14.3952C65.4663 14.3649 65.6177 14.3851 65.759 14.4558C65.9003 14.5264 65.9962 14.6475 66.0466 14.8191ZM71.1184 9.02067C71.4414 8.9803 71.7795 8.9702 72.1327 8.99039C72.486 9.00048 72.8241 9.06104 73.1471 9.17206C73.4701 9.27299 73.7628 9.42944 74.0252 9.64139C74.2876 9.85334 74.4895 10.1309 74.6308 10.4741C74.7317 10.7163 74.7822 10.9636 74.7822 11.2159C74.7922 11.4581 74.7569 11.6953 74.6762 11.9275C74.6055 12.1495 74.4945 12.3665 74.3431 12.5785C74.2018 12.7803 74.0353 12.967 73.8435 13.1386C73.4297 13.5121 72.9755 13.83 72.4809 14.0924C71.9864 14.3548 71.4666 14.5567 70.9216 14.698C70.6894 14.7586 70.4472 14.8141 70.1949 14.8645C69.9526 14.9049 69.7054 14.9251 69.453 14.9251C69.2007 14.9251 68.9534 14.8999 68.7112 14.8494C68.469 14.7888 68.2419 14.693 68.0299 14.5617C67.8785 14.4709 67.7877 14.3498 67.7574 14.1984C67.6968 14.0268 67.6312 13.8653 67.5606 13.7139C67.4899 13.5625 67.4193 13.4061 67.3486 13.2446C67.2881 13.0831 67.2376 12.9216 67.1972 12.7601C67.1569 12.5986 67.1367 12.4321 67.1367 12.2605C67.1367 11.9174 67.2073 11.5944 67.3486 11.2916C67.5 10.9787 67.7019 10.7062 67.9542 10.4741C68.3781 10.0703 68.8676 9.74737 69.4228 9.50513C69.9779 9.2629 70.5431 9.10141 71.1184 9.02067ZM72.8292 10.3227C72.5566 10.2217 72.2639 10.1713 71.9511 10.1713C71.618 10.1612 71.2849 10.1965 70.9518 10.2773C70.6188 10.3479 70.3008 10.4488 69.9981 10.58C69.7155 10.6911 69.4228 10.8475 69.12 11.0494C68.8273 11.2411 68.6103 11.4783 68.469 11.7609C68.3882 11.9123 68.3478 12.0688 68.3478 12.2303C68.3579 12.3816 68.3832 12.5381 68.4235 12.6996C68.474 12.851 68.5346 13.0074 68.6052 13.1689C68.686 13.3203 68.7566 13.4717 68.8172 13.6231C68.9787 13.6635 69.0796 13.6836 69.12 13.6836C69.1401 13.6937 69.1654 13.6988 69.1957 13.6988C69.2259 13.6988 69.2512 13.6988 69.2714 13.6988C69.4732 13.719 69.6549 13.7139 69.8164 13.6836C69.9274 13.6836 70.0687 13.6635 70.2403 13.6231C70.5027 13.5726 70.755 13.507 70.9973 13.4263C71.2395 13.3354 71.4615 13.2396 71.6634 13.1386C71.8955 13.0276 72.1226 12.9065 72.3447 12.7753C72.5667 12.6441 72.7535 12.5078 72.9048 12.3665C73.0058 12.2757 73.1017 12.1798 73.1925 12.0789C73.243 12.0284 73.2783 11.988 73.2985 11.9577C73.3489 11.8871 73.3893 11.8366 73.4196 11.8063C73.4499 11.766 73.4751 11.7206 73.4953 11.6701C73.5357 11.5994 73.5559 11.5439 73.5559 11.5036C73.5659 11.4834 73.571 11.4581 73.571 11.4279C73.5811 11.3976 73.5912 11.3723 73.6013 11.3522V11.1856C73.5912 11.1453 73.5861 11.115 73.5861 11.0948C73.5861 11.0746 73.5811 11.0544 73.571 11.0342C73.5407 10.9636 73.5104 10.9131 73.4802 10.8828C73.46 10.8425 73.4347 10.8021 73.4045 10.7617C73.4145 10.7718 73.3994 10.7567 73.359 10.7163C73.3288 10.6759 73.3086 10.6507 73.2985 10.6406L73.1774 10.5195C73.1269 10.4892 73.0714 10.4539 73.0108 10.4135C72.9503 10.3731 72.8897 10.3429 72.8292 10.3227ZM76.8563 13.8048C76.7755 13.5423 76.6998 13.2749 76.6292 13.0024C76.5686 12.7299 76.498 12.4624 76.4172 12.2C76.3062 11.766 76.1397 11.332 75.9176 10.898C75.8066 10.6759 75.6956 10.4539 75.5845 10.2318C75.4735 9.99969 75.3928 9.76251 75.3423 9.52027C75.3019 9.32851 75.3322 9.17206 75.4332 9.05095C75.5442 8.91974 75.6703 8.83395 75.8116 8.79358C75.9529 8.7532 76.0942 8.7633 76.2355 8.82385C76.3769 8.88441 76.4677 9.01058 76.5081 9.20234C76.5585 9.44458 76.6393 9.67167 76.7503 9.88362C76.8714 10.0956 76.9875 10.3126 77.0985 10.5346C77.2095 10.7668 77.3054 11.0039 77.3862 11.2462C77.4669 11.4884 77.5426 11.7306 77.6132 11.9729C77.694 12.2353 77.7646 12.5078 77.8252 12.7904C77.8959 13.0629 77.9766 13.3304 78.0674 13.5928C78.0977 13.6937 78.128 13.7947 78.1583 13.8956C78.1986 13.9864 78.239 14.0823 78.2794 14.1833C78.3803 13.8906 78.4611 13.6382 78.5216 13.4263C78.5822 13.2042 78.6528 12.9923 78.7336 12.7904C78.8446 12.4876 78.9506 12.1899 79.0515 11.8972C79.1524 11.5944 79.2433 11.2866 79.324 10.9737C79.4048 10.681 79.4653 10.3883 79.5057 10.0956C79.5461 9.79279 79.6066 9.49504 79.6874 9.20234C79.7378 9.02067 79.8388 8.89955 79.9902 8.83899C80.1416 8.77844 80.2879 8.76834 80.4292 8.80871C80.5705 8.84909 80.6866 8.93488 80.7774 9.06609C80.8783 9.1872 80.9036 9.3386 80.8531 9.52027C80.7522 9.85334 80.6815 10.1915 80.6412 10.5346C80.6008 10.8677 80.5301 11.1957 80.4292 11.5187C80.3384 11.8417 80.2324 12.1646 80.1113 12.4876C80.0003 12.8005 79.8892 13.1184 79.7782 13.4414C79.7076 13.6635 79.6369 13.8956 79.5663 14.1378C79.4956 14.37 79.4098 14.5971 79.3089 14.8191C79.218 15.0412 79.102 15.2481 78.9607 15.4398C78.8194 15.6316 78.6427 15.7931 78.4308 15.9243C78.239 16.0353 78.0624 16.0454 77.9009 15.9546C77.7394 15.8637 77.6183 15.7325 77.5376 15.561C77.4164 15.2683 77.2953 14.9756 77.1742 14.6829C77.0632 14.3902 76.9572 14.0975 76.8563 13.8048ZM82.3217 10.1259C82.5134 9.86344 82.7405 9.6313 83.0029 9.42944C83.2754 9.22758 83.5631 9.07113 83.8659 8.96011C84.1687 8.83899 84.4816 8.77844 84.8045 8.77844C85.1275 8.76834 85.4505 8.8289 85.7735 8.96011C86.0864 9.08123 86.369 9.24776 86.6213 9.45972C86.8736 9.66158 87.0704 9.92399 87.2117 10.247C87.3227 10.4892 87.3884 10.7516 87.4085 11.0342C87.4287 11.3168 87.353 11.5742 87.1814 11.8063C87.03 12.0183 86.8433 12.1798 86.6213 12.2908C86.4093 12.4018 86.1772 12.4826 85.9249 12.533C85.6826 12.5835 85.4303 12.6087 85.1679 12.6087C84.9156 12.6087 84.6733 12.6037 84.4412 12.5936C84.1788 12.5835 83.9163 12.5633 83.6539 12.533C83.4016 12.5028 83.1442 12.4725 82.8818 12.4422C82.9626 12.8964 83.124 13.3001 83.3663 13.6534C83.6085 14.0066 83.9365 14.2741 84.3503 14.4558C84.4614 14.4961 84.5472 14.5264 84.6077 14.5466C84.638 14.5567 84.6632 14.5668 84.6834 14.5769C84.7137 14.5769 84.744 14.5769 84.7743 14.5769C84.855 14.587 84.9206 14.5971 84.9711 14.6072C85.0316 14.6072 85.0871 14.6021 85.1376 14.592C85.2083 14.5819 85.2537 14.5769 85.2739 14.5769C85.3041 14.5668 85.3344 14.5567 85.3647 14.5466C85.4757 14.5163 85.5716 14.481 85.6524 14.4406C85.7432 14.4003 85.8492 14.3346 85.9703 14.2438C86.0308 14.1933 86.1116 14.1176 86.2125 14.0167C86.3134 13.9158 86.3992 13.825 86.4699 13.7442C86.5708 13.6029 86.6919 13.507 86.8332 13.4566C86.9846 13.4061 87.136 13.4263 87.2874 13.5171C87.4186 13.5979 87.5095 13.724 87.5599 13.8956C87.6205 14.0571 87.6003 14.2085 87.4994 14.3498C87.2067 14.7434 86.8585 15.0815 86.4547 15.3641C86.0611 15.6367 85.6069 15.783 85.0922 15.8032C84.6784 15.8234 84.2797 15.7527 83.8962 15.5912C83.5126 15.4197 83.1745 15.1926 82.8818 14.91C82.5185 14.5567 82.2308 14.1479 82.0189 13.6836C81.8069 13.2194 81.6908 12.745 81.6706 12.2605C81.5798 12.1899 81.5092 12.1041 81.4587 12.0032C81.4183 11.8921 81.4032 11.7811 81.4133 11.6701C81.4335 11.5591 81.4738 11.4581 81.5344 11.3673C81.595 11.2664 81.6858 11.2008 81.8069 11.1705C81.9179 10.797 82.0895 10.4488 82.3217 10.1259ZM85.9551 10.4892C85.8441 10.3479 85.6725 10.2217 85.4404 10.1107C85.2486 10.03 85.0215 9.9896 84.7591 9.9896C84.5068 9.9896 84.2898 10.035 84.1081 10.1259C83.876 10.2369 83.6691 10.3933 83.4874 10.5952C83.3057 10.7869 83.1594 11.0039 83.0483 11.2462C83.2906 11.2765 83.5328 11.3067 83.775 11.337C84.0173 11.3673 84.2595 11.3875 84.5017 11.3976C84.633 11.3976 84.7642 11.3976 84.8954 11.3976C85.0266 11.3976 85.1578 11.3925 85.289 11.3824C85.3294 11.3824 85.3647 11.3824 85.395 11.3824C85.4354 11.3723 85.4757 11.3673 85.5161 11.3673C85.6069 11.3471 85.6725 11.337 85.7129 11.337C85.7634 11.3269 85.8138 11.3118 85.8643 11.2916C85.9047 11.2815 85.9551 11.2664 86.0157 11.2462C86.0662 11.226 86.0964 11.2109 86.1065 11.2008C86.1166 11.1907 86.1318 11.1806 86.152 11.1705L86.1974 10.9888C86.1772 10.9484 86.162 10.9131 86.152 10.8828C86.152 10.8425 86.1419 10.8071 86.1217 10.7769C86.1116 10.7466 86.0864 10.7012 86.046 10.6406C86.0157 10.58 85.9854 10.5296 85.9551 10.4892ZM88.8771 9.8382C88.8872 9.64644 88.9578 9.50513 89.089 9.4143C89.2202 9.31337 89.3615 9.2629 89.5129 9.2629C89.6643 9.2629 89.7955 9.31337 89.9066 9.4143C90.0277 9.50513 90.0832 9.64644 90.0731 9.8382C90.0731 9.89876 90.0681 9.96437 90.058 10.035C90.058 10.0956 90.058 10.1561 90.058 10.2167C90.3809 10.0552 90.7191 9.91895 91.0723 9.80792C91.4357 9.68681 91.794 9.61111 92.1472 9.58083C92.5106 9.55055 92.8588 9.58083 93.1918 9.67167C93.535 9.75241 93.8479 9.9139 94.1305 10.1561C94.2718 10.2873 94.3324 10.4286 94.3122 10.58C94.3021 10.7314 94.2415 10.8626 94.1305 10.9737C94.0296 11.0746 93.8984 11.1402 93.7369 11.1705C93.5754 11.1907 93.4189 11.1402 93.2675 11.0191C93.1565 10.9283 93.0304 10.8626 92.8891 10.8223C92.7578 10.7819 92.6115 10.7668 92.45 10.7769C92.2986 10.7769 92.1422 10.792 91.9807 10.8223C91.8293 10.8526 91.6829 10.8879 91.5416 10.9283C91.0067 11.0998 90.5071 11.3269 90.0428 11.6095C90.063 12.1041 90.0933 12.5986 90.1337 13.0932C90.174 13.507 90.2094 13.936 90.2396 14.3801C90.2699 14.8141 90.3557 15.2279 90.497 15.6215C90.5576 15.8032 90.5424 15.9546 90.4516 16.0757C90.3708 16.2069 90.2548 16.2927 90.1034 16.3331C89.9621 16.3734 89.8107 16.3633 89.6492 16.3028C89.4978 16.2422 89.3918 16.1211 89.3313 15.9394C89.2505 15.7073 89.195 15.4701 89.1647 15.2279C89.1344 14.9857 89.1042 14.7434 89.0739 14.5012C89.0537 14.269 89.0285 14.0369 88.9982 13.8048C88.978 13.5625 88.9578 13.3253 88.9376 13.0932C88.8872 12.5482 88.8518 12.0082 88.8317 11.4733C88.8216 10.9283 88.8367 10.3832 88.8771 9.8382ZM100.898 15.5912C100.555 15.4398 100.282 15.2329 100.08 14.9705C99.8886 14.698 99.7523 14.4003 99.6716 14.0773C99.6009 13.7543 99.5807 13.4212 99.611 13.0781C99.6413 12.7248 99.7119 12.3867 99.823 12.0637C99.9138 11.8114 100.015 11.549 100.126 11.2765C100.247 11.0039 100.388 10.7516 100.55 10.5195C100.711 10.2873 100.903 10.0905 101.125 9.92904C101.347 9.75746 101.609 9.64644 101.912 9.59597C102.225 9.54551 102.538 9.53037 102.851 9.55055C103.174 9.56065 103.492 9.59092 103.805 9.64139C103.946 9.66158 104.082 9.6969 104.213 9.74737C104.345 9.78774 104.476 9.83316 104.607 9.88362C104.617 9.73223 104.683 9.60606 104.804 9.50513C104.935 9.4042 105.071 9.35374 105.213 9.35374C105.384 9.35374 105.52 9.4143 105.621 9.53541C105.732 9.64644 105.798 9.78269 105.818 9.94418C105.869 10.4085 105.889 10.8727 105.879 11.337C105.879 11.8013 105.864 12.2656 105.833 12.7299C105.813 13.1941 105.793 13.6584 105.773 14.1227C105.763 14.587 105.768 15.0513 105.788 15.5155C105.798 15.7073 105.737 15.8537 105.606 15.9546C105.485 16.0454 105.349 16.0908 105.197 16.0908C105.046 16.0908 104.905 16.0454 104.774 15.9546C104.652 15.8537 104.587 15.7073 104.577 15.5155C104.001 15.7578 103.391 15.8991 102.745 15.9394C102.099 15.9697 101.483 15.8537 100.898 15.5912ZM101.004 12.306C100.943 12.4876 100.888 12.6945 100.837 12.9267C100.787 13.1588 100.772 13.3809 100.792 13.5928C100.812 13.8048 100.878 14.0016 100.989 14.1833C101.1 14.3548 101.281 14.476 101.534 14.5466C102.048 14.7081 102.563 14.7535 103.078 14.6829C103.603 14.6122 104.092 14.4305 104.546 14.1378C104.587 13.6433 104.617 13.1639 104.637 12.6996C104.668 12.2353 104.678 11.766 104.668 11.2916C104.496 11.1806 104.319 11.0847 104.138 11.0039C103.966 10.9131 103.774 10.8526 103.562 10.8223C103.35 10.792 103.123 10.7718 102.881 10.7617C102.649 10.7415 102.422 10.7415 102.2 10.7617C102.18 10.7617 102.124 10.7769 102.033 10.8071C101.953 10.8273 101.907 10.8425 101.897 10.8526C101.796 10.903 101.705 10.9838 101.625 11.0948C101.493 11.2765 101.377 11.4733 101.276 11.6852C101.175 11.8871 101.085 12.094 101.004 12.306ZM108.271 4.11545C108.453 4.11545 108.594 4.17601 108.695 4.29713C108.796 4.41825 108.856 4.55955 108.876 4.72104C108.977 5.67987 109.033 6.63871 109.043 7.59755C109.053 8.55639 109.038 9.51523 108.998 10.4741C108.967 11.4329 108.917 12.3917 108.846 13.3506C108.775 14.3094 108.705 15.2632 108.634 16.212C108.614 16.3835 108.548 16.5248 108.437 16.6359C108.336 16.757 108.2 16.8175 108.029 16.8175C107.877 16.8175 107.736 16.757 107.605 16.6359C107.473 16.5248 107.413 16.3835 107.423 16.212C107.494 15.2632 107.564 14.3094 107.635 13.3506C107.716 12.3917 107.771 11.4329 107.802 10.4741C107.842 9.51523 107.857 8.55639 107.847 7.59755C107.837 6.63871 107.781 5.67987 107.68 4.72104C107.66 4.55955 107.716 4.41825 107.847 4.29713C107.978 4.17601 108.119 4.11545 108.271 4.11545ZM111.526 4.11545C111.708 4.11545 111.849 4.17601 111.95 4.29713C112.051 4.41825 112.111 4.55955 112.131 4.72104C112.232 5.67987 112.288 6.63871 112.298 7.59755C112.308 8.55639 112.293 9.51523 112.253 10.4741C112.222 11.4329 112.172 12.3917 112.101 13.3506C112.03 14.3094 111.96 15.2632 111.889 16.212C111.869 16.3835 111.803 16.5248 111.692 16.6359C111.591 16.757 111.455 16.8175 111.284 16.8175C111.132 16.8175 110.991 16.757 110.86 16.6359C110.728 16.5248 110.668 16.3835 110.678 16.212C110.749 15.2632 110.819 14.3094 110.89 13.3506C110.971 12.3917 111.026 11.4329 111.057 10.4741C111.097 9.51523 111.112 8.55639 111.102 7.59755C111.092 6.63871 111.036 5.67987 110.935 4.72104C110.915 4.55955 110.971 4.41825 111.102 4.29713C111.233 4.17601 111.374 4.11545 111.526 4.11545ZM119.943 16.1968C119.802 16.2473 119.646 16.2321 119.474 16.1514C119.313 16.0707 119.222 15.9495 119.202 15.788C119.06 14.8999 118.969 14.0218 118.929 13.1538C118.899 12.2757 118.884 11.3925 118.884 10.5043C118.884 10.3529 118.924 10.2318 119.005 10.141C119.086 10.0502 119.181 9.9896 119.292 9.95932C119.403 9.92904 119.52 9.92399 119.641 9.94418C119.762 9.96437 119.863 10.0148 119.943 10.0956C120.176 9.90381 120.423 9.73727 120.685 9.59597C120.948 9.45467 121.21 9.36383 121.473 9.32346C121.745 9.27299 122.012 9.28813 122.275 9.36888C122.537 9.43953 122.785 9.59597 123.017 9.8382C123.209 10.0401 123.375 10.2571 123.516 10.4892C123.658 10.7113 123.784 10.9484 123.895 11.2008C124.046 10.8172 124.258 10.464 124.531 10.141C124.803 9.81802 125.151 9.60102 125.575 9.48999C125.888 9.40925 126.136 9.42944 126.317 9.55055C126.499 9.66158 126.67 9.8382 126.832 10.0804C127.004 10.3328 127.16 10.5901 127.301 10.8526C127.453 11.115 127.594 11.3824 127.725 11.6549C127.856 11.9275 127.983 12.2 128.104 12.4725C128.225 12.745 128.346 13.0125 128.467 13.2749C128.608 13.5676 128.729 13.8603 128.83 14.153C128.941 14.4356 129.012 14.7384 129.042 15.0613C129.062 15.2329 129.002 15.3793 128.861 15.5004C128.729 15.6114 128.588 15.6669 128.437 15.6669C128.265 15.6669 128.124 15.6114 128.013 15.5004C127.912 15.3793 127.851 15.2329 127.831 15.0613C127.811 14.8191 127.745 14.587 127.634 14.3649C127.533 14.1328 127.432 13.9057 127.332 13.6836C127.221 13.4515 127.109 13.2143 126.998 12.9721C126.898 12.7299 126.792 12.4927 126.681 12.2605C126.57 12.0284 126.448 11.7963 126.317 11.5641C126.196 11.332 126.065 11.1049 125.924 10.8828C125.903 10.8526 125.883 10.8223 125.863 10.792C125.843 10.7617 125.823 10.7314 125.802 10.7012C125.601 10.8122 125.454 10.9182 125.363 11.0191C125.273 11.12 125.187 11.2563 125.106 11.4279C125.035 11.5793 124.975 11.7407 124.924 11.9123C124.884 12.0738 124.849 12.2403 124.818 12.4119C124.758 12.7349 124.712 13.073 124.682 13.4263C124.662 13.6887 124.662 13.941 124.682 14.1833C124.712 14.4255 124.702 14.6778 124.652 14.9402C124.622 15.1017 124.526 15.2228 124.364 15.3036C124.213 15.3843 124.061 15.4045 123.91 15.3641C123.769 15.3238 123.663 15.2531 123.592 15.1522C123.531 15.0412 123.491 14.915 123.471 14.7737C123.431 14.4507 123.385 14.1176 123.335 13.7745C123.284 13.4313 123.219 13.0932 123.138 12.7601C123.057 12.417 122.951 12.089 122.82 11.7761C122.699 11.4531 122.537 11.1553 122.335 10.8828C122.194 10.7012 122.048 10.58 121.896 10.5195C121.755 10.4589 121.578 10.4842 121.367 10.5952C121.134 10.7163 120.907 10.8626 120.685 11.0342C120.463 11.2058 120.266 11.3976 120.095 11.6095C120.105 12.2555 120.125 12.9014 120.155 13.5474C120.196 14.1833 120.266 14.8191 120.367 15.455C120.388 15.6266 120.362 15.783 120.292 15.9243C120.231 16.0555 120.115 16.1463 119.943 16.1968ZM135.401 9.1872C135.542 9.26795 135.638 9.38906 135.689 9.55055C135.739 9.71204 135.714 9.86344 135.613 10.0047C135.361 10.3681 135.169 10.7668 135.038 11.2008C134.916 11.6348 134.775 12.0587 134.614 12.4725C134.442 12.9166 134.25 13.3455 134.038 13.7593C133.836 14.1732 133.619 14.592 133.387 15.0159C133.367 15.0664 133.342 15.1118 133.312 15.1522C133.291 15.1825 133.271 15.2228 133.251 15.2733C133.291 15.4348 133.266 15.5811 133.175 15.7123C133.095 15.8335 132.984 15.9193 132.842 15.9697C132.429 16.6762 132.01 17.3727 131.586 18.059C131.172 18.7554 130.758 19.4569 130.344 20.1634C130.243 20.335 130.112 20.4308 129.951 20.451C129.799 20.4712 129.658 20.4409 129.527 20.3602C129.396 20.2895 129.3 20.1785 129.239 20.0271C129.179 19.8858 129.199 19.7294 129.3 19.5578C129.724 18.8311 130.153 18.1094 130.587 17.3928C131.021 16.6863 131.449 15.9697 131.873 15.243C131.419 14.4255 130.985 13.6029 130.571 12.7753C130.158 11.9376 129.734 11.1049 129.3 10.2773C129.209 10.1057 129.194 9.94923 129.254 9.80792C129.325 9.65653 129.421 9.54551 129.542 9.47485C129.673 9.39411 129.814 9.36383 129.966 9.38402C130.127 9.4042 130.253 9.50009 130.344 9.67167C130.718 10.3984 131.086 11.1251 131.449 11.8518C131.813 12.5684 132.186 13.285 132.57 14.0016C132.943 13.3153 133.276 12.5936 133.569 11.8366C133.72 11.4228 133.862 11.0039 133.993 10.58C134.134 10.146 134.331 9.75241 134.583 9.39916C134.674 9.25785 134.795 9.16702 134.947 9.12665C135.098 9.07618 135.25 9.09637 135.401 9.1872ZM65.3805 42.3602C65.3906 42.552 65.3351 42.6933 65.214 42.7841C65.1029 42.885 64.9717 42.9355 64.8203 42.9355C64.6689 42.9355 64.5276 42.885 64.3964 42.7841C64.2652 42.6933 64.1946 42.552 64.1845 42.3602C64.0734 40.7453 64.0078 39.1355 63.9877 37.5307C63.9675 35.9158 63.9221 34.3009 63.8514 32.686C63.7101 32.464 63.7 32.252 63.8211 32.0502C63.811 31.9391 63.8009 31.8382 63.7908 31.7474C63.7908 31.6464 63.7858 31.5405 63.7757 31.4294C63.7656 31.2478 63.8161 31.1115 63.9271 31.0207C64.0381 30.9197 64.1643 30.8642 64.3056 30.8541C64.457 30.844 64.5983 30.8844 64.7295 30.9752C64.8607 31.056 64.9414 31.1822 64.9717 31.3537C65.1433 31.273 65.3048 31.1973 65.4562 31.1266C65.6177 31.056 65.7842 30.9853 65.9558 30.9147C66.0971 30.8541 66.2535 30.7986 66.4251 30.7482C66.5967 30.6876 66.7733 30.6422 66.955 30.6119C67.1367 30.5816 67.3133 30.5665 67.4849 30.5665C67.6666 30.5665 67.8331 30.5968 67.9845 30.6573C68.2873 30.7784 68.5346 30.9601 68.7263 31.2023C68.9282 31.4446 69.0947 31.712 69.2259 32.0047C69.3471 32.2873 69.4631 32.575 69.5741 32.8677C69.6852 33.1503 69.7457 33.443 69.7558 33.7458C69.7659 34.0587 69.7205 34.3514 69.6196 34.6239C69.5186 34.8964 69.3773 35.1437 69.1957 35.3657C69.0241 35.5878 68.8172 35.7846 68.5749 35.9562C68.3327 36.1277 68.0753 36.2741 67.8028 36.3952C67.5101 36.5264 67.2073 36.6425 66.8944 36.7434C66.5816 36.8443 66.2636 36.91 65.9407 36.9402C65.7994 36.9604 65.6631 36.9554 65.5319 36.9251C65.4108 36.8948 65.2947 36.8544 65.1837 36.804C65.2039 37.7426 65.2241 38.6712 65.2442 39.5897C65.2745 40.5081 65.3199 41.4316 65.3805 42.3602ZM65.0626 32.6557C65.0827 33.12 65.0979 33.5843 65.108 34.0486C65.1181 34.5028 65.1332 34.962 65.1534 35.4263C65.214 35.4666 65.2745 35.507 65.3351 35.5474C65.3956 35.5777 65.4612 35.613 65.5319 35.6534C65.6126 35.7038 65.6782 35.7341 65.7287 35.7442C65.7792 35.7442 65.8599 35.7341 65.9709 35.7139C66.193 35.6635 66.415 35.613 66.6371 35.5625C66.8591 35.502 67.0711 35.4212 67.2729 35.3203C67.4647 35.2295 67.6464 35.1336 67.818 35.0326C67.9895 34.9216 68.146 34.7803 68.2873 34.6087C68.3781 34.4977 68.4488 34.3716 68.4992 34.2303C68.5497 34.0789 68.5648 33.9174 68.5447 33.7458C68.5346 33.5439 68.4841 33.337 68.3933 33.1251C68.3125 32.9131 68.2318 32.7163 68.151 32.5346C68.1006 32.4438 68.0501 32.3529 67.9996 32.2621C67.9593 32.1612 67.9088 32.0703 67.8482 31.9896C67.7574 31.8988 67.6868 31.8433 67.6363 31.8231C67.3537 31.8029 67.1064 31.818 66.8944 31.8685C66.6825 31.9189 66.4705 31.9896 66.2586 32.0804C66.0567 32.1612 65.8549 32.252 65.653 32.3529C65.4511 32.4539 65.2543 32.5548 65.0626 32.6557ZM71.1184 31.8382C71.1285 31.6464 71.1991 31.5051 71.3303 31.4143C71.4615 31.3134 71.6028 31.2629 71.7542 31.2629C71.9056 31.2629 72.0369 31.3134 72.1479 31.4143C72.269 31.5051 72.3245 31.6464 72.3144 31.8382C72.3144 31.8988 72.3094 31.9644 72.2993 32.035C72.2993 32.0956 72.2993 32.1561 72.2993 32.2167C72.6222 32.0552 72.9604 31.9189 73.3136 31.8079C73.677 31.6868 74.0353 31.6111 74.3885 31.5808C74.7519 31.5506 75.1001 31.5808 75.4332 31.6717C75.7763 31.7524 76.0892 31.9139 76.3718 32.1561C76.5131 32.2873 76.5737 32.4286 76.5535 32.58C76.5434 32.7314 76.4828 32.8626 76.3718 32.9737C76.2709 33.0746 76.1397 33.1402 75.9782 33.1705C75.8167 33.1907 75.6602 33.1402 75.5089 33.0191C75.3978 32.9283 75.2717 32.8626 75.1304 32.8223C74.9992 32.7819 74.8528 32.7668 74.6913 32.7769C74.5399 32.7769 74.3835 32.792 74.222 32.8223C74.0706 32.8526 73.9242 32.8879 73.7829 32.9283C73.248 33.0998 72.7484 33.3269 72.2841 33.6095C72.3043 34.1041 72.3346 34.5986 72.375 35.0932C72.4153 35.507 72.4507 35.936 72.4809 36.3801C72.5112 36.8141 72.597 37.2279 72.7383 37.6215C72.7989 37.8032 72.7837 37.9546 72.6929 38.0757C72.6122 38.2069 72.4961 38.2927 72.3447 38.3331C72.2034 38.3734 72.052 38.3633 71.8905 38.3028C71.7391 38.2422 71.6331 38.1211 71.5726 37.9394C71.4918 37.7073 71.4363 37.4701 71.406 37.2279C71.3758 36.9857 71.3455 36.7434 71.3152 36.5012C71.295 36.269 71.2698 36.0369 71.2395 35.8048C71.2193 35.5625 71.1991 35.3253 71.1789 35.0932C71.1285 34.5482 71.0932 34.0082 71.073 33.4733C71.0629 32.9283 71.078 32.3832 71.1184 31.8382ZM80.9439 31.0207C81.2669 30.9803 81.605 30.9702 81.9583 30.9904C82.3116 31.0005 82.6497 31.061 82.9726 31.1721C83.2956 31.273 83.5883 31.4294 83.8507 31.6414C84.1132 31.8533 84.315 32.1309 84.4563 32.4741C84.5573 32.7163 84.6077 32.9636 84.6077 33.2159C84.6178 33.4581 84.5825 33.6953 84.5017 33.9275C84.4311 34.1495 84.3201 34.3665 84.1687 34.5785C84.0274 34.7803 83.8608 34.967 83.6691 35.1386C83.2553 35.5121 82.8011 35.83 82.3065 36.0924C81.8119 36.3548 81.2922 36.5567 80.7471 36.698C80.515 36.7586 80.2728 36.8141 80.0204 36.8645C79.7782 36.9049 79.5309 36.9251 79.2786 36.9251C79.0263 36.9251 78.779 36.8999 78.5368 36.8494C78.2945 36.7888 78.0674 36.693 77.8555 36.5617C77.7041 36.4709 77.6132 36.3498 77.583 36.1984C77.5224 36.0268 77.4568 35.8653 77.3862 35.7139C77.3155 35.5625 77.2449 35.4061 77.1742 35.2446C77.1136 35.0831 77.0632 34.9216 77.0228 34.7601C76.9824 34.5986 76.9622 34.4321 76.9622 34.2605C76.9622 33.9174 77.0329 33.5944 77.1742 33.2916C77.3256 32.9787 77.5275 32.7062 77.7798 32.4741C78.2037 32.0703 78.6932 31.7474 79.2483 31.5051C79.8034 31.2629 80.3686 31.1014 80.9439 31.0207ZM82.6547 32.3227C82.3822 32.2217 82.0895 32.1713 81.7766 32.1713C81.4436 32.1612 81.1105 32.1965 80.7774 32.2773C80.4443 32.3479 80.1264 32.4488 79.8236 32.58C79.541 32.6911 79.2483 32.8475 78.9455 33.0494C78.6528 33.2411 78.4358 33.4783 78.2945 33.7609C78.2138 33.9123 78.1734 34.0688 78.1734 34.2303C78.1835 34.3816 78.2087 34.5381 78.2491 34.6996C78.2996 34.851 78.3601 35.0074 78.4308 35.1689C78.5115 35.3203 78.5822 35.4717 78.6427 35.6231C78.8042 35.6635 78.9052 35.6836 78.9455 35.6836C78.9657 35.6937 78.9909 35.6988 79.0212 35.6988C79.0515 35.6988 79.0767 35.6988 79.0969 35.6988C79.2988 35.719 79.4805 35.7139 79.6419 35.6836C79.753 35.6836 79.8943 35.6635 80.0659 35.6231C80.3283 35.5726 80.5806 35.507 80.8228 35.4263C81.0651 35.3354 81.2871 35.2396 81.489 35.1386C81.7211 35.0276 81.9482 34.9065 82.1703 34.7753C82.3923 34.6441 82.579 34.5078 82.7304 34.3665C82.8313 34.2757 82.9272 34.1798 83.0181 34.0789C83.0685 34.0284 83.1039 33.988 83.124 33.9577C83.1745 33.8871 83.2149 33.8366 83.2452 33.8063C83.2754 33.766 83.3007 33.7206 83.3209 33.6701C83.3612 33.5994 83.3814 33.5439 83.3814 33.5036C83.3915 33.4834 83.3966 33.4581 83.3966 33.4279C83.4066 33.3976 83.4167 33.3723 83.4268 33.3522V33.1856C83.4167 33.1453 83.4117 33.115 83.4117 33.0948C83.4117 33.0746 83.4066 33.0544 83.3966 33.0342C83.3663 32.9636 83.336 32.9131 83.3057 32.8828C83.2855 32.8425 83.2603 32.8021 83.23 32.7617C83.2401 32.7718 83.225 32.7567 83.1846 32.7163C83.1543 32.6759 83.1341 32.6507 83.124 32.6406L83.0029 32.5195C82.9525 32.4892 82.8969 32.4539 82.8364 32.4135C82.7758 32.3731 82.7153 32.3429 82.6547 32.3227ZM81.6404 42.3299C81.489 42.1987 81.4234 42.0574 81.4436 41.906C81.4637 41.7546 81.5293 41.6234 81.6404 41.5124C81.7413 41.4114 81.8725 41.3458 82.034 41.3156C82.1955 41.2954 82.3469 41.3509 82.4882 41.4821C82.8919 41.8354 83.3713 42.118 83.9264 42.3299C84.4715 42.5419 85.0165 42.6226 85.5615 42.5721C85.7634 42.552 85.9602 42.5015 86.152 42.4207C86.3538 42.34 86.5103 42.2138 86.6213 42.0423C86.7626 41.8404 86.8534 41.6234 86.8938 41.3913C86.9443 41.1591 86.9745 40.9219 86.9846 40.6797C86.9947 40.0035 86.914 39.3323 86.7424 38.6661C86.5809 38.0101 86.4245 37.354 86.2731 36.698C86.1015 35.9814 85.9602 35.2597 85.8492 34.533C85.7381 33.8063 85.723 33.0796 85.8037 32.3529C85.8239 32.1814 85.8845 32.0401 85.9854 31.929C86.0863 31.8079 86.2277 31.7474 86.4093 31.7474C86.5607 31.7474 86.702 31.8079 86.8332 31.929C86.9745 32.0401 87.0351 32.1814 87.0149 32.3529C86.9342 33.1705 86.9644 33.9779 87.1057 34.7753C87.2571 35.5726 87.4287 36.37 87.6205 37.1673C87.7113 37.5206 87.7971 37.8839 87.8779 38.2574C87.9687 38.6308 88.0394 39.0043 88.0898 39.3777C88.1504 39.7612 88.1807 40.1397 88.1807 40.5132C88.1907 40.8967 88.1554 41.2701 88.0747 41.6335C88.004 41.9565 87.888 42.2542 87.7265 42.5267C87.5751 42.8093 87.3682 43.0516 87.1057 43.2534C86.8534 43.4452 86.5658 43.5814 86.2428 43.6622C85.9299 43.753 85.617 43.7984 85.3041 43.7984C84.6279 43.7884 83.9719 43.6521 83.336 43.3897C82.7001 43.1273 82.1349 42.774 81.6404 42.3299ZM86.1368 30.0215C86.0258 29.9508 85.945 29.86 85.8946 29.7489C85.8441 29.6379 85.829 29.5219 85.8492 29.4007C85.829 29.1484 85.8794 28.9667 86.0006 28.8557C86.1318 28.7346 86.2781 28.674 86.4396 28.674C86.4901 28.674 86.5355 28.674 86.5759 28.674C86.6263 28.674 86.6768 28.6841 86.7273 28.7043C86.7575 28.7144 86.7828 28.7245 86.803 28.7346C86.8332 28.7447 86.8635 28.7548 86.8938 28.7649C87.0755 28.8254 87.1966 28.9213 87.2571 29.0525C87.2975 29.1131 87.3227 29.1888 87.3328 29.2796C87.353 29.3604 87.348 29.4361 87.3177 29.5067C87.2874 29.5976 87.2571 29.6732 87.2269 29.7338C87.1764 29.865 87.0856 29.9659 86.9543 30.0366C86.8231 30.1072 86.6869 30.1274 86.5456 30.0972C86.3841 30.1173 86.2478 30.0921 86.1368 30.0215ZM89.4827 32.1259C89.6744 31.8634 89.9015 31.6313 90.1639 31.4294C90.4364 31.2276 90.7241 31.0711 91.0269 30.9601C91.3297 30.839 91.6426 30.7784 91.9655 30.7784C92.2885 30.7683 92.6115 30.8289 92.9345 30.9601C93.2474 31.0812 93.53 31.2478 93.7823 31.4597C94.0346 31.6616 94.2314 31.924 94.3727 32.247C94.4838 32.4892 94.5494 32.7516 94.5695 33.0342C94.5897 33.3168 94.514 33.5742 94.3425 33.8063C94.1911 34.0183 94.0043 34.1798 93.7823 34.2908C93.5703 34.4018 93.3382 34.4826 93.0859 34.533C92.8436 34.5835 92.5913 34.6087 92.3289 34.6087C92.0766 34.6087 91.8343 34.6037 91.6022 34.5936C91.3398 34.5835 91.0774 34.5633 90.8149 34.533C90.5626 34.5028 90.3052 34.4725 90.0428 34.4422C90.1236 34.8964 90.2851 35.3001 90.5273 35.6534C90.7695 36.0066 91.0975 36.2741 91.5114 36.4558C91.6224 36.4961 91.7082 36.5264 91.7687 36.5466C91.799 36.5567 91.8242 36.5668 91.8444 36.5769C91.8747 36.5769 91.905 36.5769 91.9353 36.5769C92.016 36.587 92.0816 36.5971 92.1321 36.6072C92.1926 36.6072 92.2481 36.6021 92.2986 36.592C92.3693 36.5819 92.4147 36.5769 92.4349 36.5769C92.4651 36.5668 92.4954 36.5567 92.5257 36.5466C92.6367 36.5163 92.7326 36.481 92.8134 36.4406C92.9042 36.4003 93.0102 36.3346 93.1313 36.2438C93.1918 36.1933 93.2726 36.1176 93.3735 36.0167C93.4745 35.9158 93.5602 35.825 93.6309 35.7442C93.7318 35.6029 93.8529 35.507 93.9942 35.4566C94.1456 35.4061 94.297 35.4263 94.4484 35.5171C94.5796 35.5979 94.6705 35.724 94.7209 35.8956C94.7815 36.0571 94.7613 36.2085 94.6604 36.3498C94.3677 36.7434 94.0195 37.0815 93.6158 37.3641C93.2221 37.6367 92.7679 37.783 92.2532 37.8032C91.8394 37.8234 91.4407 37.7527 91.0572 37.5912C90.6736 37.4197 90.3355 37.1926 90.0428 36.91C89.6795 36.5567 89.3918 36.1479 89.1799 35.6836C88.9679 35.2194 88.8518 34.745 88.8317 34.2605C88.7408 34.1899 88.6702 34.1041 88.6197 34.0032C88.5793 33.8921 88.5642 33.7811 88.5743 33.6701C88.5945 33.5591 88.6348 33.4581 88.6954 33.3673C88.756 33.2664 88.8468 33.2008 88.9679 33.1705C89.0789 32.797 89.2505 32.4488 89.4827 32.1259ZM93.1161 32.4892C93.0051 32.3479 92.8335 32.2217 92.6014 32.1107C92.4096 32.03 92.1825 31.9896 91.9201 31.9896C91.6678 31.9896 91.4508 32.035 91.2691 32.1259C91.037 32.2369 90.8301 32.3933 90.6484 32.5952C90.4667 32.7869 90.3204 33.0039 90.2094 33.2462C90.4516 33.2765 90.6938 33.3067 90.9361 33.337C91.1783 33.3673 91.4205 33.3875 91.6628 33.3976C91.794 33.3976 91.9252 33.3976 92.0564 33.3976C92.1876 33.3976 92.3188 33.3925 92.45 33.3824C92.4904 33.3824 92.5257 33.3824 92.556 33.3824C92.5964 33.3723 92.6367 33.3673 92.6771 33.3673C92.7679 33.3471 92.8335 33.337 92.8739 33.337C92.9244 33.3269 92.9748 33.3118 93.0253 33.2916C93.0657 33.2815 93.1161 33.2664 93.1767 33.2462C93.2272 33.226 93.2575 33.2109 93.2675 33.2008C93.2776 33.1907 93.2928 33.1806 93.313 33.1705L93.3584 32.9888C93.3382 32.9484 93.3231 32.9131 93.313 32.8828C93.313 32.8425 93.3029 32.8071 93.2827 32.7769C93.2726 32.7466 93.2474 32.7012 93.207 32.6406C93.1767 32.58 93.1464 32.5296 93.1161 32.4892ZM100.171 36.8191C100.212 36.9604 100.191 37.1118 100.111 37.2733C100.03 37.4348 99.9088 37.5307 99.7473 37.561C99.2022 37.6518 98.6623 37.6467 98.1273 37.5458C97.5924 37.4348 97.0978 37.2027 96.6437 36.8494C96.1996 36.4961 95.8816 36.047 95.6899 35.502C95.5082 34.9469 95.4779 34.3917 95.599 33.8366C95.7101 33.3421 95.9422 32.9131 96.2954 32.5498C96.6487 32.1864 97.0524 31.9038 97.5066 31.7019C97.9103 31.5102 98.3342 31.3588 98.7783 31.2478C99.2224 31.1367 99.6665 31.1014 100.111 31.1418C100.282 31.162 100.423 31.2276 100.535 31.3386C100.656 31.4395 100.716 31.5758 100.716 31.7474C100.716 31.8988 100.656 32.0401 100.535 32.1713C100.423 32.3025 100.282 32.363 100.111 32.3529C99.7876 32.3227 99.4697 32.3378 99.1568 32.3984C98.8439 32.4589 98.5411 32.5548 98.2485 32.686C98.0769 32.7668 97.9053 32.8526 97.7337 32.9434C97.5722 33.0342 97.4309 33.1352 97.3098 33.2462C97.1786 33.3673 97.0676 33.4884 96.9767 33.6095C96.896 33.7306 96.8354 33.8719 96.7951 34.0334C96.7547 34.1949 96.7395 34.3665 96.7496 34.5482C96.7597 34.7299 96.79 34.9115 96.8405 35.0932C96.901 35.2648 96.9818 35.4263 97.0827 35.5777C97.1836 35.719 97.3048 35.8401 97.4461 35.941C97.7388 36.153 98.0567 36.2993 98.3998 36.3801C98.7531 36.4507 99.0963 36.4558 99.4293 36.3952C99.5908 36.3649 99.7422 36.3851 99.8835 36.4558C100.025 36.5264 100.121 36.6475 100.171 36.8191ZM106.151 32.7163C106.343 32.7163 106.484 32.7769 106.575 32.898C106.676 33.0191 106.727 33.1553 106.727 33.3067C106.727 33.4581 106.676 33.5994 106.575 33.7306C106.484 33.8518 106.343 33.9123 106.151 33.9123C105.909 33.9224 105.667 33.9224 105.425 33.9123C105.192 33.8921 104.96 33.8719 104.728 33.8518C104.738 34.6491 104.723 35.4465 104.683 36.2438C104.652 37.0412 104.572 37.8335 104.441 38.6207C104.42 38.7923 104.33 38.9185 104.168 38.9992C104.007 39.08 103.85 39.0951 103.699 39.0446C103.527 38.9942 103.406 38.8983 103.335 38.757C103.275 38.6258 103.26 38.4744 103.29 38.3028C103.411 37.5357 103.477 36.7687 103.487 36.0016C103.507 35.2345 103.507 34.4624 103.487 33.6852C103.103 33.6247 102.715 33.5641 102.321 33.5036C101.927 33.4329 101.539 33.3723 101.155 33.3219C100.984 33.3017 100.863 33.2109 100.792 33.0494C100.711 32.8778 100.691 32.7213 100.731 32.58C100.782 32.4085 100.878 32.2924 101.019 32.2318C101.16 32.1612 101.312 32.1359 101.473 32.1561C101.806 32.2066 102.139 32.2621 102.472 32.3227C102.805 32.3731 103.144 32.4236 103.487 32.4741C103.477 32.4236 103.472 32.3479 103.472 32.247C103.472 31.3386 103.467 30.4403 103.456 29.5521C103.456 28.6639 103.502 27.7657 103.593 26.8573C103.613 26.6958 103.673 26.5545 103.774 26.4334C103.885 26.3123 104.027 26.2517 104.198 26.2517C104.35 26.2517 104.491 26.3123 104.622 26.4334C104.764 26.5545 104.824 26.6958 104.804 26.8573C104.703 27.8262 104.652 28.7901 104.652 29.7489C104.663 30.6977 104.678 31.6616 104.698 32.6406C104.94 32.6608 105.182 32.681 105.425 32.7012C105.667 32.7113 105.909 32.7163 106.151 32.7163ZM108.15 34.639C107.887 34.4473 107.701 34.2101 107.59 33.9275C107.479 33.6348 107.473 33.3269 107.574 33.0039C107.675 32.7113 107.832 32.4488 108.044 32.2167C108.256 31.9846 108.498 31.7978 108.77 31.6565C109.073 31.495 109.396 31.3689 109.739 31.278C110.083 31.1872 110.431 31.1367 110.784 31.1266C111.137 31.1166 111.485 31.1519 111.829 31.2326C112.182 31.3033 112.515 31.4193 112.828 31.5808C112.999 31.6717 113.095 31.7928 113.115 31.9442C113.136 32.0956 113.105 32.2369 113.025 32.3681C112.954 32.4993 112.843 32.5952 112.692 32.6557C112.54 32.7163 112.379 32.7012 112.207 32.6103C111.965 32.4791 111.692 32.3933 111.39 32.3529C111.087 32.3126 110.779 32.3126 110.466 32.3529C110.163 32.3832 109.876 32.4589 109.603 32.58C109.331 32.7012 109.104 32.8576 108.922 33.0494C108.871 33.0998 108.836 33.1352 108.816 33.1553C108.806 33.1755 108.786 33.2209 108.755 33.2916L108.725 33.4581C108.755 33.549 108.781 33.6045 108.801 33.6247C109.003 33.7559 109.209 33.8417 109.421 33.882C109.643 33.9123 109.866 33.9325 110.088 33.9426C110.4 33.9628 110.718 33.983 111.041 34.0032C111.374 34.0133 111.692 34.0536 111.995 34.1243C112.308 34.1949 112.596 34.311 112.858 34.4725C113.121 34.634 113.343 34.8712 113.524 35.184C113.726 35.5373 113.817 35.9057 113.797 36.2892C113.787 36.6627 113.64 37.0008 113.358 37.3036C113.075 37.6064 112.747 37.8183 112.374 37.9394C112 38.0505 111.622 38.1312 111.238 38.1817C110.895 38.222 110.537 38.2321 110.163 38.212C109.8 38.1918 109.447 38.1312 109.104 38.0303C108.77 37.9394 108.458 37.7981 108.165 37.6064C107.872 37.4045 107.63 37.1421 107.438 36.8191C107.347 36.6576 107.332 36.5062 107.393 36.3649C107.453 36.2135 107.544 36.1025 107.665 36.0319C107.796 35.9511 107.938 35.9208 108.089 35.941C108.251 35.9612 108.382 36.052 108.483 36.2135C108.624 36.4457 108.821 36.6223 109.073 36.7434C109.326 36.8645 109.598 36.9503 109.891 37.0008C110.194 37.0412 110.496 37.0513 110.799 37.0311C111.102 37.0008 111.374 36.9604 111.617 36.91C111.748 36.8797 111.879 36.8393 112.01 36.7888C112.152 36.7283 112.268 36.6576 112.359 36.5769C112.459 36.4961 112.53 36.4053 112.57 36.3044C112.611 36.1933 112.606 36.0722 112.555 35.941C112.454 35.6887 112.283 35.507 112.041 35.396C111.808 35.285 111.561 35.2194 111.299 35.1992C111.036 35.179 110.769 35.1689 110.496 35.1689C110.224 35.1689 109.951 35.1588 109.679 35.1386C109.406 35.1083 109.139 35.0579 108.876 34.9872C108.614 34.9166 108.372 34.8005 108.15 34.639Z" fill="#5B5C5E"/>
<g clip-path="url(#clip0_421_6761)">
<path d="M82.6219 50.1823C81.3738 50.7971 78.018 59.1862 76.7499 61.9415C74.4995 66.8339 73.2492 72.1162 71.2942 77.1239C70.1402 80.0793 68.7776 86.2508 65.2939 87.2249C63.2653 87.7918 61.8612 86.0699 61.4001 84.2695C60.7225 81.6256 62.1676 79.7666 62.6893 77.3375C63.0581 75.6211 63.1677 70.7303 60.0699 72.3402C58.0014 73.4148 57.4299 76.3873 56.8036 78.3893C55.4485 82.7228 52.4655 99.9378 44.3372 95.4963C42.0157 94.2274 41.8187 88.318 38.2746 89.395C34.6809 90.4877 35.6906 98.6296 35.485 101.417C35.1385 106.121 35.3202 110.9 34.4865 115.559C32.4774 126.777 29.1227 137.92 23.3722 147.759" stroke="#5B5C5E" stroke-width="1.5" stroke-miterlimit="10" stroke-linecap="round" stroke-linejoin="round"/>
<path d="M18.7694 140.983C21.3669 144.519 20.3698 148.725 22.143 152.529C24.234 150.103 28.6944 145.373 31.9425 144.466" stroke="#5B5C5E" stroke-width="1.5" stroke-miterlimit="10" stroke-linecap="round" stroke-linejoin="round"/>
</g>
<defs>
<clipPath id="clip0_421_6761">
<rect width="125" height="30" fill="white" transform="translate(95.1918 54.8967) rotate(124.279)"/>
</clipPath>
</defs>
</svg>
