<svg width="152" height="159" viewBox="0 0 152 159" fill="none" xmlns="http://www.w3.org/2000/svg">
<path d="M54.8055 15.6972C54.8055 15.889 54.7399 16.0303 54.6087 16.1211C54.4876 16.222 54.3513 16.2725 54.1999 16.2725C54.0485 16.2725 53.9072 16.222 53.776 16.1211C53.6549 16.0303 53.5944 15.889 53.5944 15.6972C53.5944 14.0823 53.6145 12.4775 53.6549 10.8828C53.6953 9.27804 53.7912 7.67325 53.9426 6.06846C53.9627 5.89687 54.0233 5.76062 54.1242 5.65969C54.2353 5.55876 54.3513 5.50325 54.4724 5.49315C54.6037 5.47297 54.7298 5.4982 54.8509 5.56885C54.9821 5.62941 55.078 5.74043 55.1386 5.90192C55.3404 6.47722 55.5272 7.05757 55.6988 7.64297C55.8703 8.21827 56.0369 8.79862 56.1984 9.38402C56.3699 9.96941 56.5415 10.5548 56.7131 11.1402C56.8948 11.7155 57.0916 12.2858 57.3035 12.851C57.8284 11.5288 58.3028 10.2016 58.7267 8.86927C59.1607 7.53699 59.5089 6.16939 59.7713 4.76646C59.8016 4.61506 59.8722 4.50404 59.9832 4.43339C60.0943 4.36273 60.2154 4.32741 60.3466 4.32741C60.4879 4.32741 60.6141 4.36273 60.7251 4.43339C60.8361 4.50404 60.9068 4.61506 60.937 4.76646C61.0178 5.22064 61.043 5.66978 61.0127 6.11388C60.9925 6.54788 60.9825 6.99197 60.9825 7.44616C60.9825 7.93062 61.0077 8.40499 61.0582 8.86927C61.1187 9.33355 61.1692 9.80288 61.2095 10.2773C61.2903 11.226 61.3508 12.1747 61.3912 13.1235C61.4316 14.0722 61.4669 15.021 61.4972 15.9697C61.4972 16.1716 61.4366 16.3179 61.3155 16.4088C61.1944 16.5097 61.0582 16.5602 60.9068 16.5602C60.7554 16.5602 60.6141 16.5097 60.4828 16.4088C60.3516 16.3179 60.286 16.1716 60.286 15.9697C60.2658 15.021 60.2305 14.0722 60.1801 13.1235C60.1397 12.1747 60.0791 11.226 59.9984 10.2773C59.9782 10.1057 59.958 9.92904 59.9378 9.74737C59.9277 9.56569 59.9126 9.38906 59.8924 9.21748C59.5997 10.1359 59.2818 11.0393 58.9386 11.9275C58.6055 12.8156 58.2573 13.7038 57.894 14.592C57.8435 14.7131 57.7678 14.8191 57.6669 14.91C57.5761 14.9907 57.46 15.0311 57.3187 15.0311C57.2178 15.0311 57.1168 15.0058 57.0159 14.9554C56.915 14.8948 56.8393 14.8191 56.7888 14.7283C56.3851 13.8401 56.0419 12.9368 55.7593 12.0183C55.4767 11.0998 55.1991 10.1713 54.9266 9.23262C54.8762 10.3126 54.8408 11.3925 54.8207 12.4725C54.8106 13.5423 54.8055 14.6173 54.8055 15.6972ZM66.8717 9.02067C67.1947 8.9803 67.5328 8.9702 67.8861 8.99039C68.2393 9.00048 68.5775 9.06104 68.9004 9.17206C69.2234 9.27299 69.5161 9.42944 69.7785 9.64139C70.0409 9.85334 70.2428 10.1309 70.3841 10.4741C70.485 10.7163 70.5355 10.9636 70.5355 11.2159C70.5456 11.4581 70.5103 11.6953 70.4295 11.9275C70.3589 12.1495 70.2479 12.3665 70.0965 12.5785C69.9552 12.7803 69.7886 12.967 69.5969 13.1386C69.183 13.5121 68.7289 13.83 68.2343 14.0924C67.7397 14.3548 67.2199 14.5567 66.6749 14.698C66.4428 14.7586 66.2005 14.8141 65.9482 14.8645C65.706 14.9049 65.4587 14.9251 65.2064 14.9251C64.9541 14.9251 64.7068 14.8999 64.4645 14.8494C64.2223 14.7888 63.9952 14.693 63.7833 14.5617C63.6319 14.4709 63.541 14.3498 63.5108 14.1984C63.4502 14.0268 63.3846 13.8653 63.3139 13.7139C63.2433 13.5625 63.1726 13.4061 63.102 13.2446C63.0414 13.0831 62.991 12.9216 62.9506 12.7601C62.9102 12.5986 62.89 12.4321 62.89 12.2605C62.89 11.9174 62.9607 11.5944 63.102 11.2916C63.2534 10.9787 63.4552 10.7062 63.7076 10.4741C64.1315 10.0703 64.621 9.74737 65.1761 9.50513C65.7312 9.2629 66.2964 9.10141 66.8717 9.02067ZM68.5825 10.3227C68.31 10.2217 68.0173 10.1713 67.7044 10.1713C67.3713 10.1612 67.0383 10.1965 66.7052 10.2773C66.3721 10.3479 66.0542 10.4488 65.7514 10.58C65.4688 10.6911 65.1761 10.8475 64.8733 11.0494C64.5806 11.2411 64.3636 11.4783 64.2223 11.7609C64.1416 11.9123 64.1012 12.0688 64.1012 12.2303C64.1113 12.3816 64.1365 12.5381 64.1769 12.6996C64.2274 12.851 64.2879 13.0074 64.3586 13.1689C64.4393 13.3203 64.51 13.4717 64.5705 13.6231C64.732 13.6635 64.8329 13.6836 64.8733 13.6836C64.8935 13.6937 64.9187 13.6988 64.949 13.6988C64.9793 13.6988 65.0045 13.6988 65.0247 13.6988C65.2266 13.719 65.4082 13.7139 65.5697 13.6836C65.6808 13.6836 65.8221 13.6635 65.9936 13.6231C66.2561 13.5726 66.5084 13.507 66.7506 13.4263C66.9929 13.3354 67.2149 13.2396 67.4168 13.1386C67.6489 13.0276 67.876 12.9065 68.098 12.7753C68.3201 12.6441 68.5068 12.5078 68.6582 12.3665C68.7591 12.2757 68.855 12.1798 68.9459 12.0789C68.9963 12.0284 69.0316 11.988 69.0518 11.9577C69.1023 11.8871 69.1427 11.8366 69.1729 11.8063C69.2032 11.766 69.2285 11.7206 69.2486 11.6701C69.289 11.5994 69.3092 11.5439 69.3092 11.5036C69.3193 11.4834 69.3243 11.4581 69.3243 11.4279C69.3344 11.3976 69.3445 11.3723 69.3546 11.3522V11.1856C69.3445 11.1453 69.3395 11.115 69.3395 11.0948C69.3395 11.0746 69.3344 11.0544 69.3243 11.0342C69.2941 10.9636 69.2638 10.9131 69.2335 10.8828C69.2133 10.8425 69.1881 10.8021 69.1578 10.7617C69.1679 10.7718 69.1528 10.7567 69.1124 10.7163C69.0821 10.6759 69.0619 10.6507 69.0518 10.6406L68.9307 10.5195C68.8802 10.4892 68.8247 10.4539 68.7642 10.4135C68.7036 10.3731 68.6431 10.3429 68.5825 10.3227ZM71.671 9.8382C71.6811 9.64644 71.7517 9.50513 71.8829 9.4143C72.0141 9.31337 72.1554 9.2629 72.3068 9.2629C72.4582 9.2629 72.5894 9.31337 72.7005 9.4143C72.8216 9.50513 72.8771 9.64644 72.867 9.8382C72.867 9.89876 72.862 9.96437 72.8519 10.035C72.8519 10.0956 72.8519 10.1561 72.8519 10.2167C73.1748 10.0552 73.513 9.91895 73.8662 9.80792C74.2296 9.68681 74.5879 9.61111 74.9411 9.58083C75.3045 9.55055 75.6527 9.58083 75.9857 9.67167C76.3289 9.75241 76.6418 9.9139 76.9244 10.1561C77.0657 10.2873 77.1263 10.4286 77.1061 10.58C77.096 10.7314 77.0354 10.8626 76.9244 10.9737C76.8235 11.0746 76.6923 11.1402 76.5308 11.1705C76.3693 11.1907 76.2128 11.1402 76.0614 11.0191C75.9504 10.9283 75.8243 10.8626 75.683 10.8223C75.5517 10.7819 75.4054 10.7668 75.2439 10.7769C75.0925 10.7769 74.9361 10.792 74.7746 10.8223C74.6232 10.8526 74.4768 10.8879 74.3355 10.9283C73.8006 11.0998 73.301 11.3269 72.8367 11.6095C72.8569 12.1041 72.8872 12.5986 72.9276 13.0932C72.9679 13.507 73.0033 13.936 73.0335 14.3801C73.0638 14.8141 73.1496 15.2279 73.2909 15.6215C73.3515 15.8032 73.3363 15.9546 73.2455 16.0757C73.1647 16.2069 73.0487 16.2927 72.8973 16.3331C72.756 16.3734 72.6046 16.3633 72.4431 16.3028C72.2917 16.2422 72.1857 16.1211 72.1252 15.9394C72.0444 15.7073 71.9889 15.4701 71.9586 15.2279C71.9283 14.9857 71.8981 14.7434 71.8678 14.5012C71.8476 14.269 71.8224 14.0369 71.7921 13.8048C71.7719 13.5625 71.7517 13.3253 71.7315 13.0932C71.6811 12.5482 71.6457 12.0082 71.6256 11.4733C71.6155 10.9283 71.6306 10.3832 71.671 9.8382ZM78.2567 10.1259C78.4484 9.86344 78.6755 9.6313 78.938 9.42944C79.2105 9.22758 79.4981 9.07113 79.8009 8.96011C80.1037 8.83899 80.4166 8.77844 80.7396 8.77844C81.0625 8.76834 81.3855 8.8289 81.7085 8.96011C82.0214 9.08123 82.304 9.24776 82.5563 9.45972C82.8086 9.66158 83.0054 9.92399 83.1468 10.247C83.2578 10.4892 83.3234 10.7516 83.3436 11.0342C83.3638 11.3168 83.2881 11.5742 83.1165 11.8063C82.9651 12.0183 82.7784 12.1798 82.5563 12.2908C82.3444 12.4018 82.1122 12.4826 81.8599 12.533C81.6177 12.5835 81.3653 12.6087 81.1029 12.6087C80.8506 12.6087 80.6084 12.6037 80.3762 12.5936C80.1138 12.5835 79.8514 12.5633 79.589 12.533C79.3366 12.5028 79.0793 12.4725 78.8168 12.4422C78.8976 12.8964 79.0591 13.3001 79.3013 13.6534C79.5435 14.0066 79.8716 14.2741 80.2854 14.4558C80.3964 14.4961 80.4822 14.5264 80.5427 14.5466C80.573 14.5567 80.5983 14.5668 80.6184 14.5769C80.6487 14.5769 80.679 14.5769 80.7093 14.5769C80.79 14.587 80.8556 14.5971 80.9061 14.6072C80.9667 14.6072 81.0222 14.6021 81.0726 14.592C81.1433 14.5819 81.1887 14.5769 81.2089 14.5769C81.2392 14.5668 81.2694 14.5567 81.2997 14.5466C81.4108 14.5163 81.5066 14.481 81.5874 14.4406C81.6782 14.4003 81.7842 14.3346 81.9053 14.2438C81.9659 14.1933 82.0466 14.1176 82.1475 14.0167C82.2485 13.9158 82.3343 13.825 82.4049 13.7442C82.5058 13.6029 82.627 13.507 82.7683 13.4566C82.9197 13.4061 83.0711 13.4263 83.2224 13.5171C83.3537 13.5979 83.4445 13.724 83.495 13.8956C83.5555 14.0571 83.5353 14.2085 83.4344 14.3498C83.1417 14.7434 82.7935 15.0815 82.3898 15.3641C81.9961 15.6367 81.542 15.783 81.0272 15.8032C80.6134 15.8234 80.2147 15.7527 79.8312 15.5912C79.4477 15.4197 79.1095 15.1926 78.8168 14.91C78.4535 14.5567 78.1658 14.1479 77.9539 13.6836C77.7419 13.2194 77.6259 12.745 77.6057 12.2605C77.5148 12.1899 77.4442 12.1041 77.3937 12.0032C77.3534 11.8921 77.3382 11.7811 77.3483 11.6701C77.3685 11.5591 77.4089 11.4581 77.4694 11.3673C77.53 11.2664 77.6208 11.2008 77.7419 11.1705C77.853 10.797 78.0245 10.4488 78.2567 10.1259ZM81.8902 10.4892C81.7791 10.3479 81.6076 10.2217 81.3754 10.1107C81.1837 10.03 80.9566 9.9896 80.6941 9.9896C80.4418 9.9896 80.2248 10.035 80.0431 10.1259C79.811 10.2369 79.6041 10.3933 79.4224 10.5952C79.2407 10.7869 79.0944 11.0039 78.9834 11.2462C79.2256 11.2765 79.4678 11.3067 79.7101 11.337C79.9523 11.3673 80.1945 11.3875 80.4368 11.3976C80.568 11.3976 80.6992 11.3976 80.8304 11.3976C80.9616 11.3976 81.0928 11.3925 81.224 11.3824C81.2644 11.3824 81.2997 11.3824 81.33 11.3824C81.3704 11.3723 81.4108 11.3673 81.4511 11.3673C81.542 11.3471 81.6076 11.337 81.6479 11.337C81.6984 11.3269 81.7489 11.3118 81.7993 11.2916C81.8397 11.2815 81.8902 11.2664 81.9507 11.2462C82.0012 11.226 82.0315 11.2109 82.0416 11.2008C82.0517 11.1907 82.0668 11.1806 82.087 11.1705L82.1324 10.9888C82.1122 10.9484 82.0971 10.9131 82.087 10.8828C82.087 10.8425 82.0769 10.8071 82.0567 10.7769C82.0466 10.7466 82.0214 10.7012 81.981 10.6406C81.9507 10.58 81.9204 10.5296 81.8902 10.4892ZM93.0934 9.02067C93.4164 8.9803 93.7545 8.9702 94.1078 8.99039C94.461 9.00048 94.7992 9.06104 95.1221 9.17206C95.4451 9.27299 95.7378 9.42944 96.0002 9.64139C96.2626 9.85334 96.4645 10.1309 96.6058 10.4741C96.7067 10.7163 96.7572 10.9636 96.7572 11.2159C96.7673 11.4581 96.732 11.6953 96.6512 11.9275C96.5806 12.1495 96.4696 12.3665 96.3182 12.5785C96.1769 12.7803 96.0103 12.967 95.8186 13.1386C95.4047 13.5121 94.9506 13.83 94.456 14.0924C93.9614 14.3548 93.4416 14.5567 92.8966 14.698C92.6645 14.7586 92.4222 14.8141 92.1699 14.8645C91.9277 14.9049 91.6804 14.9251 91.4281 14.9251C91.1758 14.9251 90.9285 14.8999 90.6862 14.8494C90.444 14.7888 90.2169 14.693 90.005 14.5617C89.8536 14.4709 89.7627 14.3498 89.7325 14.1984C89.6719 14.0268 89.6063 13.8653 89.5356 13.7139C89.465 13.5625 89.3943 13.4061 89.3237 13.2446C89.2631 13.0831 89.2127 12.9216 89.1723 12.7601C89.1319 12.5986 89.1117 12.4321 89.1117 12.2605C89.1117 11.9174 89.1824 11.5944 89.3237 11.2916C89.4751 10.9787 89.6769 10.7062 89.9293 10.4741C90.3532 10.0703 90.8427 9.74737 91.3978 9.50513C91.9529 9.2629 92.5181 9.10141 93.0934 9.02067ZM94.8042 10.3227C94.5317 10.2217 94.239 10.1713 93.9261 10.1713C93.593 10.1612 93.26 10.1965 92.9269 10.2773C92.5938 10.3479 92.2759 10.4488 91.9731 10.58C91.6905 10.6911 91.3978 10.8475 91.095 11.0494C90.8023 11.2411 90.5853 11.4783 90.444 11.7609C90.3633 11.9123 90.3229 12.0688 90.3229 12.2303C90.333 12.3816 90.3582 12.5381 90.3986 12.6996C90.4491 12.851 90.5096 13.0074 90.5803 13.1689C90.661 13.3203 90.7317 13.4717 90.7922 13.6231C90.9537 13.6635 91.0546 13.6836 91.095 13.6836C91.1152 13.6937 91.1404 13.6988 91.1707 13.6988C91.201 13.6988 91.2262 13.6988 91.2464 13.6988C91.4483 13.719 91.6299 13.7139 91.7914 13.6836C91.9025 13.6836 92.0438 13.6635 92.2153 13.6231C92.4778 13.5726 92.7301 13.507 92.9723 13.4263C93.2146 13.3354 93.4366 13.2396 93.6385 13.1386C93.8706 13.0276 94.0977 12.9065 94.3197 12.7753C94.5418 12.6441 94.7285 12.5078 94.8799 12.3665C94.9808 12.2757 95.0767 12.1798 95.1676 12.0789C95.218 12.0284 95.2533 11.988 95.2735 11.9577C95.324 11.8871 95.3644 11.8366 95.3946 11.8063C95.4249 11.766 95.4502 11.7206 95.4703 11.6701C95.5107 11.5994 95.5309 11.5439 95.5309 11.5036C95.541 11.4834 95.546 11.4581 95.546 11.4279C95.5561 11.3976 95.5662 11.3723 95.5763 11.3522V11.1856C95.5662 11.1453 95.5612 11.115 95.5612 11.0948C95.5612 11.0746 95.5561 11.0544 95.546 11.0342C95.5158 10.9636 95.4855 10.9131 95.4552 10.8828C95.435 10.8425 95.4098 10.8021 95.3795 10.7617C95.3896 10.7718 95.3745 10.7567 95.3341 10.7163C95.3038 10.6759 95.2836 10.6507 95.2735 10.6406L95.1524 10.5195C95.1019 10.4892 95.0464 10.4539 94.9859 10.4135C94.9253 10.3731 94.8648 10.3429 94.8042 10.3227ZM98.3771 7.1585C98.4781 6.51255 98.7052 5.91706 99.0584 5.37204C99.4218 4.82701 99.8608 4.35769 100.376 3.96406C100.668 3.73192 100.976 3.58557 101.299 3.52501C101.622 3.46445 101.955 3.53006 102.298 3.72183C102.561 3.87322 102.823 4.03471 103.086 4.20629C103.358 4.37787 103.57 4.59992 103.721 4.87243C103.822 5.04401 103.843 5.2055 103.782 5.3569C103.721 5.4982 103.626 5.60922 103.494 5.68997C103.363 5.76062 103.217 5.78585 103.055 5.76567C102.904 5.74548 102.783 5.6496 102.692 5.47801C102.641 5.38718 102.571 5.31148 102.48 5.25092C102.389 5.18027 102.303 5.11971 102.223 5.06925C102.132 5.01878 102.031 4.95318 101.92 4.87243C101.809 4.79169 101.698 4.74122 101.587 4.72104C101.496 4.69076 101.405 4.70085 101.314 4.75132C101.223 4.79169 101.133 4.85225 101.042 4.93299C100.961 5.00364 100.88 5.08439 100.799 5.17522C100.729 5.25597 100.663 5.32662 100.603 5.38718C100.239 5.77071 99.9617 6.18453 99.77 6.62862C99.5883 7.07271 99.5025 7.56223 99.5126 8.09716C99.5227 8.46051 99.553 8.82385 99.6034 9.1872C99.8961 9.16702 100.189 9.14683 100.482 9.12665C100.784 9.10646 101.082 9.08627 101.375 9.06609C101.546 9.0459 101.688 9.10141 101.799 9.23262C101.92 9.36383 101.98 9.51018 101.98 9.67167C101.98 9.84325 101.92 9.98455 101.799 10.0956C101.688 10.1965 101.546 10.252 101.375 10.2621C101.112 10.2823 100.845 10.3025 100.572 10.3227C100.31 10.3429 100.048 10.363 99.7851 10.3832C99.8154 10.5548 99.8457 10.7264 99.8759 10.898C99.9062 11.0696 99.9365 11.2411 99.9668 11.4127C100.088 12.1293 100.209 12.8358 100.33 13.5323C100.461 14.2287 100.557 14.9402 100.618 15.6669C100.638 15.8385 100.582 15.9798 100.451 16.0908C100.32 16.212 100.174 16.2725 100.012 16.2725C99.8406 16.2725 99.6993 16.212 99.5883 16.0908C99.4874 15.9798 99.4268 15.8385 99.4066 15.6669C99.3461 14.8595 99.2401 14.0672 99.0887 13.29C98.9373 12.5028 98.796 11.7155 98.6648 10.9283C98.6446 10.8475 98.6295 10.7668 98.6194 10.686C98.6194 10.6053 98.6093 10.5245 98.5891 10.4438C98.2964 10.464 97.9986 10.4791 97.6959 10.4892C97.4032 10.4993 97.1054 10.5043 96.8026 10.5043C96.6109 10.5043 96.4696 10.4438 96.3787 10.3227C96.2778 10.1915 96.2273 10.0502 96.2273 9.89876C96.2273 9.74737 96.2778 9.61111 96.3787 9.48999C96.4696 9.35878 96.6109 9.29318 96.8026 9.29318C97.3376 9.29318 97.8725 9.27804 98.4074 9.24776C98.3569 8.89451 98.3267 8.5463 98.3166 8.20313C98.3065 7.85997 98.3267 7.51176 98.3771 7.1585ZM108.808 16.1968C108.667 16.2473 108.511 16.2321 108.339 16.1514C108.177 16.0707 108.087 15.9495 108.066 15.788C107.925 14.8999 107.834 14.0218 107.794 13.1538C107.764 12.2757 107.749 11.3925 107.749 10.5043C107.749 10.3529 107.789 10.2318 107.87 10.141C107.95 10.0502 108.046 9.9896 108.157 9.95932C108.268 9.92904 108.384 9.92399 108.505 9.94418C108.627 9.96437 108.728 10.0148 108.808 10.0956C109.04 9.90381 109.288 9.73727 109.55 9.59597C109.813 9.45467 110.075 9.36383 110.337 9.32346C110.61 9.27299 110.877 9.28813 111.14 9.36888C111.402 9.43953 111.649 9.59597 111.882 9.8382C112.073 10.0401 112.24 10.2571 112.381 10.4892C112.523 10.7113 112.649 10.9484 112.76 11.2008C112.911 10.8172 113.123 10.464 113.396 10.141C113.668 9.81802 114.016 9.60102 114.44 9.48999C114.753 9.40925 115 9.42944 115.182 9.55055C115.364 9.66158 115.535 9.8382 115.697 10.0804C115.868 10.3328 116.025 10.5901 116.166 10.8526C116.318 11.115 116.459 11.3824 116.59 11.6549C116.721 11.9275 116.847 12.2 116.969 12.4725C117.09 12.745 117.211 13.0125 117.332 13.2749C117.473 13.5676 117.594 13.8603 117.695 14.153C117.806 14.4356 117.877 14.7384 117.907 15.0613C117.927 15.2329 117.867 15.3793 117.725 15.5004C117.594 15.6114 117.453 15.6669 117.302 15.6669C117.13 15.6669 116.989 15.6114 116.878 15.5004C116.777 15.3793 116.716 15.2329 116.696 15.0613C116.676 14.8191 116.61 14.587 116.499 14.3649C116.398 14.1328 116.297 13.9057 116.196 13.6836C116.085 13.4515 115.974 13.2143 115.863 12.9721C115.762 12.7299 115.656 12.4927 115.545 12.2605C115.434 12.0284 115.313 11.7963 115.182 11.5641C115.061 11.332 114.93 11.1049 114.788 10.8828C114.768 10.8526 114.748 10.8223 114.728 10.792C114.708 10.7617 114.687 10.7314 114.667 10.7012C114.465 10.8122 114.319 10.9182 114.228 11.0191C114.137 11.12 114.052 11.2563 113.971 11.4279C113.9 11.5793 113.84 11.7407 113.789 11.9123C113.749 12.0738 113.713 12.2403 113.683 12.4119C113.623 12.7349 113.577 13.073 113.547 13.4263C113.527 13.6887 113.527 13.941 113.547 14.1833C113.577 14.4255 113.567 14.6778 113.517 14.9402C113.486 15.1017 113.391 15.2228 113.229 15.3036C113.078 15.3843 112.926 15.4045 112.775 15.3641C112.634 15.3238 112.528 15.2531 112.457 15.1522C112.396 15.0412 112.356 14.915 112.336 14.7737C112.295 14.4507 112.25 14.1176 112.2 13.7745C112.149 13.4313 112.083 13.0932 112.003 12.7601C111.922 12.417 111.816 12.089 111.685 11.7761C111.564 11.4531 111.402 11.1553 111.2 10.8828C111.059 10.7012 110.913 10.58 110.761 10.5195C110.62 10.4589 110.443 10.4842 110.231 10.5952C109.999 10.7163 109.772 10.8626 109.55 11.0342C109.328 11.2058 109.131 11.3976 108.96 11.6095C108.97 12.2555 108.99 12.9014 109.02 13.5474C109.061 14.1833 109.131 14.8191 109.232 15.455C109.252 15.6266 109.227 15.783 109.156 15.9243C109.096 16.0555 108.98 16.1463 108.808 16.1968ZM124.266 9.1872C124.407 9.26795 124.503 9.38906 124.553 9.55055C124.604 9.71204 124.579 9.86344 124.478 10.0047C124.225 10.3681 124.034 10.7668 123.902 11.2008C123.781 11.6348 123.64 12.0587 123.479 12.4725C123.307 12.9166 123.115 13.3455 122.903 13.7593C122.701 14.1732 122.484 14.592 122.252 15.0159C122.232 15.0664 122.207 15.1118 122.176 15.1522C122.156 15.1825 122.136 15.2228 122.116 15.2733C122.156 15.4348 122.131 15.5811 122.04 15.7123C121.959 15.8335 121.848 15.9193 121.707 15.9697C121.293 16.6762 120.874 17.3727 120.451 18.059C120.037 18.7554 119.623 19.4569 119.209 20.1634C119.108 20.335 118.977 20.4308 118.816 20.451C118.664 20.4712 118.523 20.4409 118.392 20.3602C118.26 20.2895 118.165 20.1785 118.104 20.0271C118.043 19.8858 118.064 19.7294 118.165 19.5578C118.588 18.8311 119.017 18.1094 119.451 17.3928C119.885 16.6863 120.314 15.9697 120.738 15.243C120.284 14.4255 119.85 13.6029 119.436 12.7753C119.022 11.9376 118.599 11.1049 118.165 10.2773C118.074 10.1057 118.059 9.94923 118.119 9.80792C118.19 9.65653 118.286 9.54551 118.407 9.47485C118.538 9.39411 118.679 9.36383 118.831 9.38402C118.992 9.4042 119.118 9.50009 119.209 9.67167C119.583 10.3984 119.951 11.1251 120.314 11.8518C120.678 12.5684 121.051 13.285 121.435 14.0016C121.808 13.3153 122.141 12.5936 122.434 11.8366C122.585 11.4228 122.727 11.0039 122.858 10.58C122.999 10.146 123.196 9.75241 123.448 9.39916C123.539 9.25785 123.66 9.16702 123.812 9.12665C123.963 9.07618 124.114 9.09637 124.266 9.1872ZM61.3761 42.3602C61.3862 42.552 61.3307 42.6933 61.2095 42.7841C61.0985 42.885 60.9673 42.9355 60.8159 42.9355C60.6645 42.9355 60.5232 42.885 60.392 42.7841C60.2608 42.6933 60.1901 42.552 60.1801 42.3602C60.069 40.7453 60.0034 39.1355 59.9832 37.5307C59.9631 35.9158 59.9176 34.3009 59.847 32.686C59.7057 32.464 59.6956 32.252 59.8167 32.0502C59.8066 31.9391 59.7965 31.8382 59.7864 31.7474C59.7864 31.6464 59.7814 31.5405 59.7713 31.4294C59.7612 31.2478 59.8117 31.1115 59.9227 31.0207C60.0337 30.9197 60.1599 30.8642 60.3012 30.8541C60.4526 30.844 60.5939 30.8844 60.7251 30.9752C60.8563 31.056 60.937 31.1822 60.9673 31.3537C61.1389 31.273 61.3004 31.1973 61.4518 31.1266C61.6133 31.056 61.7798 30.9853 61.9514 30.9147C62.0927 30.8541 62.2491 30.7986 62.4207 30.7482C62.5923 30.6876 62.7689 30.6422 62.9506 30.6119C63.1323 30.5816 63.3089 30.5665 63.4805 30.5665C63.6622 30.5665 63.8287 30.5968 63.9801 30.6573C64.2829 30.7784 64.5302 30.9601 64.7219 31.2023C64.9238 31.4446 65.0903 31.712 65.2215 32.0047C65.3426 32.2873 65.4587 32.575 65.5697 32.8677C65.6808 33.1503 65.7413 33.443 65.7514 33.7458C65.7615 34.0587 65.7161 34.3514 65.6152 34.6239C65.5142 34.8964 65.3729 35.1437 65.1912 35.3657C65.0197 35.5878 64.8128 35.7846 64.5705 35.9562C64.3283 36.1277 64.0709 36.2741 63.7984 36.3952C63.5057 36.5264 63.2029 36.6425 62.89 36.7434C62.5772 36.8443 62.2592 36.91 61.9362 36.9402C61.7949 36.9604 61.6587 36.9554 61.5275 36.9251C61.4064 36.8948 61.2903 36.8544 61.1793 36.804C61.1995 37.7426 61.2196 38.6712 61.2398 39.5897C61.2701 40.5081 61.3155 41.4316 61.3761 42.3602ZM61.0581 32.6557C61.0783 33.12 61.0935 33.5843 61.1036 34.0486C61.1137 34.5028 61.1288 34.962 61.149 35.4263C61.2095 35.4666 61.2701 35.507 61.3307 35.5474C61.3912 35.5777 61.4568 35.613 61.5275 35.6534C61.6082 35.7038 61.6738 35.7341 61.7243 35.7442C61.7748 35.7442 61.8555 35.7341 61.9665 35.7139C62.1886 35.6635 62.4106 35.613 62.6327 35.5625C62.8547 35.502 63.0667 35.4212 63.2685 35.3203C63.4603 35.2295 63.642 35.1336 63.8135 35.0326C63.9851 34.9216 64.1416 34.7803 64.2829 34.6087C64.3737 34.4977 64.4444 34.3716 64.4948 34.2303C64.5453 34.0789 64.5604 33.9174 64.5402 33.7458C64.5302 33.5439 64.4797 33.337 64.3889 33.1251C64.3081 32.9131 64.2274 32.7163 64.1466 32.5346C64.0962 32.4438 64.0457 32.3529 63.9952 32.2621C63.9549 32.1612 63.9044 32.0703 63.8438 31.9896C63.753 31.8988 63.6823 31.8433 63.6319 31.8231C63.3493 31.8029 63.102 31.818 62.89 31.8685C62.6781 31.9189 62.4661 31.9896 62.2542 32.0804C62.0523 32.1612 61.8505 32.252 61.6486 32.3529C61.4467 32.4539 61.2499 32.5548 61.0581 32.6557ZM67.114 31.8382C67.1241 31.6464 67.1947 31.5051 67.3259 31.4143C67.4571 31.3134 67.5984 31.2629 67.7498 31.2629C67.9012 31.2629 68.0324 31.3134 68.1435 31.4143C68.2646 31.5051 68.3201 31.6464 68.31 31.8382C68.31 31.8988 68.3049 31.9644 68.2949 32.035C68.2949 32.0956 68.2949 32.1561 68.2949 32.2167C68.6178 32.0552 68.9559 31.9189 69.3092 31.8079C69.6726 31.6868 70.0309 31.6111 70.3841 31.5808C70.7475 31.5506 71.0957 31.5808 71.4287 31.6717C71.7719 31.7524 72.0848 31.9139 72.3674 32.1561C72.5087 32.2873 72.5693 32.4286 72.5491 32.58C72.539 32.7314 72.4784 32.8626 72.3674 32.9737C72.2665 33.0746 72.1353 33.1402 71.9738 33.1705C71.8123 33.1907 71.6558 33.1402 71.5044 33.0191C71.3934 32.9283 71.2673 32.8626 71.126 32.8223C70.9947 32.7819 70.8484 32.7668 70.6869 32.7769C70.5355 32.7769 70.3791 32.792 70.2176 32.8223C70.0662 32.8526 69.9198 32.8879 69.7785 32.9283C69.2436 33.0998 68.744 33.3269 68.2797 33.6095C68.2999 34.1041 68.3302 34.5986 68.3706 35.0932C68.4109 35.507 68.4463 35.936 68.4765 36.3801C68.5068 36.8141 68.5926 37.2279 68.7339 37.6215C68.7945 37.8032 68.7793 37.9546 68.6885 38.0757C68.6077 38.2069 68.4917 38.2927 68.3403 38.3331C68.199 38.3734 68.0476 38.3633 67.8861 38.3028C67.7347 38.2422 67.6287 38.1211 67.5682 37.9394C67.4874 37.7073 67.4319 37.4701 67.4016 37.2279C67.3713 36.9857 67.3411 36.7434 67.3108 36.5012C67.2906 36.269 67.2654 36.0369 67.2351 35.8048C67.2149 35.5625 67.1947 35.3253 67.1745 35.0932C67.1241 34.5482 67.0887 34.0082 67.0686 33.4733C67.0585 32.9283 67.0736 32.3832 67.114 31.8382ZM76.9395 31.0207C77.2625 30.9803 77.6006 30.9702 77.9539 30.9904C78.3071 31.0005 78.6453 31.061 78.9682 31.1721C79.2912 31.273 79.5839 31.4294 79.8463 31.6414C80.1088 31.8533 80.3106 32.1309 80.4519 32.4741C80.5528 32.7163 80.6033 32.9636 80.6033 33.2159C80.6134 33.4581 80.5781 33.6953 80.4973 33.9275C80.4267 34.1495 80.3157 34.3665 80.1643 34.5785C80.023 34.7803 79.8564 34.967 79.6647 35.1386C79.2508 35.5121 78.7967 35.83 78.3021 36.0924C77.8075 36.3548 77.2877 36.5567 76.7427 36.698C76.5106 36.7586 76.2684 36.8141 76.016 36.8645C75.7738 36.9049 75.5265 36.9251 75.2742 36.9251C75.0219 36.9251 74.7746 36.8999 74.5324 36.8494C74.2901 36.7888 74.063 36.693 73.8511 36.5617C73.6997 36.4709 73.6088 36.3498 73.5786 36.1984C73.518 36.0268 73.4524 35.8653 73.3817 35.7139C73.3111 35.5625 73.2404 35.4061 73.1698 35.2446C73.1092 35.0831 73.0588 34.9216 73.0184 34.7601C72.978 34.5986 72.9578 34.4321 72.9578 34.2605C72.9578 33.9174 73.0285 33.5944 73.1698 33.2916C73.3212 32.9787 73.523 32.7062 73.7754 32.4741C74.1993 32.0703 74.6888 31.7474 75.2439 31.5051C75.799 31.2629 76.3642 31.1014 76.9395 31.0207ZM78.6503 32.3227C78.3778 32.2217 78.0851 32.1713 77.7722 32.1713C77.4391 32.1612 77.1061 32.1965 76.773 32.2773C76.4399 32.3479 76.122 32.4488 75.8192 32.58C75.5366 32.6911 75.2439 32.8475 74.9411 33.0494C74.6484 33.2411 74.4314 33.4783 74.2901 33.7609C74.2094 33.9123 74.169 34.0688 74.169 34.2303C74.1791 34.3816 74.2043 34.5381 74.2447 34.6996C74.2952 34.851 74.3557 35.0074 74.4264 35.1689C74.5071 35.3203 74.5778 35.4717 74.6383 35.6231C74.7998 35.6635 74.9007 35.6836 74.9411 35.6836C74.9613 35.6937 74.9865 35.6988 75.0168 35.6988C75.0471 35.6988 75.0723 35.6988 75.0925 35.6988C75.2944 35.719 75.476 35.7139 75.6375 35.6836C75.7486 35.6836 75.8899 35.6635 76.0614 35.6231C76.3239 35.5726 76.5762 35.507 76.8184 35.4263C77.0607 35.3354 77.2827 35.2396 77.4846 35.1386C77.7167 35.0276 77.9438 34.9065 78.1658 34.7753C78.3879 34.6441 78.5746 34.5078 78.726 34.3665C78.8269 34.2757 78.9228 34.1798 79.0137 34.0789C79.0641 34.0284 79.0994 33.988 79.1196 33.9577C79.1701 33.8871 79.2105 33.8366 79.2407 33.8063C79.271 33.766 79.2963 33.7206 79.3164 33.6701C79.3568 33.5994 79.377 33.5439 79.377 33.5036C79.3871 33.4834 79.3921 33.4581 79.3921 33.4279C79.4022 33.3976 79.4123 33.3723 79.4224 33.3522V33.1856C79.4123 33.1453 79.4073 33.115 79.4073 33.0948C79.4073 33.0746 79.4022 33.0544 79.3921 33.0342C79.3619 32.9636 79.3316 32.9131 79.3013 32.8828C79.2811 32.8425 79.2559 32.8021 79.2256 32.7617C79.2357 32.7718 79.2206 32.7567 79.1802 32.7163C79.1499 32.6759 79.1297 32.6507 79.1196 32.6406L78.9985 32.5195C78.9481 32.4892 78.8925 32.4539 78.832 32.4135C78.7714 32.3731 78.7109 32.3429 78.6503 32.3227ZM77.636 42.3299C77.4846 42.1987 77.419 42.0574 77.4391 41.906C77.4593 41.7546 77.5249 41.6234 77.636 41.5124C77.7369 41.4114 77.8681 41.3458 78.0296 41.3156C78.1911 41.2954 78.3425 41.3509 78.4838 41.4821C78.8875 41.8354 79.3669 42.118 79.922 42.3299C80.4671 42.5419 81.0121 42.6226 81.5571 42.5721C81.759 42.552 81.9558 42.5015 82.1475 42.4207C82.3494 42.34 82.5058 42.2138 82.6169 42.0423C82.7582 41.8404 82.849 41.6234 82.8894 41.3913C82.9398 41.1591 82.9701 40.9219 82.9802 40.6797C82.9903 40.0035 82.9096 39.3323 82.738 38.6661C82.5765 38.0101 82.4201 37.354 82.2687 36.698C82.0971 35.9814 81.9558 35.2597 81.8447 34.533C81.7337 33.8063 81.7186 33.0796 81.7993 32.3529C81.8195 32.1814 81.8801 32.0401 81.981 31.929C82.0819 31.8079 82.2232 31.7474 82.4049 31.7474C82.5563 31.7474 82.6976 31.8079 82.8288 31.929C82.9701 32.0401 83.0307 32.1814 83.0105 32.3529C82.9298 33.1705 82.96 33.9779 83.1013 34.7753C83.2527 35.5726 83.4243 36.37 83.6161 37.1673C83.7069 37.5206 83.7927 37.8839 83.8734 38.2574C83.9643 38.6308 84.0349 39.0043 84.0854 39.3777C84.146 39.7612 84.1762 40.1397 84.1762 40.5132C84.1863 40.8967 84.151 41.2701 84.0703 41.6335C83.9996 41.9565 83.8835 42.2542 83.7221 42.5267C83.5707 42.8093 83.3638 43.0516 83.1013 43.2534C82.849 43.4452 82.5614 43.5814 82.2384 43.6622C81.9255 43.753 81.6126 43.7984 81.2997 43.7984C80.6235 43.7884 79.9674 43.6521 79.3316 43.3897C78.6957 43.1273 78.1305 42.774 77.636 42.3299ZM82.1324 30.0215C82.0214 29.9508 81.9406 29.86 81.8902 29.7489C81.8397 29.6379 81.8246 29.5219 81.8447 29.4007C81.8246 29.1484 81.875 28.9667 81.9961 28.8557C82.1274 28.7346 82.2737 28.674 82.4352 28.674C82.4857 28.674 82.5311 28.674 82.5714 28.674C82.6219 28.674 82.6724 28.6841 82.7228 28.7043C82.7531 28.7144 82.7784 28.7245 82.7985 28.7346C82.8288 28.7447 82.8591 28.7548 82.8894 28.7649C83.0711 28.8254 83.1922 28.9213 83.2527 29.0525C83.2931 29.1131 83.3183 29.1888 83.3284 29.2796C83.3486 29.3604 83.3436 29.4361 83.3133 29.5067C83.283 29.5976 83.2527 29.6732 83.2224 29.7338C83.172 29.865 83.0811 29.9659 82.9499 30.0366C82.8187 30.1072 82.6825 30.1274 82.5412 30.0972C82.3797 30.1173 82.2434 30.0921 82.1324 30.0215ZM85.4782 32.1259C85.67 31.8634 85.8971 31.6313 86.1595 31.4294C86.432 31.2276 86.7197 31.0711 87.0225 30.9601C87.3253 30.839 87.6381 30.7784 87.9611 30.7784C88.2841 30.7683 88.6071 30.8289 88.9301 30.9601C89.2429 31.0812 89.5255 31.2478 89.7779 31.4597C90.0302 31.6616 90.227 31.924 90.3683 32.247C90.4793 32.4892 90.5449 32.7516 90.5651 33.0342C90.5853 33.3168 90.5096 33.5742 90.338 33.8063C90.1866 34.0183 89.9999 34.1798 89.7779 34.2908C89.5659 34.4018 89.3338 34.4826 89.0815 34.533C88.8392 34.5835 88.5869 34.6087 88.3245 34.6087C88.0721 34.6087 87.8299 34.6037 87.5978 34.5936C87.3354 34.5835 87.0729 34.5633 86.8105 34.533C86.5582 34.5028 86.3008 34.4725 86.0384 34.4422C86.1191 34.8964 86.2806 35.3001 86.5229 35.6534C86.7651 36.0066 87.0931 36.2741 87.5069 36.4558C87.618 36.4961 87.7038 36.5264 87.7643 36.5466C87.7946 36.5567 87.8198 36.5668 87.84 36.5769C87.8703 36.5769 87.9006 36.5769 87.9308 36.5769C88.0116 36.587 88.0772 36.5971 88.1277 36.6072C88.1882 36.6072 88.2437 36.6021 88.2942 36.592C88.3648 36.5819 88.4103 36.5769 88.4305 36.5769C88.4607 36.5668 88.491 36.5567 88.5213 36.5466C88.6323 36.5163 88.7282 36.481 88.8089 36.4406C88.8998 36.4003 89.0058 36.3346 89.1269 36.2438C89.1874 36.1933 89.2682 36.1176 89.3691 36.0167C89.47 35.9158 89.5558 35.825 89.6265 35.7442C89.7274 35.6029 89.8485 35.507 89.9898 35.4566C90.1412 35.4061 90.2926 35.4263 90.444 35.5171C90.5752 35.5979 90.6661 35.724 90.7165 35.8956C90.7771 36.0571 90.7569 36.2085 90.656 36.3498C90.3633 36.7434 90.0151 37.0815 89.6113 37.3641C89.2177 37.6367 88.7635 37.783 88.2488 37.8032C87.835 37.8234 87.4363 37.7527 87.0528 37.5912C86.6692 37.4197 86.3311 37.1926 86.0384 36.91C85.6751 36.5567 85.3874 36.1479 85.1754 35.6836C84.9635 35.2194 84.8474 34.745 84.8272 34.2605C84.7364 34.1899 84.6658 34.1041 84.6153 34.0032C84.5749 33.8921 84.5598 33.7811 84.5699 33.6701C84.5901 33.5591 84.6304 33.4581 84.691 33.3673C84.7515 33.2664 84.8424 33.2008 84.9635 33.1705C85.0745 32.797 85.2461 32.4488 85.4782 32.1259ZM89.1117 32.4892C89.0007 32.3479 88.8291 32.2217 88.597 32.1107C88.4052 32.03 88.1781 31.9896 87.9157 31.9896C87.6634 31.9896 87.4464 32.035 87.2647 32.1259C87.0326 32.2369 86.8257 32.3933 86.644 32.5952C86.4623 32.7869 86.316 33.0039 86.2049 33.2462C86.4472 33.2765 86.6894 33.3067 86.9316 33.337C87.1739 33.3673 87.4161 33.3875 87.6583 33.3976C87.7895 33.3976 87.9208 33.3976 88.052 33.3976C88.1832 33.3976 88.3144 33.3925 88.4456 33.3824C88.486 33.3824 88.5213 33.3824 88.5516 33.3824C88.5919 33.3723 88.6323 33.3673 88.6727 33.3673C88.7635 33.3471 88.8291 33.337 88.8695 33.337C88.92 33.3269 88.9704 33.3118 89.0209 33.2916C89.0613 33.2815 89.1117 33.2664 89.1723 33.2462C89.2228 33.226 89.253 33.2109 89.2631 33.2008C89.2732 33.1907 89.2884 33.1806 89.3085 33.1705L89.354 32.9888C89.3338 32.9484 89.3186 32.9131 89.3085 32.8828C89.3085 32.8425 89.2985 32.8071 89.2783 32.7769C89.2682 32.7466 89.2429 32.7012 89.2026 32.6406C89.1723 32.58 89.142 32.5296 89.1117 32.4892ZM96.1668 36.8191C96.2071 36.9604 96.1869 37.1118 96.1062 37.2733C96.0255 37.4348 95.9043 37.5307 95.7428 37.561C95.1978 37.6518 94.6578 37.6467 94.1229 37.5458C93.588 37.4348 93.0934 37.2027 92.6392 36.8494C92.1951 36.4961 91.8772 36.047 91.6855 35.502C91.5038 34.9469 91.4735 34.3917 91.5946 33.8366C91.7056 33.3421 91.9378 32.9131 92.291 32.5498C92.6443 32.1864 93.048 31.9038 93.5022 31.7019C93.9059 31.5102 94.3298 31.3588 94.7739 31.2478C95.218 31.1367 95.6621 31.1014 96.1062 31.1418C96.2778 31.162 96.4191 31.2276 96.5301 31.3386C96.6512 31.4395 96.7118 31.5758 96.7118 31.7474C96.7118 31.8988 96.6512 32.0401 96.5301 32.1713C96.4191 32.3025 96.2778 32.363 96.1062 32.3529C95.7832 32.3227 95.4653 32.3378 95.1524 32.3984C94.8395 32.4589 94.5367 32.5548 94.244 32.686C94.0725 32.7668 93.9009 32.8526 93.7293 32.9434C93.5678 33.0342 93.4265 33.1352 93.3054 33.2462C93.1742 33.3673 93.0631 33.4884 92.9723 33.6095C92.8916 33.7306 92.831 33.8719 92.7906 34.0334C92.7503 34.1949 92.7351 34.3665 92.7452 34.5482C92.7553 34.7299 92.7856 34.9115 92.8361 35.0932C92.8966 35.2648 92.9774 35.4263 93.0783 35.5777C93.1792 35.719 93.3003 35.8401 93.4416 35.941C93.7343 36.153 94.0523 36.2993 94.3954 36.3801C94.7487 36.4507 95.0918 36.4558 95.4249 36.3952C95.5864 36.3649 95.7378 36.3851 95.8791 36.4558C96.0204 36.5264 96.1163 36.6475 96.1668 36.8191ZM102.147 32.7163C102.339 32.7163 102.48 32.7769 102.571 32.898C102.672 33.0191 102.722 33.1553 102.722 33.3067C102.722 33.4581 102.672 33.5994 102.571 33.7306C102.48 33.8518 102.339 33.9123 102.147 33.9123C101.905 33.9224 101.662 33.9224 101.42 33.9123C101.188 33.8921 100.956 33.8719 100.724 33.8518C100.734 34.6491 100.719 35.4465 100.678 36.2438C100.648 37.0412 100.567 37.8335 100.436 38.6207C100.416 38.7923 100.325 38.9185 100.164 38.9992C100.002 39.08 99.8457 39.0951 99.6943 39.0446C99.5227 38.9942 99.4016 38.8983 99.3309 38.757C99.2704 38.6258 99.2552 38.4744 99.2855 38.3028C99.4066 37.5357 99.4722 36.7687 99.4823 36.0016C99.5025 35.2345 99.5025 34.4624 99.4823 33.6852C99.0988 33.6247 98.7102 33.5641 98.3166 33.5036C97.923 33.4329 97.5344 33.3723 97.1508 33.3219C96.9793 33.3017 96.8581 33.2109 96.7875 33.0494C96.7067 32.8778 96.6866 32.7213 96.7269 32.58C96.7774 32.4085 96.8733 32.2924 97.0146 32.2318C97.1559 32.1612 97.3073 32.1359 97.4688 32.1561C97.8018 32.2066 98.1349 32.2621 98.468 32.3227C98.801 32.3731 99.1392 32.4236 99.4823 32.4741C99.4722 32.4236 99.4672 32.3479 99.4672 32.247C99.4672 31.3386 99.4621 30.4403 99.452 29.5521C99.452 28.6639 99.4975 27.7657 99.5883 26.8573C99.6085 26.6958 99.669 26.5545 99.77 26.4334C99.881 26.3123 100.022 26.2517 100.194 26.2517C100.345 26.2517 100.487 26.3123 100.618 26.4334C100.759 26.5545 100.82 26.6958 100.799 26.8573C100.699 27.8262 100.648 28.7901 100.648 29.7489C100.658 30.6977 100.673 31.6616 100.693 32.6406C100.936 32.6608 101.178 32.681 101.42 32.7012C101.662 32.7113 101.905 32.7163 102.147 32.7163ZM104.145 34.639C103.883 34.4473 103.696 34.2101 103.585 33.9275C103.474 33.6348 103.469 33.3269 103.57 33.0039C103.671 32.7113 103.827 32.4488 104.039 32.2167C104.251 31.9846 104.494 31.7978 104.766 31.6565C105.069 31.495 105.392 31.3689 105.735 31.278C106.078 31.1872 106.426 31.1367 106.78 31.1266C107.133 31.1166 107.481 31.1519 107.824 31.2326C108.177 31.3033 108.511 31.4193 108.823 31.5808C108.995 31.6717 109.091 31.7928 109.111 31.9442C109.131 32.0956 109.101 32.2369 109.02 32.3681C108.95 32.4993 108.839 32.5952 108.687 32.6557C108.536 32.7163 108.374 32.7012 108.203 32.6103C107.96 32.4791 107.688 32.3933 107.385 32.3529C107.082 32.3126 106.775 32.3126 106.462 32.3529C106.159 32.3832 105.871 32.4589 105.599 32.58C105.326 32.7012 105.099 32.8576 104.917 33.0494C104.867 33.0998 104.832 33.1352 104.811 33.1553C104.801 33.1755 104.781 33.2209 104.751 33.2916L104.721 33.4581C104.751 33.549 104.776 33.6045 104.796 33.6247C104.998 33.7559 105.205 33.8417 105.417 33.882C105.639 33.9123 105.861 33.9325 106.083 33.9426C106.396 33.9628 106.714 33.983 107.037 34.0032C107.37 34.0133 107.688 34.0536 107.991 34.1243C108.304 34.1949 108.591 34.311 108.854 34.4725C109.116 34.634 109.338 34.8712 109.52 35.184C109.722 35.5373 109.813 35.9057 109.792 36.2892C109.782 36.6627 109.636 37.0008 109.353 37.3036C109.071 37.6064 108.743 37.8183 108.369 37.9394C107.996 38.0505 107.617 38.1312 107.234 38.1817C106.891 38.222 106.532 38.2321 106.159 38.212C105.796 38.1918 105.442 38.1312 105.099 38.0303C104.766 37.9394 104.453 37.7981 104.16 37.6064C103.868 37.4045 103.626 37.1421 103.434 36.8191C103.343 36.6576 103.328 36.5062 103.388 36.3649C103.449 36.2135 103.54 36.1025 103.661 36.0319C103.792 35.9511 103.933 35.9208 104.085 35.941C104.246 35.9612 104.377 36.052 104.478 36.2135C104.62 36.4457 104.816 36.6223 105.069 36.7434C105.321 36.8645 105.594 36.9503 105.886 37.0008C106.189 37.0412 106.492 37.0513 106.795 37.0311C107.098 37.0008 107.37 36.9604 107.612 36.91C107.743 36.8797 107.875 36.8393 108.006 36.7888C108.147 36.7283 108.263 36.6576 108.354 36.5769C108.455 36.4961 108.526 36.4053 108.566 36.3044C108.606 36.1933 108.601 36.0722 108.551 35.941C108.45 35.6887 108.278 35.507 108.036 35.396C107.804 35.285 107.557 35.2194 107.294 35.1992C107.032 35.179 106.764 35.1689 106.492 35.1689C106.219 35.1689 105.947 35.1588 105.674 35.1386C105.402 35.1083 105.134 35.0579 104.872 34.9872C104.61 34.9166 104.367 34.8005 104.145 34.639ZM116.393 36.9402C116.524 37.021 116.625 37.1421 116.696 37.3036C116.767 37.4651 116.777 37.6165 116.726 37.7578C116.686 37.9092 116.59 38.0353 116.439 38.1363C116.328 38.2574 116.186 38.3129 116.015 38.3028C115.843 38.3028 115.702 38.2473 115.591 38.1363C115.439 38.0252 115.344 37.9243 115.303 37.8335C115.222 37.6922 115.197 37.5509 115.227 37.4096C115.268 37.2683 115.344 37.1471 115.455 37.0462C115.485 37.026 115.51 37.0058 115.53 36.9857C115.561 36.9554 115.596 36.9301 115.636 36.91C115.727 36.8696 115.778 36.8494 115.788 36.8494C115.808 36.8494 115.863 36.8393 115.954 36.8191C115.984 36.8191 116.02 36.8242 116.06 36.8343C116.1 36.8343 116.131 36.8393 116.151 36.8494C116.232 36.8595 116.312 36.8898 116.393 36.9402ZM116.272 27.1752C116.272 26.9835 116.333 26.8371 116.454 26.7362C116.585 26.6352 116.721 26.5848 116.863 26.5848C117.014 26.5848 117.15 26.6352 117.271 26.7362C117.402 26.8371 117.468 26.9835 117.468 27.1752C117.468 27.8414 117.473 28.5125 117.483 29.1888C117.503 29.8549 117.503 30.5211 117.483 31.1872C117.473 31.8533 117.433 32.5195 117.362 33.1856C117.302 33.8518 117.191 34.5129 117.029 35.1689C116.979 35.3607 116.883 35.4868 116.741 35.5474C116.6 35.608 116.454 35.618 116.302 35.5777C116.161 35.5373 116.04 35.4566 115.939 35.3354C115.838 35.2042 115.813 35.0427 115.863 34.851C116.015 34.2252 116.121 33.5944 116.181 32.9585C116.242 32.3126 116.277 31.6717 116.287 31.0358C116.307 30.3899 116.307 29.7439 116.287 29.0979C116.277 28.452 116.272 27.8111 116.272 27.1752Z" fill="#5B5C5E"/>
<g clip-path="url(#clip0_421_6761)">
<path d="M82.6219 50.1823C81.3738 50.7971 78.018 59.1862 76.7499 61.9415C74.4995 66.8339 73.2492 72.1162 71.2942 77.1239C70.1402 80.0793 68.7776 86.2508 65.2939 87.2249C63.2653 87.7918 61.8612 86.0699 61.4001 84.2695C60.7225 81.6256 62.1676 79.7666 62.6893 77.3375C63.0581 75.6211 63.1677 70.7303 60.0699 72.3402C58.0014 73.4148 57.4299 76.3873 56.8036 78.3893C55.4485 82.7228 52.4655 99.9378 44.3372 95.4963C42.0157 94.2274 41.8187 88.318 38.2746 89.395C34.6809 90.4877 35.6906 98.6296 35.485 101.417C35.1385 106.121 35.3202 110.9 34.4865 115.559C32.4774 126.777 29.1227 137.92 23.3722 147.759" stroke="#5B5C5E" stroke-width="1.5" stroke-miterlimit="10" stroke-linecap="round" stroke-linejoin="round"/>
<path d="M18.7694 140.983C21.3669 144.519 20.3698 148.725 22.143 152.529C24.234 150.103 28.6944 145.373 31.9425 144.466" stroke="#5B5C5E" stroke-width="1.5" stroke-miterlimit="10" stroke-linecap="round" stroke-linejoin="round"/>
</g>
<defs>
<clipPath id="clip0_421_6761">
<rect width="125" height="30" fill="white" transform="translate(95.1918 54.8967) rotate(124.279)"/>
</clipPath>
</defs>
</svg>
