
<svg width="336" height="98" viewBox="0 0 336 98" fill="none" xmlns="http://www.w3.org/2000/svg">
<path d="M-18.3804 85.4513C-18.1059 86.6537 -17.8819 87.6343 -17.6285 88.7433C-21.2509 89.7081 -24.807 90.6553 -28.3634 91.6009C-28.4972 91.6359 -28.637 91.6501 -28.7697 91.6893C-31.0043 92.343 -30.7838 92.0078 -30.1918 94.1316C-29.9048 95.1614 -30.0254 95.6334 -31.1695 95.8635C-32.8827 96.2096 -34.558 96.7424 -36.347 97.221C-36.5166 96.8666 -36.7196 96.5665 -36.8081 96.2363C-37.5128 93.6063 -38.158 90.9605 -38.907 88.3431C-39.1544 87.4784 -38.9161 87.1382 -38.0981 87.0114C-37.7351 86.9556 -37.3875 86.8013 -37.0246 86.7421C-36.1567 86.6004 -35.9039 86.2368 -36.162 85.3104C-36.7613 83.1608 -36.7041 83.1482 -34.4758 82.5537C-34.0832 82.4486 -33.7012 82.3036 -33.2061 82.1418C-33.4493 81.0553 -33.676 80.0413 -33.9288 78.9115C-31.7707 78.3211 -29.6987 77.7541 -27.5 77.1521C-27.748 76.0497 -27.9756 75.0374 -28.2364 73.8784C-23.7747 72.6877 -19.3832 71.5153 -14.8723 70.3112C-15.1279 69.1914 -15.3585 68.1799 -15.6241 67.0159C7.91439 60.7954 31.3703 54.5966 54.9367 48.3686C54.664 47.0995 54.4164 45.9513 54.152 44.7239C57.3823 43.8617 60.4967 43.0312 63.8205 42.1448C63.6003 41.07 63.3852 40.0202 63.1409 38.8244C73.0853 36.1956 82.9755 33.581 93.0142 30.927C93.3319 31.9398 93.6429 32.9302 94.0256 34.1508C98.4375 32.9995 102.835 31.8521 107.387 30.6643C107.727 31.7981 108.063 32.9214 108.447 34.2069C111.817 33.3367 115.139 32.4788 118.533 31.602C118.879 32.7154 119.189 33.709 119.535 34.8225C123.067 33.8863 126.49 32.9757 129.915 32.0721C135.049 30.7176 140.178 29.3444 145.324 28.0361C146.367 27.7708 146.732 27.3827 146.299 26.3249C146.064 25.7495 146.027 25.0931 145.886 24.406C146.961 24.0832 147.921 23.7948 149.023 23.4638C148.732 22.294 148.456 21.1937 148.159 20C148.563 19.8439 148.923 19.6625 149.305 19.5646C151.79 18.9276 151.402 19.1857 150.81 16.828C150.454 15.4062 150.094 13.9852 149.716 12.4834C150.611 12.2236 151.345 11.9369 152.106 11.8084C153.103 11.6401 153.324 11.198 152.958 10.2774C152.723 9.68593 152.65 9.03069 152.473 8.27173C153.527 7.93661 154.549 7.61158 155.627 7.26904C155.344 6.07389 155.092 5.00823 154.795 3.75446C156.943 3.15726 159.05 2.57157 161.264 1.9562C161.007 0.8727 160.776 -0.100311 160.491 -1.3043C167.138 -3.06521 173.758 -4.81895 180.529 -6.61288C180.857 -5.57283 181.17 -4.58197 181.55 -3.37857C188.185 -5.12064 194.806 -6.85912 201.506 -8.61819C201.752 -7.7786 202.037 -7.08943 202.143 -6.37357C202.307 -5.27081 202.755 -5.0636 203.84 -5.3637C208.644 -6.69302 213.475 -7.92727 218.298 -9.1923C218.558 -9.26059 218.827 -9.29619 219.231 -9.37391C219.546 -8.34644 219.848 -7.35759 220.204 -6.19304C226.948 -7.97405 233.612 -9.7338 240.398 -11.5256C240.073 -12.7446 239.794 -13.7953 239.482 -14.9671C238.401 -14.7175 237.427 -14.4929 236.264 -14.2245C235.931 -15.3273 235.592 -16.4451 235.202 -17.736C233.469 -17.2899 231.76 -16.9465 230.12 -16.3955C228.917 -15.9912 228.43 -16.3493 228.249 -17.506C228.164 -18.0438 227.973 -18.5648 227.789 -19.2426C227.07 -19.0857 226.396 -18.9951 225.76 -18.7863C224.89 -18.5002 224.359 -18.6009 224.202 -19.6433C224.102 -20.3108 223.823 -20.9514 223.591 -21.7121C221.667 -21.2171 219.827 -20.8066 218.03 -20.2562C217.058 -19.9584 216.559 -20.0675 216.41 -21.1596C216.324 -21.7846 216.057 -22.3849 215.825 -23.1519C215.02 -22.9526 214.281 -22.6616 213.53 -22.6286C213.145 -22.6116 212.542 -22.963 212.381 -23.3079C212.02 -24.0832 211.874 -24.9585 211.618 -25.8717C210.488 -25.6399 209.467 -25.4308 208.355 -25.2029C208.047 -26.2641 207.769 -27.2233 207.45 -28.3199C206.241 -28.0388 205.099 -27.7734 203.846 -27.4822C202.996 -30.6961 202.173 -33.8074 201.326 -37.0046C202.555 -37.3775 203.684 -37.7197 204.869 -38.0793C204.578 -39.2648 204.316 -40.3327 203.997 -41.6323C209.472 -43.0854 214.927 -44.5332 220.455 -46C220.815 -44.8056 221.157 -43.6711 221.53 -42.4353C223.713 -42.9967 225.798 -43.533 227.993 -44.0977C228.218 -43.3335 228.468 -42.6432 228.616 -41.9316C228.786 -41.1142 229.188 -40.833 229.988 -41.1145C230.379 -41.2519 230.804 -41.2959 231.187 -41.4498C231.945 -41.7546 232.305 -41.4539 232.481 -40.7274C232.653 -40.0171 232.866 -39.3165 233.097 -38.4776C234.3 -38.7695 235.402 -39.0371 236.619 -39.3325C236.94 -38.3168 237.254 -37.3199 237.609 -36.1957C238.356 -36.3567 239.089 -36.4376 239.763 -36.6792C240.577 -36.9709 240.992 -36.7779 241.13 -35.9252C241.188 -35.5624 241.347 -35.2152 241.398 -34.8523C241.537 -33.8713 242.007 -33.6292 242.933 -33.9962C243.525 -34.2305 244.182 -34.2975 244.949 -34.4709C245.302 -33.3095 245.643 -32.1897 246.004 -31.0051C247.124 -31.2484 248.142 -31.4698 249.219 -31.7038C249.54 -30.6343 249.828 -29.6756 250.157 -28.5785C251.359 -28.858 252.5 -29.123 253.697 -29.401C254.024 -28.3113 254.312 -27.3526 254.647 -26.2362C256.83 -26.7822 258.951 -27.3124 261.144 -27.8611C261.466 -26.7721 261.749 -25.8109 262.084 -24.6744C264.212 -25.2169 266.291 -25.7469 268.546 -26.3216C268.899 -25.1893 269.245 -24.0754 269.645 -22.7928C272.994 -23.6603 276.284 -24.5125 279.709 -25.3996C280.035 -24.3515 280.342 -23.359 280.705 -22.1886C285.155 -23.3531 289.555 -24.5047 294.071 -25.6863C294.387 -24.6448 294.689 -23.6489 295.045 -22.4776C297.278 -23.0491 299.451 -23.5929 301.619 -24.1628C306.798 -25.5249 311.972 -26.9022 317.151 -28.2671C318.892 -28.7261 318.891 -28.7164 318.452 -30.4706C318.332 -30.9497 318.244 -31.4365 318.114 -32.0415C322.541 -33.2137 326.851 -34.3546 331.278 -35.5271C332.737 -30.0185 334.163 -24.6343 335.647 -19.0279C333.852 -18.5344 332.124 -17.9472 330.348 -17.6062C328.974 -17.3425 328.627 -16.7546 329.189 -15.5421C329.799 -14.2241 329.271 -13.7264 327.951 -13.3862C318.92 -11.0594 309.909 -8.65805 300.889 -6.28677C300.5 -6.18429 300.094 -6.14101 299.633 -6.05896C299.295 -7.12895 298.981 -8.12139 298.642 -9.19547C294.151 -8.01716 289.787 -6.87179 285.3 -5.69424C284.972 -6.77131 284.67 -7.76134 284.319 -8.91162C280.946 -8.04059 277.623 -7.18215 274.218 -6.30261C273.889 -7.40679 273.605 -8.36412 273.27 -9.49482C271.097 -8.94756 268.981 -8.41474 266.767 -7.85723C266.424 -9.03286 266.104 -10.1242 265.737 -11.3823C263.822 -10.8938 261.963 -10.4196 260.104 -9.94451C259.836 -9.87597 259.568 -9.80734 259.302 -9.73054C258.108 -9.38567 256.522 -9.37257 255.848 -8.58259C255.33 -7.97572 255.961 -6.389 256.098 -5.0802C255.189 -4.78927 254.167 -4.46231 253.08 -4.11427C253.347 -3.01651 253.586 -2.03959 253.859 -0.916649C250.551 -0.0289383 247.268 0.851772 243.819 1.77709C244.038 2.88243 244.248 3.93316 244.479 5.0932C238.999 6.54317 233.613 7.9688 228.079 9.43328C227.86 8.7035 227.577 8.03108 227.468 7.33149C227.309 6.30703 226.824 6.22398 225.924 6.46879C221.024 7.80069 216.11 9.07873 211.2 10.372C210.986 10.4281 210.765 10.4515 210.437 10.5096C210.112 9.47513 209.801 8.48453 209.44 7.33641C203.877 8.79747 198.405 10.2346 192.795 11.7082C192.533 10.7941 192.261 9.97769 192.071 9.14268C191.901 8.39722 191.535 8.159 190.786 8.35837C183.47 10.3041 176.146 12.2222 168.841 14.2089C168.52 14.2962 168.137 14.9884 168.168 15.3671C168.239 16.2197 168.551 17.0524 168.791 17.9951C167.697 18.3302 166.702 18.6349 165.61 18.9694C165.87 20.027 166.108 21 166.386 22.1307C165.383 22.4433 164.392 22.7523 163.191 23.1267C163.613 24.7714 163.948 26.4321 164.477 28.0282C164.898 29.2989 164.661 29.9302 163.271 30.0696C162.745 30.1223 162.241 30.3896 161.66 30.5812C161.909 31.6626 162.135 32.6404 162.392 33.7493C161.369 34.0635 160.375 34.3687 159.249 34.7144C159.43 35.5178 159.515 36.2962 159.787 37.0034C160.164 37.9864 159.926 38.3958 158.88 38.626C157.042 39.0312 155.237 39.5882 153.309 40.1111C153.54 41.2234 153.751 42.239 153.997 43.4147C147.417 45.1558 140.93 46.871 134.32 48.6196C134.105 47.915 133.854 47.3213 133.75 46.7026C133.572 45.6503 133.159 45.3768 132.052 45.6845C127.205 47.0311 122.329 48.2727 117.462 49.5502C117.244 49.6077 117.019 49.6369 116.654 49.7069C116.435 48.9815 116.149 48.3052 116.037 47.6015C115.858 46.4766 115.43 46.1689 114.257 46.5183C111.429 47.3588 108.553 48.0392 105.534 48.8264C105.211 47.8041 104.887 46.7818 104.512 45.5944C93.2885 48.5587 82.1508 51.4997 70.8889 54.474C71.1458 55.5722 71.3742 56.5436 71.6586 57.7569C67.2409 58.9426 62.8198 60.1283 58.2646 61.3507C58.5622 62.5773 58.8299 63.6796 59.1393 64.9563C46.9059 68.1907 34.6913 71.4194 22.3089 74.6931C21.9609 73.549 21.6212 72.4317 21.2223 71.12C14.4894 72.8953 7.82425 74.6522 1.03376 76.4433C1.3377 77.6899 1.60645 78.7922 1.91647 80.0639C-4.83433 81.8558 -11.5452 83.6377 -18.3804 85.4513Z" fill="#0DA14B"/>
</svg>
