<svg width="375" height="144" viewBox="0 0 375 144" fill="none" xmlns="http://www.w3.org/2000/svg">
<path d="M20.6196 131.451C20.8941 132.654 21.1181 133.634 21.3715 134.743C17.7491 135.708 14.193 136.655 10.6366 137.601C10.5028 137.636 10.363 137.65 10.2303 137.689C7.99567 138.343 8.21625 138.008 8.80823 140.132C9.09524 141.161 8.97458 141.633 7.83046 141.864C6.11732 142.21 4.44196 142.742 2.65297 143.221C2.48342 142.867 2.28043 142.566 2.19192 142.236C1.48718 139.606 0.841982 136.961 0.0930303 134.343C-0.154405 133.478 0.0839331 133.138 0.901869 133.011C1.26488 132.956 1.61251 132.801 1.97535 132.742C2.84328 132.6 3.09606 132.237 2.83797 131.31C2.23872 129.161 2.29586 129.148 4.52421 128.554C4.91682 128.449 5.29875 128.304 5.79391 128.142C5.5507 127.055 5.32396 126.041 5.07115 124.911C7.22927 124.321 9.30128 123.754 11.5 123.152C11.252 122.05 11.0244 121.037 10.7636 119.878C15.2253 118.688 19.6168 117.515 24.1277 116.311C23.8721 115.191 23.6415 114.18 23.3759 113.016C46.9144 106.795 70.3703 100.597 93.9367 94.3686C93.664 93.0995 93.4164 91.9513 93.152 90.7239C96.3823 89.8617 99.4968 89.0312 102.82 88.1448C102.6 87.07 102.385 86.0202 102.141 84.8244C112.085 82.1956 121.976 79.581 132.014 76.927C132.332 77.9398 132.643 78.9302 133.026 80.1508C137.437 78.9995 141.835 77.8521 146.387 76.6643C146.727 77.7981 147.063 78.9214 147.447 80.2069C150.817 79.3367 154.139 78.4788 157.533 77.602C157.879 78.7154 158.189 79.709 158.535 80.8225C162.067 79.8863 165.49 78.9757 168.915 78.0721C174.049 76.7176 179.178 75.3444 184.324 74.0361C185.367 73.7708 185.732 73.3827 185.299 72.3249C185.064 71.7495 185.027 71.0931 184.886 70.406C185.961 70.0832 186.921 69.7948 188.023 69.4638C187.732 68.294 187.456 67.1937 187.159 66C187.563 65.8439 187.923 65.6625 188.305 65.5646C190.79 64.9276 190.402 65.1857 189.81 62.828C189.454 61.4062 189.094 59.9852 188.716 58.4834C189.611 58.2236 190.345 57.9369 191.106 57.8084C192.103 57.6401 192.324 57.198 191.958 56.2774C191.723 55.6859 191.65 55.0307 191.473 54.2717C192.527 53.9366 193.549 53.6116 194.627 53.269C194.344 52.0739 194.092 51.0082 193.795 49.7545C195.943 49.1573 198.05 48.5716 200.264 47.9562C200.007 46.8727 199.776 45.8997 199.491 44.6957C206.138 42.9348 212.758 41.181 219.529 39.3871C219.857 40.4272 220.17 41.418 220.55 42.6214C227.185 40.8794 233.806 39.1409 240.506 37.3818C240.752 38.2214 241.037 38.9106 241.143 39.6264C241.307 40.7292 241.755 40.9364 242.84 40.6363C247.644 39.307 252.475 38.0727 257.298 36.8077C257.558 36.7394 257.827 36.7038 258.231 36.6261C258.546 37.6536 258.848 38.6424 259.204 39.807C265.948 38.026 272.612 36.2662 279.398 34.4744C279.073 33.2554 278.794 32.2047 278.482 31.0329C277.401 31.2825 276.427 31.5071 275.264 31.7755C274.931 30.6727 274.592 29.5549 274.202 28.264C272.469 28.7101 270.76 29.0535 269.12 29.6045C267.917 30.0088 267.43 29.6507 267.249 28.494C267.164 27.9562 266.973 27.4352 266.789 26.7574C266.07 26.9143 265.396 27.005 264.76 27.2137C263.89 27.4998 263.359 27.3991 263.202 26.3567C263.102 25.6892 262.823 25.0486 262.591 24.2879C260.667 24.7829 258.827 25.1934 257.03 25.7438C256.058 26.0416 255.559 25.9325 255.41 24.8404C255.324 24.2154 255.057 23.6151 254.825 22.8481C254.02 23.0474 253.281 23.3384 252.53 23.3714C252.145 23.3884 251.542 23.037 251.381 22.6921C251.02 21.9168 250.874 21.0416 250.618 20.1283C249.488 20.36 248.467 20.5692 247.355 20.7971C247.047 19.7359 246.769 18.7767 246.45 17.6801C245.241 17.9612 244.099 18.2266 242.846 18.5178C241.996 15.3039 241.173 12.1926 240.326 8.99542C241.555 8.62253 242.684 8.28027 243.869 7.92066C243.578 6.73522 243.316 5.66728 242.997 4.36772C248.472 2.91457 253.927 1.46681 259.455 0C259.815 1.19444 260.157 2.32893 260.53 3.56469C262.713 3.00326 264.798 2.46703 266.993 1.9023C267.218 2.66652 267.468 3.35683 267.616 4.0684C267.786 4.88582 268.188 5.16699 268.988 4.88547C269.379 4.74812 269.804 4.70408 270.187 4.55017C270.945 4.24544 271.305 4.54606 271.481 5.27255C271.653 5.98292 271.866 6.68352 272.097 7.52245C273.3 7.2305 274.402 6.96292 275.619 6.66747C275.94 7.68318 276.254 8.68015 276.609 9.80434C277.356 9.64332 278.089 9.56244 278.763 9.32079C279.577 9.02911 279.992 9.22215 280.13 10.0748C280.188 10.4376 280.347 10.7848 280.398 11.1477C280.537 12.1287 281.007 12.3708 281.933 12.0038C282.525 11.7695 283.182 11.7025 283.949 11.5291C284.302 12.6905 284.643 13.8103 285.004 14.9949C286.124 14.7516 287.142 14.5302 288.219 14.2962C288.54 15.3657 288.828 16.3244 289.157 17.4215C290.359 17.142 291.5 16.877 292.697 16.599C293.024 17.6887 293.312 18.6474 293.647 19.7638C295.83 19.2178 297.951 18.6876 300.144 18.1389C300.466 19.2279 300.749 20.1891 301.084 21.3256C303.212 20.7831 305.291 20.2531 307.546 19.6784C307.899 20.8107 308.245 21.9246 308.645 23.2072C311.994 22.3397 315.284 21.4875 318.709 20.6004C319.035 21.6485 319.342 22.641 319.705 23.8114C324.155 22.6469 328.555 21.4953 333.071 20.3137C333.387 21.3552 333.689 22.3511 334.045 23.5224C336.278 22.9509 338.451 22.4071 340.619 21.8372C345.798 20.4751 350.972 19.0978 356.151 17.7329C357.892 17.2739 357.891 17.2836 357.452 15.5294C357.332 15.0503 357.244 14.5635 357.114 13.9585C361.541 12.7863 365.851 11.6454 370.278 10.4729C371.737 15.9815 373.163 21.3657 374.647 26.9721C372.852 27.4656 371.124 28.0528 369.348 28.3938C367.974 28.6575 367.627 29.2454 368.189 30.4579C368.799 31.7759 368.27 32.2736 366.951 32.6138C357.92 34.9406 348.909 37.3419 339.889 39.7132C339.5 39.8157 339.094 39.859 338.633 39.941C338.295 38.871 337.981 37.8786 337.642 36.8045C333.151 37.9828 328.787 39.1282 324.3 40.3058C323.972 39.2287 323.67 38.2387 323.319 37.0884C319.946 37.9594 316.623 38.8179 313.218 39.6974C312.889 38.5932 312.605 37.6359 312.27 36.5052C310.097 37.0524 307.981 37.5853 305.767 38.1428C305.424 36.9671 305.104 35.8758 304.737 34.6177C302.822 35.1062 300.963 35.5804 299.104 36.0555C298.836 36.124 298.568 36.1927 298.302 36.2695C297.108 36.6143 295.522 36.6274 294.848 37.4174C294.33 38.0243 294.961 39.611 295.098 40.9198C294.189 41.2107 293.167 41.5377 292.08 41.8857C292.347 42.9835 292.586 43.9604 292.859 45.0834C289.551 45.9711 286.268 46.8518 282.819 47.7771C283.038 48.8824 283.248 49.9332 283.479 51.0932C277.999 52.5432 272.613 53.9688 267.079 55.4333C266.86 54.7035 266.577 54.0311 266.468 53.3315C266.309 52.307 265.824 52.224 264.924 52.4688C260.024 53.8007 255.11 55.0787 250.2 56.372C249.986 56.4281 249.765 56.4515 249.437 56.5096C249.112 55.4751 248.801 54.4845 248.44 53.3364C242.877 54.7975 237.405 56.2346 231.795 57.7082C231.533 56.7941 231.261 55.9777 231.071 55.1427C230.901 54.3972 230.535 54.159 229.786 54.3584C222.47 56.3041 215.146 58.2222 207.841 60.2089C207.52 60.2963 207.137 60.9884 207.168 61.3671C207.239 62.2197 207.551 63.0524 207.791 63.9951C206.697 64.3302 205.702 64.6349 204.61 64.9694C204.87 66.027 205.108 67 205.386 68.1307C204.383 68.4433 203.392 68.7523 202.191 69.1267C202.613 70.7714 202.948 72.4321 203.477 74.0282C203.898 75.2989 203.661 75.9302 202.271 76.0696C201.745 76.1223 201.241 76.3896 200.66 76.5812C200.909 77.6626 201.135 78.6404 201.392 79.7493C200.369 80.0635 199.375 80.3687 198.249 80.7144C198.43 81.5178 198.515 82.2962 198.787 83.0034C199.164 83.9864 198.926 84.3958 197.88 84.626C196.042 85.0312 194.237 85.5882 192.309 86.1111C192.54 87.2234 192.751 88.239 192.996 89.4147C186.417 91.1558 179.93 92.871 173.32 94.6196C173.105 93.915 172.854 93.3213 172.75 92.7026C172.572 91.6503 172.159 91.3768 171.052 91.6845C166.205 93.0311 161.329 94.2727 156.462 95.5502C156.244 95.6077 156.019 95.6369 155.654 95.7069C155.435 94.9815 155.149 94.3052 155.037 93.6015C154.858 92.4766 154.43 92.1689 153.257 92.5183C150.429 93.3588 147.553 94.0392 144.534 94.8264C144.211 93.8041 143.887 92.7818 143.512 91.5944C132.288 94.5587 121.151 97.4997 109.889 100.474C110.146 101.572 110.374 102.544 110.659 103.757C106.241 104.943 101.82 106.128 97.2646 107.351C97.5622 108.577 97.8299 109.68 98.1393 110.956C85.9059 114.191 73.6913 117.419 61.3089 120.693C60.9609 119.549 60.6212 118.432 60.2223 117.12C53.4894 118.895 46.8243 120.652 40.0338 122.443C40.3377 123.69 40.6064 124.792 40.9165 126.064C34.1657 127.856 27.4548 129.638 20.6196 131.451Z" fill="#FF087D"/>
</svg>
