<svg width="24" height="24" viewBox="0 0 24 24" fill="none" xmlns="http://www.w3.org/2000/svg">
<rect width="24" height="24" rx="12" fill="#282A42"/>
<path d="M18.8891 5.39954L18.8891 5.39953C17.171 4.75064 15.2528 5.61907 14.6047 7.33921L11.8602 14.6232C11.212 16.3434 12.0794 18.2639 13.7975 18.9128C15.5157 19.5616 17.4339 18.6932 18.082 16.9731L20.8265 9.68907C21.4746 7.96892 20.6072 6.04843 18.8891 5.39954Z" fill="#FF0086"/>
<path d="M10.2392 5.39954L10.2392 5.39953C8.5211 4.75064 6.60289 5.61907 5.95476 7.33921L3.21025 14.6232C2.56213 16.3434 3.42953 18.2639 5.14764 18.9128L5.14765 18.9128C6.86576 19.5616 8.78398 18.6932 9.4321 16.9731L12.1766 9.68907C12.8247 7.96892 11.9573 6.04843 10.2392 5.39954Z" fill="white"/>
<path d="M6.35351 18.0697C7.73813 18.0697 8.86059 16.9459 8.86059 15.5596C8.86059 14.1733 7.73813 13.0496 6.35351 13.0496C4.96889 13.0496 3.84644 14.1733 3.84644 15.5596C3.84644 16.9459 4.96889 18.0697 6.35351 18.0697Z" fill="#00B050"/>
</svg>
