<svg width="30" height="24" viewBox="0 0 30 24" fill="none" xmlns="http://www.w3.org/2000/svg">
<path d="M25.052 1.95667L25.052 1.95667C22.4981 0.992124 19.6467 2.28299 18.6833 4.8399L14.6038 15.6672C13.6404 18.2241 14.9297 21.0788 17.4836 22.0433C20.0375 23.0079 22.8888 21.717 23.8522 19.1601L27.9318 8.33283C28.8952 5.77592 27.6058 2.92122 25.052 1.95667Z" fill="#FF0086"/>
<path d="M12.1926 1.95667L12.1926 1.95667C9.63869 0.992124 6.78737 2.28299 5.82396 4.8399L1.7444 15.6672C0.780996 18.2241 2.07034 21.0788 4.62423 22.0433C7.17812 23.0079 10.0294 21.717 10.9928 19.1601L15.0724 8.33283C16.0358 5.77592 14.7465 2.92122 12.1926 1.95667Z" fill="#282A42"/>
<path d="M6.41804 20.7902C8.47621 20.7902 10.1447 19.1198 10.1447 17.0592C10.1447 14.9986 8.47621 13.3281 6.41804 13.3281C4.35988 13.3281 2.69141 14.9986 2.69141 17.0592C2.69141 19.1198 4.35988 20.7902 6.41804 20.7902Z" fill="#00B050"/>
</svg>
