<svg width="62" height="62" viewBox="0 0 62 62" fill="none" xmlns="http://www.w3.org/2000/svg">
<rect width="62" height="62" rx="10.85" fill="#222326"/>
<rect x="0.5" y="0.5" width="61" height="61" rx="10.35" stroke="black" stroke-opacity="0.1"/>
<path d="M44.0474 18.2343L44.0474 18.2343C40.7801 17.0003 37.1323 18.6518 35.8998 21.9229L30.6807 35.7746C29.4482 39.0457 31.0977 42.6978 34.365 43.9318C37.6322 45.1658 41.28 43.5143 42.5125 40.2432L47.7316 26.3915C48.9641 23.1204 47.3146 19.4683 44.0474 18.2343Z" fill="#FF0086"/>
<path d="M27.5983 18.2343L27.5983 18.2343C24.331 17.0003 20.6832 18.6518 19.4507 21.9229L14.2316 35.7746C12.9991 39.0457 14.6486 42.6978 17.9159 43.9318C21.1831 45.1658 24.8309 43.5143 26.0634 40.2432L31.2825 26.3915C32.515 23.1204 30.8656 19.4683 27.5983 18.2343Z" fill="white"/>
<path d="M20.209 42.3287C22.8421 42.3287 24.9766 40.1917 24.9766 37.5555C24.9766 34.9193 22.8421 32.7822 20.209 32.7822C17.5759 32.7822 15.4414 34.9193 15.4414 37.5555C15.4414 40.1917 17.5759 42.3287 20.209 42.3287Z" fill="#00B050"/>
</svg>
