<svg width="24" height="24" viewBox="0 0 24 24" fill="none" xmlns="http://www.w3.org/2000/svg">
<path d="M16.5 3H7.5C5.01472 3 3 5.01472 3 7.5V16.5C3 18.9853 5.01472 21 7.5 21H16.5C18.9853 21 21 18.9853 21 16.5V7.5C21 5.01472 18.9853 3 16.5 3Z" stroke="#FFFFFF" stroke-width="2" stroke-linecap="round" stroke-linejoin="round"/>
<path d="M15.5999 11.433C15.711 12.182 15.583 12.947 15.2343 13.6191C14.8855 14.2913 14.3337 14.8363 13.6574 15.1767C12.981 15.5172 12.2145 15.6357 11.4669 15.5154C10.7193 15.3951 10.0287 15.0421 9.49326 14.5067C8.95783 13.9712 8.60487 13.2806 8.48457 12.533C8.36427 11.7854 8.48277 11.0189 8.8232 10.3426C9.16364 9.6662 9.70867 9.11439 10.3808 8.76564C11.0529 8.4169 11.8179 8.28896 12.5669 8.40003C13.3309 8.51332 14.0383 8.86934 14.5844 9.4155C15.1306 9.96166 15.4866 10.669 15.5999 11.433Z" stroke="#FFFFFF" stroke-width="2" stroke-linecap="round" stroke-linejoin="round"/>
<path d="M16.95 7.05005H16.959" stroke="#FFFFFF" stroke-width="2" stroke-linecap="round" stroke-linejoin="round"/>
</svg>
