<svg width="18" height="19" viewBox="0 0 18 19" fill="none" xmlns="http://www.w3.org/2000/svg">
<g clip-path="url(#clip0_414_47)">
<path d="M8.96687 2.484C11.2749 2.484 11.5482 2.49413 12.4559 2.53462C13.2994 2.57174 13.755 2.71346 14.0587 2.83156C14.4602 2.98677 14.7504 3.17573 15.0507 3.47604C15.3544 3.77973 15.5399 4.06654 15.6952 4.46808C15.8133 4.77175 15.955 5.23065 15.9921 6.07086C16.0326 6.98189 16.0427 7.25522 16.0427 9.55987C16.0427 11.8679 16.0326 12.1412 15.9921 13.0488C15.955 13.8924 15.8133 14.348 15.6952 14.6516C15.5399 15.0532 15.351 15.3434 15.0507 15.6437C14.747 15.9473 14.4602 16.133 14.0587 16.2881C13.755 16.4062 13.2961 16.548 12.4559 16.5851C11.5448 16.6256 11.2715 16.6357 8.96687 16.6357C6.65887 16.6357 6.38554 16.6256 5.47789 16.5851C4.63431 16.548 4.17879 16.4062 3.8751 16.2881C3.47356 16.133 3.18337 15.944 2.88306 15.6437C2.57938 15.34 2.39379 15.0532 2.23857 14.6516C2.12048 14.348 1.97876 13.8891 1.94164 13.0488C1.90115 12.1378 1.89102 11.8645 1.89102 9.55987C1.89102 7.25187 1.90115 6.97854 1.94164 6.07086C1.97876 5.22727 2.12048 4.77175 2.23857 4.46808C2.39379 4.06654 2.58275 3.77635 2.88306 3.47604C3.18674 3.17236 3.47356 2.98677 3.8751 2.83156C4.17879 2.71346 4.63769 2.57174 5.47789 2.53462C6.38554 2.49413 6.65887 2.484 8.96687 2.484ZM8.96687 0.928467C6.62176 0.928467 6.32821 0.93859 5.40702 0.979081C4.48922 1.01957 3.85822 1.16804 3.31159 1.38062C2.74134 1.60332 2.25882 1.89688 1.77967 2.3794C1.29715 2.85855 1.00359 3.34107 0.780888 3.90795C0.568309 4.45795 0.419841 5.08557 0.379349 6.00337C0.338858 6.9279 0.328735 7.22149 0.328735 9.5666C0.328735 11.9117 0.338858 12.2053 0.379349 13.1264C0.419841 14.0442 0.568309 14.6753 0.780888 15.2219C1.00359 15.7921 1.29715 16.2747 1.77967 16.7538C2.25882 17.2329 2.74134 17.5299 3.30822 17.7492C3.85822 17.9618 4.48584 18.1103 5.40364 18.1507C6.32482 18.1912 6.61838 18.2014 8.96349 18.2014C11.3086 18.2014 11.6022 18.1912 12.5234 18.1507C13.4412 18.1103 14.0721 17.9618 14.6188 17.7492C15.1856 17.5299 15.6682 17.2329 16.1473 16.7538C16.6265 16.2747 16.9234 15.7921 17.1427 15.2253C17.3553 14.6753 17.5038 14.0476 17.5443 13.1298C17.5848 12.2086 17.5949 11.9151 17.5949 9.56998C17.5949 7.22487 17.5848 6.93129 17.5443 6.01014C17.5038 5.09234 17.3553 4.46133 17.1427 3.9147C16.9301 3.34107 16.6366 2.85855 16.1541 2.3794C15.6749 1.90026 15.1924 1.60332 14.6255 1.38399C14.0755 1.17141 13.4479 1.02295 12.5301 0.982455C11.6056 0.93859 11.312 0.928467 8.96687 0.928467Z" fill="#262F3F"/>
<path d="M8.9669 5.12939C6.51719 5.12939 4.52974 7.11685 4.52974 9.56655C4.52974 12.0163 6.51719 14.0037 8.9669 14.0037C11.4166 14.0037 13.4041 12.0163 13.4041 9.56655C13.4041 7.11685 11.4166 5.12939 8.9669 5.12939ZM8.9669 12.4448C7.37762 12.4448 6.08863 11.1558 6.08863 9.56655C6.08863 7.97728 7.37762 6.68829 8.9669 6.68829C10.5562 6.68829 11.8452 7.97728 11.8452 9.56655C11.8452 11.1558 10.5562 12.4448 8.9669 12.4448Z" fill="#262F3F"/>
<path d="M14.6154 4.95363C14.6154 5.52724 14.1498 5.98953 13.5795 5.98953C13.0059 5.98953 12.5436 5.5239 12.5436 4.95363C12.5436 4.38 13.0093 3.91772 13.5795 3.91772C14.1498 3.91772 14.6154 4.38337 14.6154 4.95363Z" fill="#262F3F"/>
</g>
<defs>
<clipPath id="clip0_414_47">
<rect width="17.2763" height="17.2763" fill="white" transform="translate(0.328735 0.928467)"/>
</clipPath>
</defs>
</svg>
